SplineFontDB: 3.0
FontName: PinyonScript-Regular
FullName: Pinyon Script
FamilyName: Pinyon Script
Weight: Regular
Copyright: Copyright (c) 2011 by Sorkin Type Co with Reserved Font Name Pinyon Script
Version: 1.007
ItalicAngle: 0
UnderlinePosition: -50
UnderlineWidth: 50
Ascent: 1638
Descent: 410
LayerCount: 2
Layer: 0 1 "Back"  1
Layer: 1 1 "Fore"  0
NeedsXUIDChange: 1
XUID: [1021 631 1661839179 12337654]
FSType: 0
OS2Version: 3
OS2_WeightWidthSlopeOnly: 0
OS2_UseTypoMetrics: 1
CreationTime: 1315272840
ModificationTime: 1316796340
PfmFamily: 65
TTFWeight: 400
TTFWidth: 5
LineGap: 0
VLineGap: 0
Panose: 2 1 5 1 8 1 1 13 0 2
OS2TypoAscent: 1900
OS2TypoAOffset: 0
OS2TypoDescent: -660
OS2TypoDOffset: 0
OS2TypoLinegap: 0
OS2WinAscent: 1900
OS2WinAOffset: 0
OS2WinDescent: 660
OS2WinDOffset: 0
HheadAscent: 1900
HheadAOffset: 0
HheadDescent: -660
HheadDOffset: 0
OS2SubXSize: 1434
OS2SubYSize: 1331
OS2SubXOff: 0
OS2SubYOff: 287
OS2SupXSize: 1434
OS2SupYSize: 1331
OS2SupXOff: 0
OS2SupYOff: 977
OS2StrikeYSize: 80
OS2StrikeYPos: 540
OS2Vendor: 'STC '
OS2CodePages: 20000111.40000000
OS2UnicodeRanges: 800000af.00000002.00000000.00000000
MarkAttachClasses: 1
DEI: 91125
TtTable: prep
PUSHW_1
 511
SCANCTRL
PUSHB_1
 4
SCANTYPE
EndTTInstrs
ShortTable: maxp 16
  1
  0
  262
  293
  6
  0
  0
  1
  0
  0
  0
  0
  0
  0
  0
  0
EndShort

StartChar: a
Encoding: 97 97 5
Width: 885
Flags: HW
LayerCount: 2
Fore
SplineSet
409 262 m 1,0,-1
 405 264 l 1,1,2
 241.524953789 62.3807763401 241.524953789 62.3807763401 92 9.5 c 0,3,4
 51 -5 51 -5 22 -5 c 0,5,6
 -102 -5 -102 -5 -102 127 c 0,7,8
 -102 279.363636364 -102 279.363636364 20 418 c 1,9,10
 201.424109749 626.502335085 201.424109749 626.502335085 381.5 664.5 c 0,11,12
 436 676 436 676 488.5 676 c 128,-1,13
 541 676 541 676 576.5 654 c 128,-1,14
 612 632 612 632 612 602.5 c 128,-1,15
 612 573 612 573 604 546 c 1,16,17
 617.688888889 562.133333333 617.688888889 562.133333333 692 656 c 1,18,-1
 719.5 651 l 2,19,20
 736 648 736 648 747.5 648 c 2,21,-1
 769.5 648 l 2,22,23
 813 648 813 648 834 655 c 1,24,-1
 497 249 l 2,25,26
 378.130688448 105.60210035 378.130688448 105.60210035 380 57 c 1,27,28
 380 29 380 29 414.5 29 c 128,-1,29
 449 29 449 29 497 51.5 c 128,-1,30
 545 74 545 74 593.5 109 c 128,-1,31
 642 144 642 144 689 187 c 128,-1,32
 736 230 736 230 776 271.5 c 0,33,34
 837.818181818 335.636363636 837.818181818 335.636363636 891 403 c 1,35,-1
 916 382 l 1,36,37
 896 362 896 362 863 325 c 128,-1,38
 830 288 830 288 789 245 c 128,-1,39
 748 202 748 202 700 157.5 c 128,-1,40
 652 113 652 113 600.5 77 c 0,41,42
 483.194444444 -5 483.194444444 -5 387.097222222 -5 c 128,-1,43
 291 -5 291 -5 291 59 c 0,44,45
 291 96.4615384615 291 96.4615384615 308 125.230769231 c 0,46,47
 338.109243697 176.18487395 338.109243697 176.18487395 409 262 c 1,0,-1
123 350 m 0,48,49
 -15 188.08 -15 188.08 -15 78.5 c 0,50,51
 -15 31 -15 31 27 31 c 0,52,53
 167.686746988 31 167.686746988 31 438 347 c 1,54,-1
 512 436 l 1,55,56
 578 528.4 578 528.4 578 584 c 0,57,58
 578 613 578 613 558 626.5 c 128,-1,59
 538 640 538 640 513 640 c 256,60,61
 418.509090909 640 418.509090909 640 246.5 481 c 0,62,63
 187 426 187 426 123 350 c 0,48,49
EndSplineSet
EndChar

StartChar: b
Encoding: 98 98 6
Width: 782
Flags: HW
LayerCount: 2
Fore
SplineSet
464 246 m 1,0,1
 300.129874776 48.8003577818 300.129874776 48.8003577818 126 1 c 0,2,3
 75 -13 75 -13 37 -13 c 128,-1,4
 -1 -13 -1 -13 -25 -2.5 c 128,-1,5
 -49 8 -49 8 -65 25.5 c 0,6,7
 -96 59.40625 -96 59.40625 -96 111.703125 c 128,-1,8
 -96 164 -96 164 -79.5 217 c 128,-1,9
 -63 270 -63 270 -31.5 331.5 c 0,10,11
 15.4736842105 423.210526316 15.4736842105 423.210526316 100.236842105 550.105263158 c 128,-1,12
 185 677 185 677 238 748 c 128,-1,13
 291 819 291 819 353 895.5 c 128,-1,14
 415 972 415 972 484 1050.5 c 128,-1,15
 553 1129 553 1129 623.5 1202.5 c 128,-1,16
 694 1276 694 1276 764.5 1340 c 128,-1,17
 835 1404 835 1404 900 1451.5 c 0,18,19
 1040.26315789 1554 1040.26315789 1554 1119.13157895 1554 c 128,-1,20
 1198 1554 1198 1554 1198 1495 c 0,21,22
 1198 1330.94594595 1198 1330.94594595 968 1102.5 c 0,23,24
 721.766773163 857.930511182 721.766773163 857.930511182 353 711 c 1,25,26
 135.081773904 442.941297103 135.081773904 442.941297103 68.0408869521 334.470648552 c 128,-1,27
 1 226 1 226 -17.5 178.5 c 128,-1,28
 -36 131 -36 131 -36 99 c 0,29,30
 -36 18 -36 18 35 18 c 0,31,32
 193.957446809 18 193.957446809 18 328 158 c 0,33,34
 373 205 373 205 409 269 c 1,35,36
 461.32972973 331.297297297 461.32972973 331.297297297 473.5 453 c 0,37,38
 476 478 476 478 476 484 c 2,39,-1
 476 490 l 1,40,-1
 465 569 l 1,41,42
 465 618.25 465 618.25 499 639.5 c 0,43,44
 511 647 511 647 529 647 c 0,45,46
 589 647 589 647 589 557 c 0,47,48
 589 435.533333333 589 435.533333333 498 296 c 1,49,50
 496 291 496 291 496 285.5 c 2,51,-1
 496 274 l 2,52,53
 496 267 496 267 495.5 257 c 128,-1,54
 495 247 495 247 499.5 237 c 0,55,56
 510.924611973 211.611973392 510.924611973 211.611973392 539.962305987 210.805986696 c 128,-1,57
 569 210 569 210 593 221.5 c 128,-1,58
 617 233 617 233 641.5 250.5 c 128,-1,59
 666 268 666 268 689 290 c 128,-1,60
 712 312 712 312 732 333.5 c 0,61,62
 770.75 375.15625 770.75 375.15625 791 403 c 1,63,-1
 816 382 l 1,64,-1
 796 360 l 1,65,66
 639.47826087 180 639.47826087 180 555.997194951 180 c 128,-1,67
 472.516129032 180 472.516129032 180 464 246 c 1,0,1
393 759 m 1,68,69
 584.639149641 835.283545003 584.639149641 835.283545003 774 989 c 0,70,71
 937.609022556 1121.81203008 937.609022556 1121.81203008 1051 1273 c 0,72,73
 1158 1415.66666667 1158 1415.66666667 1158 1495 c 0,74,75
 1158 1528 1158 1528 1122 1528 c 128,-1,76
 1086 1528 1086 1528 1034 1489 c 128,-1,77
 982 1450 982 1450 918.5 1384 c 0,78,79
 843.30358158 1305.84309267 843.30358158 1305.84309267 629 1046 c 2,80,-1
 393 759 l 1,68,69
EndSplineSet
EndChar

StartChar: c
Encoding: 99 99 7
Width: 653
Flags: HW
LayerCount: 2
Fore
SplineSet
685 383 m 1,0,1
 391 -9 391 -9 82 -9 c 0,2,3
 -70.3846153846 -9 -70.3846153846 -9 -112.5 100.5 c 0,4,5
 -125 133 -125 133 -125 184.5 c 0,6,7
 -125 306.571428571 -125 306.571428571 -2 453 c 1,8,9
 141.102040816 620.869701727 141.102040816 620.869701727 328 664 c 0,10,11
 380 676 380 676 420 676 c 128,-1,12
 460 676 460 676 484.5 667.5 c 128,-1,13
 509 659 509 659 524 645 c 0,14,15
 551.610619469 619.230088496 551.610619469 619.230088496 552.805309735 589.115044248 c 128,-1,16
 554 559 554 559 545 539 c 128,-1,17
 536 519 536 519 521 504 c 0,18,19
 488 471 488 471 447 471 c 0,20,21
 404 471 404 471 386 505.5 c 0,22,23
 380 517 380 517 380 539 c 128,-1,24
 380 561 380 561 402 580.5 c 128,-1,25
 424 600 424 600 452.5 600 c 128,-1,26
 481 600 481 600 504 591 c 1,27,28
 499.391304348 644 499.391304348 644 432.695652174 644 c 0,29,30
 296.22972973 644 296.22972973 644 69 349 c 1,31,32
 -24 221.125 -24 221.125 -24 127 c 0,33,34
 -24 83.9333333333 -24 83.9333333333 -1 62.4666666667 c 0,35,36
 39.1428571429 25 39.1428571429 25 99.0714285714 25 c 128,-1,37
 159 25 159 25 225 47 c 128,-1,38
 291 69 291 69 349 104 c 128,-1,39
 407 139 407 139 456.5 181.5 c 128,-1,40
 506 224 506 224 544.5 264.5 c 0,41,42
 613.007352941 336.566176471 613.007352941 336.566176471 659 403 c 1,43,-1
 685 383 l 1,0,1
EndSplineSet
EndChar

StartChar: d
Encoding: 100 100 8
Width: 856
Flags: HW
LayerCount: 2
Fore
SplineSet
375 264 m 1,0,1
 134.693333333 -5 134.693333333 -5 -0.153333333333 -5 c 128,-1,2
 -135 -5 -135 -5 -135 127 c 0,3,4
 -135 276.363636364 -135 276.363636364 -12 418 c 0,5,6
 212.493506494 676 212.493506494 676 457 676 c 0,7,8
 533.258064516 676 533.258064516 676 568.5 628.5 c 0,9,10
 580 613 580 613 580 592 c 2,11,-1
 580 587 l 1,12,-1
 670 716 l 2,13,14
 728 799 728 799 796.5 898 c 128,-1,15
 865 997 865 997 941.5 1106.5 c 0,16,17
 1123 1366.29411765 1123 1366.29411765 1268 1571 c 1,18,19
 1304.42857143 1554 1304.42857143 1554 1332.71428571 1554 c 0,20,21
 1374.33333333 1554 1374.33333333 1554 1401 1559 c 1,22,-1
 462 243 l 1,23,24
 349 94.3157894737 349 94.3157894737 349 54 c 0,25,26
 349 42 349 42 353 36.5 c 128,-1,27
 357 31 357 31 390.5 31 c 128,-1,28
 424 31 424 31 478.5 56 c 128,-1,29
 533 81 533 81 584.5 119 c 128,-1,30
 636 157 636 157 682.5 202.5 c 128,-1,31
 729 248 729 248 766 289.5 c 128,-1,32
 803 331 803 331 828.5 362 c 128,-1,33
 854 393 854 393 864 403 c 1,34,-1
 889 382 l 1,35,36
 882 375 882 375 856 343.5 c 128,-1,37
 830 312 830 312 790.5 269 c 128,-1,38
 751 226 751 226 700 178 c 128,-1,39
 649 130 649 130 592 89 c 0,40,41
 461.317073171 -5 461.317073171 -5 361.658536585 -5 c 128,-1,42
 262 -5 262 -5 262 65 c 1,43,44
 265.582278481 125.898734177 265.582278481 125.898734177 379 262 c 1,45,46
 377 262 377 262 375 264 c 1,0,1
93 347 m 1,47,48
 -47 177 -47 177 -47 77 c 0,49,50
 -47 31 -47 31 -1 31 c 0,51,52
 93.8 31 93.8 31 273 199 c 0,53,54
 337 259 337 259 375 305 c 0,55,56
 411.272727273 348.909090909 411.272727273 348.909090909 419.136363636 360.454545455 c 128,-1,57
 427 372 427 372 447.5 397 c 128,-1,58
 468 422 468 422 490 454 c 0,59,60
 545 534 545 534 545 584 c 0,61,62
 545 623.48 545 623.48 498.5 636.5 c 0,63,64
 486 640 486 640 468 640 c 128,-1,65
 450 640 450 640 411 621 c 128,-1,66
 372 602 372 602 322 565.5 c 0,67,68
 212.014958863 485.21091997 212.014958863 485.21091997 93 347 c 1,47,48
EndSplineSet
EndChar

StartChar: e
Encoding: 101 101 9
Width: 662
Flags: HW
LayerCount: 2
Fore
SplineSet
241 15 m 128,-1,1
 171 -9 171 -9 107 -9 c 128,-1,2
 43 -9 43 -9 7.5 5 c 128,-1,3
 -28 19 -28 19 -50 44 c 0,4,5
 -92 91.7272727273 -92 91.7272727273 -92 174 c 0,6,7
 -92 248.36 -92 248.36 -46.5 343 c 0,8,9
 -8.68874172185 421.647417219 -8.68874172185 421.647417219 74.6556291391 494.323708609 c 128,-1,10
 158 567 158 567 220.5 603.5 c 0,11,12
 344.643835616 676 344.643835616 676 426.821917808 676 c 128,-1,13
 509 676 509 676 533.5 654 c 128,-1,14
 558 632 558 632 558 603 c 256,15,16
 558 498.875 558 498.875 298 377 c 0,17,18
 202 332 202 332 58 284 c 1,19,20
 2 190.666666667 2 190.666666667 2 132.833333333 c 128,-1,21
 2 75 2 75 31.5 50 c 128,-1,22
 61 25 61 25 118 25 c 128,-1,23
 175 25 175 25 240.5 48.5 c 128,-1,24
 306 72 306 72 363.5 108.5 c 128,-1,25
 421 145 421 145 470 189.5 c 128,-1,26
 519 234 519 234 558 276 c 128,-1,27
 597 318 597 318 625.5 352.5 c 128,-1,28
 654 387 654 387 670 403 c 1,29,-1
 693 384 l 1,30,-1
 693 380 l 1,31,32
 676 363 676 363 647 328 c 128,-1,33
 618 293 618 293 577 249.5 c 128,-1,34
 536 206 536 206 484.5 160.5 c 128,-1,35
 433 115 433 115 372 77 c 128,-1,0
 311 39 311 39 241 15 c 128,-1,1
85 325 m 1,36,37
 375.282400178 426.907651126 375.282400178 426.907651126 459.5 529.5 c 0,38,39
 487 563 487 563 487 595 c 0,40,41
 487 647 487 647 439 647 c 0,42,43
 340.333333333 647 340.333333333 647 187 463 c 0,44,45
 137 403 137 403 85 325 c 1,36,37
EndSplineSet
EndChar

StartChar: f
Encoding: 102 102 10
Width: 545
Flags: HW
LayerCount: 2
Fore
SplineSet
316.5 182 m 128,-1,1
 245 154 245 154 156.5 154 c 128,-1,2
 68 154 68 154 0 205 c 1,3,-1
 -42 142 l 1,4,5
 -66.6026531901 -162.457833228 -66.6026531901 -162.457833228 -187 -398.5 c 0,6,7
 -265.295405928 -552.000203728 -265.295405928 -552.000203728 -361.5 -612.5 c 0,8,9
 -410 -643 -410 -643 -457.5 -643 c 128,-1,10
 -505 -643 -505 -643 -532 -612.5 c 128,-1,11
 -559 -582 -559 -582 -559 -548 c 128,-1,12
 -559 -514 -559 -514 -552.5 -488 c 128,-1,13
 -546 -462 -546 -462 -530 -426.5 c 128,-1,14
 -514 -391 -514 -391 -485.5 -343 c 128,-1,15
 -457 -295 -457 -295 -413 -226.5 c 0,16,17
 -338.234645669 -110.103937008 -338.234645669 -110.103937008 -164 146 c 1,18,-1
 -165 146 l 1,19,-1
 -73 284 l 1,20,21
 -124 360.5 -124 360.5 -124 414.75 c 128,-1,22
 -124 469 -124 469 -104.5 494 c 128,-1,23
 -85 519 -85 519 -59 519 c 128,-1,24
 -33 519 -33 519 -16.5 503 c 128,-1,25
 0 487 0 487 0 466.5 c 128,-1,26
 0 446 0 446 -5.5 432.5 c 128,-1,27
 -11 419 -11 419 -19.5 405.5 c 0,28,29
 -37.5365853659 376.853658537 -37.5365853659 376.853658537 -63 362 c 1,30,31
 -58.2142857143 338.071428571 -58.2142857143 338.071428571 -50 320 c 1,32,33
 186.598784195 681.258358663 186.598784195 681.258358663 273.799392097 818.629179331 c 128,-1,34
 361 956 361 956 413.5 1038 c 128,-1,35
 466 1120 466 1120 543.5 1223 c 128,-1,36
 621 1326 621 1326 690.5 1399.5 c 0,37,38
 836.591836735 1554 836.591836735 1554 918 1554 c 0,39,40
 1007 1554 1007 1554 1007 1457 c 0,41,42
 1007 1322.5 1007 1322.5 857 1097.5 c 0,43,44
 721.703349282 894.555023923 721.703349282 894.555023923 501.5 676.5 c 0,45,46
 281.880942706 459.023567655 281.880942706 459.023567655 83 333 c 1,47,-1
 15 229 l 1,48,49
 65.4782608696 186 65.4782608696 186 151.239130435 186 c 128,-1,50
 237 186 237 186 299.5 209 c 128,-1,51
 362 232 362 232 409.5 265 c 0,52,53
 470.953885568 307.694278395 470.953885568 307.694278395 549 402 c 1,54,-1
 576 382 l 1,55,56
 556 362 556 362 523 324 c 128,-1,57
 490 286 490 286 439 248 c 128,-1,0
 388 210 388 210 316.5 182 c 128,-1,1
920 1317 m 0,58,59
 956 1403 956 1403 956 1464.5 c 128,-1,60
 956 1526 956 1526 914 1526 c 0,61,62
 862.474576271 1526 862.474576271 1526 750 1368 c 0,63,64
 696.166281755 1292.37644342 696.166281755 1292.37644342 580.083140878 1109.68822171 c 128,-1,65
 464 927 464 927 402.5 830.5 c 0,66,67
 167.352941176 461.529411765 167.352941176 461.529411765 131 407 c 1,68,69
 309.750826173 530.13945803 309.750826173 530.13945803 505 736 c 0,70,71
 812.513122172 1060.22579186 812.513122172 1060.22579186 920 1317 c 0,58,59
-179 -58 m 1,72,73
 -406.990936556 -384.202416918 -406.990936556 -384.202416918 -450.495468278 -468.601208459 c 128,-1,74
 -494 -553 -494 -553 -494 -571 c 128,-1,75
 -494 -589 -494 -589 -483 -600.5 c 128,-1,76
 -472 -612 -472 -612 -451 -612 c 128,-1,77
 -430 -612 -430 -612 -396.5 -589.5 c 128,-1,78
 -363 -567 -363 -567 -325.5 -525 c 128,-1,79
 -288 -483 -288 -483 -250 -422 c 128,-1,80
 -212 -361 -212 -361 -178.5 -284 c 0,81,82
 -104.505494505 -113.923076923 -104.505494505 -113.923076923 -82 83 c 1,83,-1
 -179 -58 l 1,72,73
EndSplineSet
EndChar

StartChar: g
Encoding: 103 103 11
Width: 901
Flags: HW
LayerCount: 2
Fore
SplineSet
199 -162 m 1,0,1
 621.436482085 56.5016286645 621.436482085 56.5016286645 908 403 c 1,2,-1
 932 382 l 1,3,4
 683.086592932 81.5872673321 683.086592932 81.5872673321 366.5 -105 c 0,5,6
 263 -166 263 -166 151 -219 c 1,7,8
 0.301470588235 -399.838235294 0.301470588235 -399.838235294 -72.8492647059 -467.919117647 c 128,-1,9
 -146 -536 -146 -536 -189 -566 c 128,-1,10
 -232 -596 -232 -596 -272.5 -613 c 0,11,12
 -343.970588235 -643 -343.970588235 -643 -439 -643 c 0,13,14
 -506.153846154 -643 -506.153846154 -643 -532 -595 c 0,15,16
 -539 -582 -539 -582 -539 -560.5 c 128,-1,17
 -539 -539 -539 -539 -512.5 -505 c 128,-1,18
 -486 -471 -486 -471 -421 -430 c 0,19,20
 -294.168961667 -349.998883513 -294.168961667 -349.998883513 32 -225 c 1,21,22
 119.573505654 -120.366720517 119.573505654 -120.366720517 423 262 c 1,23,24
 421 262 421 262 419 264 c 1,25,26
 179.479452055 -5 179.479452055 -5 24 -5 c 0,27,28
 -98.8095238095 -5 -98.8095238095 -5 -103 127 c 1,29,30
 -103 226.545454545 -103 226.545454545 -35 344 c 0,31,32
 -13 382 -13 382 32 436 c 128,-1,33
 77 490 77 490 139.5 539.5 c 128,-1,34
 202 589 202 589 262 619.5 c 0,35,36
 373.147540984 676 373.147540984 676 458.073770492 676 c 0,37,38
 622 676 622 676 622 592 c 0,39,40
 622 574 622 574 614 548 c 1,41,42
 662 606.666666667 662 606.666666667 699 656 c 1,43,44
 743 648 743 648 755.5 648 c 2,45,-1
 778 648 l 2,46,47
 814 648 814 648 842 655 c 1,48,-1
 519 240 l 2,49,50
 338.447154472 8.66666666667 338.447154472 8.66666666667 199 -162 c 1,0,1
123 347 m 0,51,52
 -15 174.5 -15 174.5 -15 79.5 c 0,53,54
 -15 31 -15 31 30 31 c 0,55,56
 123 31 123 31 316.5 209.5 c 0,57,58
 394.671195652 281.611413043 394.671195652 281.611413043 461 360 c 1,59,-1
 530 445 l 1,60,61
 588 530.739130435 588 530.739130435 588 585.369565217 c 128,-1,62
 588 640 588 640 503 640 c 0,63,64
 413.809090909 640 413.809090909 640 241.5 478 c 0,65,66
 183 423 183 423 123 347 c 0,51,52
-7 -272 m 1,67,68
 -501 -456.328358209 -501 -456.328358209 -501 -575 c 0,69,70
 -501 -584 -501 -584 -483 -597.5 c 128,-1,71
 -465 -611 -465 -611 -430.5 -611 c 128,-1,72
 -396 -611 -396 -611 -357 -597 c 128,-1,73
 -318 -583 -318 -583 -269.5 -545.5 c 0,74,75
 -179.619266055 -476.004587156 -179.619266055 -476.004587156 -7 -272 c 1,67,68
EndSplineSet
EndChar

StartChar: h
Encoding: 104 104 12
Width: 893
Flags: HW
LayerCount: 2
Fore
SplineSet
-110 16 m 1,0,1
 -147.5 21 -147.5 21 -175.25 21 c 0,2,3
 -230.8 21 -230.8 21 -270 7 c 1,4,-1
 824 1570 l 1,5,-1
 882 1566 l 2,6,7
 890 1566 890 1566 895.5 1565.5 c 128,-1,8
 901 1565 901 1565 909 1565.5 c 0,9,10
 939 1567.375 939 1567.375 968 1571 c 1,11,-1
 -9 214 l 1,12,13
 -9 212 -9 212 -7 210 c 1,14,15
 360.050248139 628.8691067 360.050248139 628.8691067 526.5 668.5 c 0,16,17
 558 676 558 676 588 676 c 128,-1,18
 618 676 618 676 640 667.5 c 128,-1,19
 662 659 662 659 676.5 645.5 c 0,20,21
 705 618.965517241 705 618.965517241 705 583.982758621 c 128,-1,22
 705 549 705 549 692.5 511.5 c 128,-1,23
 680 474 680 474 648 422 c 0,24,25
 581.076923077 313.25 581.076923077 313.25 423 142 c 0,26,27
 360.3 74.075 360.3 74.075 356.65 64.0375 c 128,-1,28
 353 54 353 54 353 48 c 0,29,30
 353 29 353 29 413 29 c 128,-1,31
 473 29 473 29 526.5 54.5 c 128,-1,32
 580 80 580 80 630.5 119 c 128,-1,33
 681 158 681 158 726 204.5 c 128,-1,34
 771 251 771 251 807 292.5 c 128,-1,35
 843 334 843 334 867 364.5 c 128,-1,36
 891 395 891 395 899 403 c 1,37,-1
 925 382 l 1,38,39
 916 373 916 373 890 340.5 c 128,-1,40
 864 308 864 308 826.5 265 c 128,-1,41
 789 222 789 222 740.5 174.5 c 128,-1,42
 692 127 692 127 638 87 c 0,43,44
 513.8 -5 513.8 -5 409 -5 c 0,45,46
 325.482758621 -5 325.482758621 -5 287 41.5 c 0,47,48
 275 56 275 56 275 75 c 128,-1,49
 275 94 275 94 282.5 120 c 128,-1,50
 290 146 290 146 312.5 184 c 0,51,52
 362.216676453 267.965942454 362.216676453 267.965942454 460.608338227 379.482971227 c 0,53,54
 621 561.27074916 621 561.27074916 621 613 c 0,55,56
 621 645 621 645 570.35483871 645 c 128,-1,57
 519.709677419 645 519.709677419 645 433 589 c 1,58,-1
 433 590 l 1,59,60
 249.512195122 467.674796748 249.512195122 467.674796748 -18 137 c 1,61,-1
 -110 16 l 1,0,1
EndSplineSet
EndChar

StartChar: i
Encoding: 105 105 13
Width: 444
Flags: HW
LayerCount: 2
Fore
SplineSet
489 865 m 128,-1,1
 471 857 471 857 447.5 857 c 128,-1,2
 424 857 424 857 407 875 c 128,-1,3
 390 893 390 893 390 916 c 128,-1,4
 390 939 390 939 398 956 c 128,-1,5
 406 973 406 973 419.5 986.5 c 0,6,7
 450 1017 450 1017 485.5 1017 c 128,-1,8
 521 1017 521 1017 537.5 998.5 c 128,-1,9
 554 980 554 980 554 956.5 c 128,-1,10
 554 933 554 933 545 916 c 128,-1,11
 536 899 536 899 521.5 886 c 128,-1,0
 507 873 507 873 489 865 c 128,-1,1
-45 29 m 128,-1,13
 11 29 11 29 62.5 55.5 c 128,-1,14
 114 82 114 82 166.5 122 c 128,-1,15
 219 162 219 162 268.5 209 c 128,-1,16
 318 256 318 256 357.5 298 c 0,17,18
 422.440677966 367.050847458 422.440677966 367.050847458 452 404 c 1,19,-1
 477 382 l 1,20,-1
 452 354 l 1,21,22
 134.423076923 -5 134.423076923 -5 -49 -5 c 0,23,24
 -112 -5 -112 -5 -149 17.5 c 128,-1,25
 -186 40 -186 40 -186 70 c 128,-1,26
 -186 100 -186 100 -180.5 123 c 128,-1,27
 -175 146 -175 146 -159 177.5 c 128,-1,28
 -143 209 -143 209 -114.5 251.5 c 128,-1,29
 -86 294 -86 294 -41 353 c 0,30,31
 47.6544850498 469.235880399 47.6544850498 469.235880399 220 669 c 1,32,33
 232 666 232 666 269.5 666 c 2,34,-1
 316 666 l 2,35,36
 343.5 666 343.5 666 363 669 c 1,37,38
 -1.62971175166 239.800443459 -1.62971175166 239.800443459 -66.5 140 c 0,39,40
 -101 86.9230769231 -101 86.9230769231 -101 57.9615384615 c 128,-1,12
 -101 29 -101 29 -45 29 c 128,-1,13
EndSplineSet
EndChar

StartChar: j
Encoding: 106 106 14
Width: 375
Flags: HW
LayerCount: 2
Fore
SplineSet
435.5 865 m 128,-1,1
 417 857 417 857 394 857 c 128,-1,2
 371 857 371 857 353.5 875 c 128,-1,3
 336 893 336 893 336 916 c 128,-1,4
 336 939 336 939 344 956 c 128,-1,5
 352 973 352 973 366 986.5 c 0,6,7
 397.62962963 1017 397.62962963 1017 432.314814815 1017 c 128,-1,8
 467 1017 467 1017 483.5 998.5 c 128,-1,9
 500 980 500 980 500 956.5 c 128,-1,10
 500 933 500 933 491 916 c 128,-1,11
 482 899 482 899 468 886 c 128,-1,0
 454 873 454 873 435.5 865 c 128,-1,1
327 669 m 1,12,13
 110.857142857 389.285714286 110.857142857 389.285714286 -7 235 c 1,14,15
 -143.246376812 66.6956521739 -143.246376812 66.6956521739 -300 -117 c 1,16,17
 -36.3565719361 3.96580817052 -36.3565719361 3.96580817052 80.5 89.5 c 0,18,19
 172.588448588 156.904946905 172.588448588 156.904946905 248.294224294 242.452473452 c 128,-1,20
 324 328 324 328 383 403 c 1,21,-1
 407 382 l 1,22,23
 271.825823224 214.056325823 271.825823224 214.056325823 200.912911612 150.028162912 c 128,-1,24
 130 86 130 86 78 49 c 128,-1,25
 26 12 26 12 -36 -22 c 0,26,27
 -129 -73 -129 -73 -349 -173 c 1,28,29
 -527.785310734 -375.623352166 -527.785310734 -375.623352166 -617.892655367 -451.811676083 c 128,-1,30
 -708 -528 -708 -528 -760.5 -561 c 128,-1,31
 -813 -594 -813 -594 -860.5 -612 c 0,32,33
 -942.305555556 -643 -942.305555556 -643 -1049 -643 c 0,34,35
 -1113.33333333 -643 -1113.33333333 -643 -1133.5 -599 c 0,36,37
 -1139 -587 -1139 -587 -1139 -565.5 c 128,-1,38
 -1139 -544 -1139 -544 -1102 -502 c 128,-1,39
 -1065 -460 -1065 -460 -986 -410 c 0,40,41
 -810.196878423 -298.732201533 -810.196878423 -298.732201533 -491 -183 c 1,42,43
 -449 -137 -449 -137 -405 -85 c 128,-1,44
 -361 -33 -361 -33 -324.5 11 c 128,-1,45
 -288 55 -288 55 -256 96 c 128,-1,46
 -224 137 -224 137 -186.5 184.5 c 128,-1,47
 -149 232 -149 232 -109 284.5 c 128,-1,48
 -69 337 -69 337 -30 388 c 128,-1,49
 9 439 9 439 44 486 c 128,-1,50
 79 533 79 533 105.5 571 c 0,51,52
 163.221264368 653.770114943 163.221264368 653.770114943 165 668 c 1,53,54
 171 666 171 666 189.5 666 c 0,55,56
 239 666 239 666 274 666 c 128,-1,57
 309 666 309 666 327 669 c 1,12,13
-536 -233 m 1,58,59
 -789.336244541 -328.96069869 -789.336244541 -328.96069869 -950 -428 c 0,60,61
 -1101 -521.082191781 -1101 -521.082191781 -1101 -575 c 0,62,63
 -1101 -584 -1101 -584 -1088.5 -597.5 c 128,-1,64
 -1076 -611 -1076 -611 -1040 -611 c 128,-1,65
 -1004 -611 -1004 -611 -957 -594.5 c 128,-1,66
 -910 -578 -910 -578 -851 -536 c 0,67,68
 -735.43375 -453.7325 -735.43375 -453.7325 -536 -233 c 1,58,59
EndSplineSet
EndChar

StartChar: k
Encoding: 107 107 15
Width: 846
Flags: HW
LayerCount: 2
Fore
SplineSet
-136 16 m 1,0,1
 -161 21 -161 21 -180 21 c 128,-1,2
 -199 21 -199 21 -209.5 19.5 c 128,-1,3
 -220 18 -220 18 -231 16 c 0,4,5
 -251.625 12.25 -251.625 12.25 -270 7 c 1,6,-1
 827 1570 l 1,7,-1
 849.5 1567.5 l 2,8,9
 863 1566 863 1566 878.5 1566 c 128,-1,10
 894 1566 894 1566 899.5 1565.5 c 128,-1,11
 905 1565 905 1565 912.5 1565.5 c 0,12,13
 940.217391304 1567.34782609 940.217391304 1567.34782609 967 1571 c 1,14,-1
 281 617 l 2,15,16
 62.4285714286 311.642857143 62.4285714286 311.642857143 -134 17 c 1,17,-1
 -136 16 l 1,0,1
321 56 m 0,18,19
 321 29 321 29 366.5 29 c 128,-1,20
 412 29 412 29 463 53 c 128,-1,21
 514 77 514 77 564.5 113.5 c 128,-1,22
 615 150 615 150 661.5 194 c 0,23,24
 745.178729531 273.179873104 745.178729531 273.179873104 846 395 c 1,25,-1
 853 405 l 1,26,-1
 879 382 l 1,27,28
 874 377 874 377 858.5 359.5 c 128,-1,29
 843 342 843 342 812 307.5 c 128,-1,30
 781 273 781 273 741 232 c 128,-1,31
 701 191 701 191 653.5 149 c 128,-1,32
 606 107 606 107 555.5 73 c 0,33,34
 439.647058824 -5 439.647058824 -5 354 -5 c 0,35,36
 252 -5 252 -5 252 103 c 0,37,38
 252 192.408450704 252 192.408450704 373 310 c 1,39,40
 420 358.678571429 420 358.678571429 420 376.339285714 c 0,41,42
 420 413.4 420 413.4 365 431 c 1,43,44
 306.818181818 399 306.818181818 399 261.409090909 399 c 0,45,46
 186 399 186 399 186 432 c 0,47,48
 186 452 186 452 215 466 c 128,-1,49
 244 480 244 480 286.5 480 c 128,-1,50
 329 480 329 480 363 470 c 1,51,52
 400.84 487.2 400.84 487.2 444 537 c 2,53,-1
 469 566 l 2,54,55
 539.028571429 647.7 539.028571429 647.7 574.014285714 675.35 c 0,56,57
 648.224489796 734 648.224489796 734 706.612244898 734 c 128,-1,58
 765 734 765 734 794 708.5 c 128,-1,59
 823 683 823 683 823 647.5 c 128,-1,60
 823 612 823 612 800.5 595 c 128,-1,61
 778 578 778 578 753 578 c 128,-1,62
 728 578 728 578 709 594 c 128,-1,63
 690 610 690 610 690 641.294117647 c 128,-1,64
 690 672.588235294 690 672.588235294 727 690 c 1,65,66
 713 698 713 698 693 698 c 128,-1,67
 673 698 673 698 651 689.5 c 128,-1,68
 629 681 629 681 603.5 661 c 0,69,70
 552.882117882 621.2997003 552.882117882 621.2997003 475 522 c 1,71,72
 444.62992126 486.834645669 444.62992126 486.834645669 403 455 c 1,73,74
 493 411.046511628 493 411.046511628 493 326 c 0,75,76
 493 278.571428571 493 278.571428571 475 245.785714286 c 0,77,78
 442.81233244 187.158176944 442.81233244 187.158176944 358 108 c 0,79,80
 321 73.3125 321 73.3125 321 56 c 0,18,19
EndSplineSet
EndChar

StartChar: l
Encoding: 108 108 16
Width: 449
Flags: HW
LayerCount: 2
Fore
SplineSet
-92 58 m 0,0,1
 -92 29 -92 29 -47.5 29 c 128,-1,2
 -3 29 -3 29 48 52.5 c 128,-1,3
 99 76 99 76 149.5 112.5 c 128,-1,4
 200 149 200 149 247.5 193.5 c 128,-1,5
 295 238 295 238 335.5 279.5 c 128,-1,6
 376 321 376 321 407 354.5 c 128,-1,7
 438 388 438 388 455 403 c 1,8,-1
 479 382 l 1,9,10
 474 378 474 378 466.5 369.5 c 128,-1,11
 459 361 459 361 442.5 343 c 128,-1,12
 426 325 426 325 392 289 c 128,-1,13
 358 253 358 253 316.5 213.5 c 128,-1,14
 275 174 275 174 227.5 135 c 128,-1,15
 180 96 180 96 130.5 65 c 0,16,17
 18.7258064516 -5 18.7258064516 -5 -66 -5 c 0,18,19
 -109 -5 -109 -5 -136.5 18.5 c 128,-1,20
 -164 42 -164 42 -164 68 c 128,-1,21
 -164 94 -164 94 -162 110.5 c 128,-1,22
 -160 127 -160 127 -152 147.5 c 128,-1,23
 -144 168 -144 168 -129.5 195 c 128,-1,24
 -115 222 -115 222 -89.5 261.5 c 0,25,26
 -52.1060070671 319.424028269 -52.1060070671 319.424028269 62 484 c 2,27,-1
 822 1570 l 1,28,-1
 881 1566 l 2,29,30
 889 1566 889 1566 894.5 1565.5 c 128,-1,31
 900 1565 900 1565 908.5 1565.5 c 0,32,33
 936.428571429 1567.14285714 936.428571429 1567.14285714 966 1571 c 1,34,-1
 154 444 l 1,35,36
 -60.1253918495 143.702194357 -60.1253918495 143.702194357 -84 87 c 0,37,38
 -92 68 -92 68 -92 58 c 0,0,1
EndSplineSet
EndChar

StartChar: m
Encoding: 109 109 17
Width: 1409
Flags: HW
LayerCount: 2
Fore
SplineSet
36 16 m 1,0,1
 1 21 1 21 -28 21 c 0,2,3
 -89.4 21 -89.4 21 -123 7 c 1,4,5
 -27 147 -27 147 41.5 244.5 c 128,-1,6
 110 342 110 342 155.5 407 c 128,-1,7
 201 472 201 472 227.5 510 c 128,-1,8
 254 548 254 548 268 569.5 c 0,9,10
 289 601.75 289 601.75 289 617 c 256,11,12
 289 637 289 637 271 637 c 0,13,14
 232.272727273 637 232.272727273 637 29 379 c 1,15,-1
 26 379 l 2,16,17
 23 379 23 379 12 383 c 128,-1,18
 1 387 1 387 1 392 c 128,-1,19
 1 397 1 397 12.5 409 c 128,-1,20
 24 421 24 421 46.5 449 c 128,-1,21
 69 477 69 477 94 507.5 c 128,-1,22
 119 538 119 538 145.5 568.5 c 128,-1,23
 172 599 172 599 199 622.5 c 0,24,25
 260.468085106 676 260.468085106 676 307 676 c 0,26,27
 389 676 389 676 389 612 c 0,28,29
 389 564.193548387 389 564.193548387 342 499 c 2,30,-1
 137 214 l 1,31,-1
 140 209 l 1,32,33
 458.463085399 573.980165289 458.463085399 573.980165289 592.5 646 c 0,34,35
 648.333333333 676 648.333333333 676 694.166666667 676 c 128,-1,36
 740 676 740 676 762.5 667.5 c 128,-1,37
 785 659 785 659 799 645.5 c 0,38,39
 827 618.5 827 618.5 827 582.75 c 0,40,41
 827 518.130434783 827 518.130434783 788 452 c 1,42,43
 973.954545455 637.954545455 973.954545455 637.954545455 1074 667 c 0,44,45
 1105 676 1105 676 1135 676 c 128,-1,46
 1165 676 1165 676 1187.5 667 c 128,-1,47
 1210 658 1210 658 1224.5 643.5 c 0,48,49
 1251 617 1251 617 1250 580 c 128,-1,50
 1249 543 1249 543 1235.5 505.5 c 128,-1,51
 1222 468 1222 468 1190.5 417 c 0,52,53
 1129.34743875 317.991091314 1129.34743875 317.991091314 969 142 c 1,54,55
 904.810810811 75.2432432432 904.810810811 75.2432432432 901.905405405 63.6216216216 c 128,-1,56
 899 52 899 52 899 45 c 1,57,-1
 892 44 l 1,58,59
 899.285714286 27 899.285714286 27 947.642857143 27 c 128,-1,60
 996 27 996 27 1036.5 46.5 c 128,-1,61
 1077 66 1077 66 1118.5 97.5 c 128,-1,62
 1160 129 1160 129 1201.5 168 c 128,-1,63
 1243 207 1243 207 1279.5 246 c 128,-1,64
 1316 285 1316 285 1345.5 319.5 c 128,-1,65
 1375 354 1375 354 1394 376 c 2,66,-1
 1417 403 l 1,67,-1
 1441 382 l 1,68,-1
 1419 357 l 1,69,70
 1194.59270517 87.7112462006 1194.59270517 87.7112462006 1033.5 13.5 c 0,71,72
 989 -7 989 -7 955.5 -7 c 128,-1,73
 922 -7 922 -7 897.5 -1.5 c 128,-1,74
 873 4 873 4 854.5 14.5 c 0,75,76
 815 36.9189189189 815 36.9189189189 815 64.4594594595 c 128,-1,77
 815 92 815 92 823 118 c 128,-1,78
 831 144 831 144 854.5 182 c 0,79,80
 902.470039947 259.568575233 902.470039947 259.568575233 1002.73501997 374.784287617 c 0,81,82
 1167 563.543181184 1167 563.543181184 1167 613 c 0,83,84
 1167 645 1167 645 1130.5 645 c 128,-1,85
 1094 645 1094 645 1043 617 c 128,-1,86
 992 589 992 589 920.5 529.5 c 0,87,88
 755.5617185 392.243667842 755.5617185 392.243667842 563 152 c 1,89,-1
 460 16 l 1,90,91
 425 21 425 21 396.5 21 c 0,92,93
 339.2 21 339.2 21 300 7 c 1,94,95
 352.388888889 68.5 352.388888889 68.5 382.694444444 106.75 c 128,-1,96
 413 145 413 145 432.5 169 c 128,-1,97
 452 193 452 193 468 213 c 0,98,99
 502.857142857 256.571428571 502.857142857 256.571428571 550 321 c 1,100,-1
 612 403 l 1,101,102
 744 575.857142857 744 575.857142857 744 618 c 0,103,104
 744 645 744 645 706.5 645 c 128,-1,105
 669 645 669 645 620 619.5 c 128,-1,106
 571 594 571 594 501 534.5 c 0,107,108
 346.971896956 403.576112412 346.971896956 403.576112412 127 137 c 1,109,110
 104 107 104 107 81.5 76 c 128,-1,111
 59 45 59 45 36 16 c 1,0,1
EndSplineSet
EndChar

StartChar: n
Encoding: 110 110 18
Width: 1024
Flags: HW
LayerCount: 2
Fore
SplineSet
36 16 m 1,0,1
 -4 21 -4 21 -30 21 c 0,2,3
 -83.8 21 -83.8 21 -123 7 c 1,4,-1
 159 412 l 2,5,6
 204 477 204 477 230 514 c 128,-1,7
 256 551 256 551 269 571 c 0,8,9
 288 600.230769231 288 600.230769231 288 618.615384615 c 128,-1,10
 288 637 288 637 270 637 c 0,11,12
 231.272727273 637 231.272727273 637 28 379 c 1,13,-1
 25 379 l 2,14,15
 22 379 22 379 11 383 c 128,-1,16
 0 387 0 387 0 392 c 128,-1,17
 0 397 0 397 11.5 409 c 128,-1,18
 23 421 23 421 45.5 449 c 128,-1,19
 68 477 68 477 93 507.5 c 128,-1,20
 118 538 118 538 144.5 568.5 c 128,-1,21
 171 599 171 599 198 622.5 c 0,22,23
 259.468085106 676 259.468085106 676 306 676 c 0,24,25
 388 676 388 676 388 612 c 0,26,27
 388 564.193548387 388 564.193548387 341 499 c 2,28,-1
 136 214 l 1,29,-1
 139 209 l 1,30,31
 420.175911252 527.17274168 420.175911252 527.17274168 566 623 c 1,32,-1
 566 622 l 1,33,34
 647 676 647 676 717 676 c 0,35,36
 807.756756757 676 807.756756757 676 829 610.5 c 0,37,38
 869.52559727 485.546075085 869.52559727 485.546075085 553 142 c 1,39,40
 490.182741117 76.6700507614 490.182741117 76.6700507614 487.091370558 65.3350253807 c 128,-1,41
 484 54 484 54 484 48 c 0,42,43
 484 29 484 29 543 29 c 128,-1,44
 602 29 602 29 655 54.5 c 128,-1,45
 708 80 708 80 758.5 119 c 128,-1,46
 809 158 809 158 854.5 204.5 c 128,-1,47
 900 251 900 251 936.5 292.5 c 128,-1,48
 973 334 973 334 997 364.5 c 128,-1,49
 1021 395 1021 395 1029 403 c 1,50,-1
 1053 384 l 1,51,-1
 1053 380 l 1,52,53
 848.961038961 107.948051948 848.961038961 107.948051948 655 21 c 0,54,55
 597 -5 597 -5 554.5 -5 c 128,-1,56
 512 -5 512 -5 487.5 0.5 c 128,-1,57
 463 6 463 6 444.5 16.5 c 0,58,59
 405 38.9189189189 405 38.9189189189 405 66.4594594595 c 128,-1,60
 405 94 405 94 412.5 120 c 128,-1,61
 420 146 420 146 442.5 184 c 0,62,63
 492.216676453 267.965942454 492.216676453 267.965942454 590.608338227 379.482971227 c 0,64,65
 751 561.27074916 751 561.27074916 751 613 c 0,66,67
 751 645 751 645 713 645 c 128,-1,68
 675 645 675 645 621.5 614.5 c 128,-1,69
 568 584 568 584 494.5 521 c 0,70,71
 336.20703125 385.3203125 336.20703125 385.3203125 128 137 c 1,72,-1
 36 16 l 1,0,1
EndSplineSet
EndChar

StartChar: o
Encoding: 111 111 19
Width: 721
Flags: HW
LayerCount: 2
Fore
SplineSet
519 175.5 m 0,0,1
 482 155 482 155 442.205882353 155 c 128,-1,2
 402.411764706 155 402.411764706 155 386 186 c 1,3,4
 270.38961039 51.1212121212 270.38961039 51.1212121212 135 9 c 0,5,6
 90 -5 90 -5 46 -5 c 256,7,8
 -79.6037735849 -5 -79.6037735849 -5 -113 83.5 c 0,9,10
 -123 110 -123 110 -123 142 c 128,-1,11
 -123 174 -123 174 -114.5 209.5 c 128,-1,12
 -106 245 -106 245 -92.5 280 c 0,13,14
 -68.7242718447 341.640776699 -68.7242718447 341.640776699 -29.8621359223 397.82038835 c 128,-1,15
 9 454 9 454 57.5 503 c 128,-1,16
 106 552 106 552 163 590.5 c 0,17,18
 289.584415584 676 289.584415584 676 411 676 c 0,19,20
 465 676 465 676 503.5 648 c 128,-1,21
 542 620 542 620 546 560 c 1,22,23
 546 387.59375 546 387.59375 412 218 c 1,24,25
 416.833333333 189 416.833333333 189 449.916666667 189 c 128,-1,26
 483 189 483 189 518.5 210.5 c 128,-1,27
 554 232 554 232 589 262.5 c 0,28,29
 638 305.2 638 305.2 706 380 c 2,30,-1
 727 403 l 1,31,-1
 752 382 l 1,32,-1
 719 348 l 1,33,34
 602.446808511 221.734042553 602.446808511 221.734042553 519 175.5 c 0,0,1
75 31 m 0,35,36
 103 31 103 31 142.5 47.5 c 128,-1,37
 182 64 182 64 223 91 c 0,38,39
 311.303401361 149.151020408 311.303401361 149.151020408 376 228 c 1,40,-1
 376 230 l 2,41,42
 376 313.235294118 376 313.235294118 438 357 c 0,43,44
 455 369 455 369 470 375 c 1,45,46
 512 463 512 463 512 538 c 0,47,48
 512 611.6 512 611.6 468.5 629 c 0,49,50
 456 634 456 634 443 634 c 0,51,52
 326.596899225 634 326.596899225 634 119 374 c 0,53,54
 -7 216.956521739 -7 216.956521739 -7 123 c 0,55,56
 -7 31 -7 31 75 31 c 0,35,36
EndSplineSet
EndChar

StartChar: p
Encoding: 112 112 20
Width: 844
Flags: HW
LayerCount: 2
Fore
SplineSet
301 69 m 0,0,1
 301 29 301 29 367 29 c 0,2,3
 499.186666667 29 499.186666667 29 698 230.5 c 0,4,5
 751.040462428 284.257225434 751.040462428 284.257225434 822 370 c 1,6,-1
 851 403 l 1,7,-1
 876 382 l 1,8,-1
 853 356 l 2,9,10
 827 327 827 327 793.5 289 c 128,-1,11
 760 251 760 251 720 211 c 128,-1,12
 680 171 680 171 636 132 c 128,-1,13
 592 93 592 93 546 62.5 c 0,14,15
 444.196721311 -5 444.196721311 -5 373.098360656 -5 c 0,16,17
 244 -5 244 -5 244 95 c 0,18,19
 244 243.640449438 244 243.640449438 569 481 c 0,20,21
 695 571.837209302 695 571.837209302 695 617 c 0,22,23
 695 628 695 628 685 636.5 c 128,-1,24
 675 645 675 645 644.5 645 c 0,25,26
 579.75 645 579.75 645 473 584 c 1,27,28
 284.045389049 467.028097983 284.045389049 467.028097983 -0.5 175.5 c 0,29,30
 -82 92 -82 92 -147 17 c 1,31,32
 -319.56043956 -214.483516484 -319.56043956 -214.483516484 -548.5 -592.5 c 0,33,34
 -570 -628 -570 -628 -573 -635 c 1,35,36
 -617 -643 -617 -643 -645.5 -643 c 128,-1,37
 -674 -643 -674 -643 -684 -642.5 c 128,-1,38
 -694 -642 -694 -642 -705 -640.5 c 0,39,40
 -731.304347826 -636.913043478 -731.304347826 -636.913043478 -745 -633 c 1,41,42
 -695 -565 -695 -565 -638 -487.5 c 128,-1,43
 -581 -410 -581 -410 -521 -327.5 c 128,-1,44
 -461 -245 -461 -245 -398.5 -159.5 c 128,-1,45
 -336 -74 -336 -74 -275 11 c 0,46,47
 -125.84516129 218.838709677 -125.84516129 218.838709677 -61.9225806452 309.419354839 c 128,-1,48
 2 400 2 400 36 446 c 128,-1,49
 70 492 70 492 99 530.5 c 128,-1,50
 128 569 128 569 156 606.5 c 128,-1,51
 184 644 184 644 220 692 c 128,-1,52
 256 740 256 740 304.5 804.5 c 128,-1,53
 353 869 353 869 422 963 c 1,54,55
 474.5 957 474.5 957 501.75 957 c 0,56,57
 551 957 551 957 581 967 c 1,58,59
 267.639810427 590.120853081 267.639810427 590.120853081 114 381 c 1,60,-1
 25 262 l 1,61,-1
 29 257 l 1,62,63
 290.461494143 508.086038026 290.461494143 508.086038026 385.730747071 572.043019013 c 128,-1,64
 481 636 481 636 539 656 c 128,-1,65
 597 676 597 676 657 676 c 0,66,67
 753 676 753 676 753 591 c 0,68,69
 753 435.41025641 753 435.41025641 457 221 c 0,70,71
 330.571428571 128.285714286 330.571428571 128.285714286 308.5 91.5 c 0,72,73
 301 79 301 79 301 69 c 0,0,1
EndSplineSet
EndChar

StartChar: q
Encoding: 113 113 21
Width: 860
Flags: HW
LayerCount: 2
Fore
SplineSet
195 98 m 1,0,1
 51.9444444444 -5 51.9444444444 -5 -41 -5 c 0,2,3
 -164 -5 -164 -5 -164 124 c 0,4,5
 -164 270.984375 -164 270.984375 -43 409 c 1,6,7
 175.342465753 662 175.342465753 662 422 662 c 0,8,9
 546 662 546 662 546 561 c 0,10,11
 546 536.333333333 546 536.333333333 539 506 c 1,12,13
 566 540 566 540 586 565 c 128,-1,14
 606 590 606 590 623 613 c 2,15,-1
 644 642 l 1,16,17
 665 635 665 635 703 635 c 2,18,-1
 742.5 636 l 2,19,20
 754 636 754 636 765 636.5 c 128,-1,21
 776 637 776 637 782 637 c 1,22,23
 725.849056604 571.490566038 725.849056604 571.490566038 660.424528302 487.245283019 c 0,24,25
 539.636085627 331.709480122 539.636085627 331.709480122 461 244 c 2,26,-1
 345 113 l 1,27,28
 352 96 352 96 356 80.5 c 128,-1,29
 360 65 360 65 367 53 c 0,30,31
 382.166666667 27 382.166666667 27 422.583333333 27 c 128,-1,32
 463 27 463 27 504.5 49 c 128,-1,33
 546 71 546 71 589 106 c 128,-1,34
 632 141 632 141 673.5 183 c 128,-1,35
 715 225 715 225 750.5 265.5 c 128,-1,36
 786 306 786 306 813.5 339.5 c 0,37,38
 853.5 388.227272727 853.5 388.227272727 866 403 c 1,39,-1
 891 383 l 1,40,-1
 869 355 l 2,41,42
 587.260869565 -5 587.260869565 -5 428 -5 c 0,43,44
 376 -5 376 -5 346 25 c 1,45,46
 283.13150289 -241.442678227 283.13150289 -241.442678227 120.5 -443.5 c 0,47,48
 -40.0731707317 -643 -40.0731707317 -643 -173 -643 c 0,49,50
 -242 -643 -242 -643 -242 -569 c 0,51,52
 -242 -426.981595092 -242 -426.981595092 6.5 -117.5 c 0,53,54
 88 -16 88 -16 195 98 c 1,0,1
59 338 m 1,55,56
 -78 169.231884058 -78 169.231884058 -78 76.5 c 0,57,58
 -78 31 -78 31 -37 31 c 0,59,60
 84.3220338983 31 84.3220338983 31 265 195 c 0,61,62
 330 254 330 254 402 340 c 2,63,-1
 470 421 l 1,64,65
 516 486.368421053 516 486.368421053 516 570 c 0,66,67
 516 598 516 598 494 612 c 128,-1,68
 472 626 472 626 447.5 626 c 128,-1,69
 423 626 423 626 382.5 607.5 c 128,-1,70
 342 589 342 589 290.5 553 c 0,71,72
 173.377610407 471.128038343 173.377610407 471.128038343 59 338 c 1,55,56
-205 -586 m 256,73,74
 -205 -616 -205 -616 -173.5 -616 c 128,-1,75
 -142 -616 -142 -616 -99 -588.5 c 128,-1,76
 -56 -561 -56 -561 -7.5 -513.5 c 128,-1,77
 41 -466 41 -466 91 -401 c 128,-1,78
 141 -336 141 -336 185.5 -261.5 c 0,79,80
 283.952946551 -96.6742804934 283.952946551 -96.6742804934 320 57 c 0,81,82
 322 62 322 62 322 65.5 c 2,83,-1
 322 74 l 2,84,85
 322 82 322 82 321 86 c 1,86,87
 271 27 271 27 212.5 -41 c 128,-1,88
 154 -109 154 -109 95.5 -178.5 c 128,-1,89
 37 -248 37 -248 -17.5 -314.5 c 128,-1,90
 -72 -381 -72 -381 -113.5 -436.5 c 0,91,92
 -205 -558.86746988 -205 -558.86746988 -205 -586 c 256,73,74
EndSplineSet
EndChar

StartChar: r
Encoding: 114 114 22
Width: 672
Flags: HW
LayerCount: 2
Fore
SplineSet
172 77 m 256,0,1
 172 34 172 34 206.5 34 c 128,-1,2
 241 34 241 34 282.5 53.5 c 128,-1,3
 324 73 324 73 367.5 104 c 128,-1,4
 411 135 411 135 454.5 173.5 c 128,-1,5
 498 212 498 212 536.5 250.5 c 0,6,7
 597 311 597 311 657 380 c 1,8,-1
 678 403 l 1,9,-1
 702 382 l 1,10,11
 682 366 682 366 650.5 331 c 128,-1,12
 619 296 619 296 578.5 253 c 128,-1,13
 538 210 538 210 489.5 164.5 c 128,-1,14
 441 119 441 119 388 81 c 0,15,16
 268.052631579 -5 268.052631579 -5 164 -5 c 0,17,18
 107 -5 107 -5 72 23.5 c 128,-1,19
 37 52 37 52 37 100 c 0,20,21
 37 243.546391753 37 243.546391753 458 530 c 1,22,23
 262.849802372 560.177865613 262.849802372 560.177865613 180 597 c 1,24,25
 131 499 131 499 65 422.5 c 128,-1,26
 -1 346 -1 346 -20 327 c 128,-1,27
 -39 308 -39 308 -50 299 c 128,-1,28
 -61 290 -61 290 -69 286 c 1,29,30
 -74 286 -74 286 -74 295.5 c 128,-1,31
 -74 305 -74 305 -73 308 c 1,32,33
 -73 297.333333333 -73 297.333333333 -13.5 376.666666667 c 128,-1,34
 46 456 46 456 70.5 491 c 0,35,36
 128.804878049 574.292682927 128.804878049 574.292682927 149 613 c 1,37,38
 106 639.461538462 106 639.461538462 106 684 c 0,39,40
 106 727.2 106 727.2 125.5 750.6 c 0,41,42
 159.166666667 791 159.166666667 791 206.583333333 791 c 128,-1,43
 254 791 254 791 254 744 c 0,44,45
 254 719.666666667 254 719.666666667 226 673 c 1,46,47
 209 654 209 654 209 623 c 0,48,49
 209 594.754385965 209 594.754385965 449.5 561 c 0,50,51
 478 557 478 557 498 556 c 0,52,53
 527 554.55 527 554.55 527 539 c 0,54,55
 527 529.375 527 529.375 494.5 502.6875 c 128,-1,56
 462 476 462 476 424 440 c 128,-1,57
 386 404 386 404 350 364.5 c 128,-1,58
 314 325 314 325 281.5 284 c 128,-1,59
 249 243 249 243 224.5 204.5 c 0,60,61
 172 122 172 122 172 77 c 256,0,1
EndSplineSet
EndChar

StartChar: s
Encoding: 115 115 23
Width: 586
Flags: HW
LayerCount: 2
Fore
SplineSet
317 793 m 0,0,1
 359 793 359 793 359 757 c 0,2,3
 359 738 359 738 325.5 700 c 0,4,5
 284 652.925373134 284 652.925373134 284 629 c 2,6,-1
 284 623 l 2,7,8
 284 580.401541104 284 580.401541104 296 509.200770552 c 0,9,10
 319.02046232 372.611215912 319.02046232 372.611215912 320.51023116 305.805607956 c 128,-1,11
 322 239 322 239 302 183 c 1,12,13
 307 182 307 182 313.5 182 c 2,14,-1
 328 182 l 2,15,16
 418.111111111 182 418.111111111 182 590 403 c 1,17,-1
 617 382 l 1,18,-1
 586 348 l 1,19,20
 413.5 153 413.5 153 325 153 c 0,21,22
 305 153 305 153 290 156 c 1,23,24
 245.788440567 63.8925845147 245.788440567 63.8925845147 140 15.5 c 0,25,26
 51.4651162791 -25 51.4651162791 -25 -58 -25 c 0,27,28
 -177.020408163 -25 -177.020408163 -25 -231 32.5 c 0,29,30
 -254 57 -254 57 -254 96.5 c 128,-1,31
 -254 136 -254 136 -235.5 163.5 c 128,-1,32
 -217 191 -217 191 -191.5 209.5 c 0,33,34
 -141.189189189 246 -141.189189189 246 -99.0945945946 246 c 128,-1,35
 -57 246 -57 246 -57 205 c 0,36,37
 -57 189 -57 189 -79.5 175 c 128,-1,38
 -102 161 -102 161 -121 161 c 128,-1,39
 -140 161 -140 161 -170 181 c 1,40,41
 -177 174 -177 174 -186 166 c 128,-1,42
 -195 158 -195 158 -203 147.5 c 0,43,44
 -222 122.5625 -222 122.5625 -222 96.28125 c 128,-1,45
 -222 70 -222 70 -204 54 c 128,-1,46
 -186 38 -186 38 -161 29 c 0,47,48
 -122.111111111 15 -122.111111111 15 -81.0555555556 15 c 128,-1,49
 -40 15 -40 15 3 34 c 128,-1,50
 46 53 46 53 88.5 95 c 0,51,52
 190.865591398 196.161290323 190.865591398 196.161290323 214 367 c 1,53,-1
 218 419 l 2,54,55
 220 443 220 443 221.5 471.5 c 128,-1,56
 223 500 223 500 226.5 530.5 c 0,57,58
 235.344902386 607.577006508 235.344902386 607.577006508 252 653 c 1,59,60
 1.1935483871 342 1.1935483871 342 -11 342 c 2,61,-1
 -23 342 l 2,62,63
 -30 342 -30 342 -30 349 c 0,64,65
 -30 361.333333333 -30 361.333333333 -5 390.666666667 c 128,-1,66
 20 420 20 420 51.5 457.5 c 128,-1,67
 83 495 83 495 120 539 c 0,68,69
 202.752688172 637.408602151 202.752688172 637.408602151 262 713 c 1,70,71
 280.064516129 793 280.064516129 793 317 793 c 0,0,1
EndSplineSet
EndChar

StartChar: t
Encoding: 116 116 24
Width: 426
Flags: HW
LayerCount: 2
Fore
SplineSet
-97 57 m 0,0,1
 -97 31.1363636364 -97 31.1363636364 -51 30.5681818182 c 128,-1,2
 -5 30 -5 30 43 51.5 c 128,-1,3
 91 73 91 73 137.5 106.5 c 128,-1,4
 184 140 184 140 228 181.5 c 128,-1,5
 272 223 272 223 310.5 264.5 c 0,6,7
 350.638297872 307.765957447 350.638297872 307.765957447 430 403 c 1,8,-1
 457 382 l 1,9,10
 436 361 436 361 404 324 c 128,-1,11
 372 287 372 287 332 244 c 128,-1,12
 292 201 292 201 245.5 156.5 c 128,-1,13
 199 112 199 112 149 76.5 c 0,14,15
 34.2112676056 -5 34.2112676056 -5 -59 -5 c 0,16,17
 -116 -5 -116 -5 -143 17.5 c 128,-1,18
 -170 40 -170 40 -170 66.5 c 128,-1,19
 -170 93 -170 93 -167 110.5 c 128,-1,20
 -164 128 -164 128 -155.5 149 c 128,-1,21
 -147 170 -147 170 -131 198.5 c 128,-1,22
 -115 227 -115 227 -89.5 266 c 0,23,24
 -42.5 337.882352941 -42.5 337.882352941 61 484 c 2,25,-1
 310 835 l 1,26,-1
 239 835 l 2,27,28
 222 835 222 835 214.5 837.5 c 128,-1,29
 207 840 207 840 207 852 c 0,30,31
 207 870 207 870 247 870 c 2,32,-1
 335 870 l 1,33,-1
 517 1125 l 1,34,35
 537 1121 537 1121 568 1121 c 2,36,-1
 615.5 1121 l 2,37,38
 632 1121 632 1121 661 1126 c 1,39,-1
 471 870 l 1,40,-1
 718 870 l 2,41,42
 749 870 749 870 749 852.5 c 128,-1,43
 749 835 749 835 721 835 c 2,44,-1
 445 835 l 1,45,-1
 186 486 l 1,46,47
 -97 107.641304348 -97 107.641304348 -97 57 c 0,0,1
EndSplineSet
EndChar

StartChar: u
Encoding: 117 117 25
Width: 870
Flags: HW
LayerCount: 2
Fore
SplineSet
329 223 m 1,0,1
 118.538461538 -5 118.538461538 -5 -40 -5 c 0,2,3
 -135.307692308 -5 -135.307692308 -5 -157 65.5 c 0,4,5
 -163 85 -163 85 -163 105 c 0,6,7
 -163 174 -163 174 -103.5 263 c 128,-1,8
 -44 352 -44 352 28 433.5 c 128,-1,9
 100 515 100 515 140.5 567.5 c 128,-1,10
 181 620 181 620 227 671 c 1,11,12
 257.333333333 664 257.333333333 664 286.166666667 664 c 2,13,-1
 326 664 l 2,14,15
 363 664 363 664 387 668 c 1,16,17
 262.507692308 534.615384615 262.507692308 534.615384615 64 294 c 1,18,-1
 37 262 l 2,19,20
 -42.0982532751 168.943231441 -42.0982532751 168.943231441 -59.5491266376 127.971615721 c 128,-1,21
 -77 87 -77 87 -77 62 c 0,22,23
 -77 25 -77 25 -23.8548387097 25 c 128,-1,24
 29.2903225806 25 29.2903225806 25 116 81 c 1,25,-1
 116 80 l 1,26,27
 276.91942446 191.405755396 276.91942446 191.405755396 447 401 c 1,28,-1
 516 484 l 1,29,30
 549 526 549 526 587.5 571.5 c 128,-1,31
 626 617 626 617 671 671 c 1,32,-1
 693 668 l 2,33,34
 727 664 727 664 750 664 c 0,35,36
 794 664 794 664 828 668 c 1,37,38
 741.313432836 573.432835821 741.313432836 573.432835821 642.156716418 451.21641791 c 128,-1,39
 543 329 543 329 504 281 c 2,40,-1
 416 173 l 1,41,42
 355.8046875 102.3359375 355.8046875 102.3359375 350.90234375 85.66796875 c 128,-1,43
 346 69 346 69 346 60 c 0,44,45
 346 29 346 29 388.5 29 c 128,-1,46
 431 29 431 29 474 48.5 c 128,-1,47
 517 68 517 68 561.5 99 c 128,-1,48
 606 130 606 130 649.5 168.5 c 128,-1,49
 693 207 693 207 731.5 245.5 c 0,50,51
 793 307 793 307 853 376 c 1,52,-1
 878 403 l 1,53,-1
 902 382 l 1,54,55
 894 374 894 374 866.5 342.5 c 128,-1,56
 839 311 839 311 798 268 c 128,-1,57
 757 225 757 225 706 177 c 128,-1,58
 655 129 655 129 600.5 88.5 c 0,59,60
 474.679012346 -5 474.679012346 -5 388 -5 c 0,61,62
 342 -5 342 -5 315.5 20.5 c 128,-1,63
 289 46 289 46 289 84.5 c 0,64,65
 289 147 289 147 329 223 c 1,0,1
EndSplineSet
EndChar

StartChar: v
Encoding: 118 118 26
Width: 782
Flags: HW
LayerCount: 2
Fore
SplineSet
242 671 m 1,0,1
 298 664 298 664 324 664 c 0,2,3
 371 664 371 664 407 668 c 1,4,5
 290.18336163 559.679117148 290.18336163 559.679117148 230.091680815 491.339558574 c 128,-1,6
 170 423 170 423 138 389 c 2,7,-1
 103 353 l 2,8,9
 -53.6145092461 191.165007112 -53.6145092461 191.165007112 -86.307254623 141.082503556 c 128,-1,10
 -119 91 -119 91 -119 65 c 128,-1,11
 -119 39 -119 39 -105 33 c 128,-1,12
 -91 27 -91 27 -52.5 27 c 128,-1,13
 -14 27 -14 27 47.5 50 c 128,-1,14
 109 73 109 73 172.5 110.5 c 0,15,16
 292.688581315 181.477508651 292.688581315 181.477508651 381.344290657 259.738754325 c 128,-1,17
 470 338 470 338 501.5 379 c 128,-1,18
 533 420 533 420 551 458.5 c 0,19,20
 581 522.666666667 581 522.666666667 581 614 c 0,21,22
 581 652 581 652 604 676 c 128,-1,23
 627 700 627 700 661 700 c 0,24,25
 719 700 719 700 719 643 c 0,26,27
 719 524.666666667 719 524.666666667 523 338 c 1,28,-1
 496 312 l 1,29,30
 458 258.352941176 458 258.352941176 458 225.176470588 c 128,-1,31
 458 192 458 192 500 192 c 0,32,33
 587.333333333 192 587.333333333 192 754 367 c 0,34,35
 774 388 774 388 787 403 c 1,36,-1
 813 382 l 1,37,38
 609.296296296 162 609.296296296 162 492 162 c 0,39,40
 425 162 425 162 425 217 c 0,41,42
 425 240.4 425 240.4 433 258 c 1,43,44
 105.711111111 -5 105.711111111 -5 -81 -5 c 256,45,46
 -193 -5 -193 -5 -193 80 c 0,47,48
 -193 148.518518519 -193 148.518518519 -139.5 229.759259259 c 0,49,50
 -40.5012180268 380.090742996 -40.5012180268 380.090742996 191 619 c 1,51,-1
 242 671 l 1,0,1
EndSplineSet
EndChar

StartChar: w
Encoding: 119 119 27
Width: 1141
Flags: HW
LayerCount: 2
Fore
SplineSet
256 671 m 1,0,1
 286.333333333 664 286.333333333 664 315.166666667 664 c 2,2,-1
 355 664 l 2,3,4
 392 664 392 664 416 668 c 1,5,6
 49.0579399142 294.386266094 49.0579399142 294.386266094 -82.5 122 c 0,7,8
 -126 65 -126 65 -126 51 c 128,-1,9
 -126 37 -126 37 -122 33 c 128,-1,10
 -118 29 -118 29 -101.5 29 c 128,-1,11
 -85 29 -85 29 -32 50 c 128,-1,12
 21 71 21 71 93.5 114 c 0,13,14
 275.104992776 221.710547439 275.104992776 221.710547439 416 380 c 1,15,-1
 457 430 l 2,16,17
 529.073170732 516.487804878 529.073170732 516.487804878 688 671 c 1,18,-1
 710 668 l 2,19,20
 744 664 744 664 767 664 c 0,21,22
 811 664 811 664 847 668 c 1,23,24
 802 620 802 620 745 560 c 128,-1,25
 688 500 688 500 628.5 436 c 128,-1,26
 569 372 569 372 511.5 309 c 128,-1,27
 454 246 454 246 409.5 193 c 0,28,29
 310 74.4943820225 310 74.4943820225 310 51.7471910112 c 128,-1,30
 310 29 310 29 337 29 c 128,-1,31
 364 29 364 29 420.5 50.5 c 128,-1,32
 477 72 477 72 543 110.5 c 0,33,34
 734.254901961 222.065359477 734.254901961 222.065359477 887.5 404.5 c 0,35,36
 948.296551724 476.876847291 948.296551724 476.876847291 958.648275862 524.938423645 c 128,-1,37
 969 573 969 573 969 603 c 128,-1,38
 969 633 969 633 974 650 c 128,-1,39
 979 667 979 667 988.5 680.5 c 0,40,41
 1009.25925926 710 1009.25925926 710 1040 710 c 0,42,43
 1108 710 1108 710 1108 643 c 0,44,45
 1108 535 1108 535 911 338 c 0,46,47
 901 328 901 328 886 315.5 c 128,-1,48
 871 303 871 303 857.5 289.5 c 0,49,50
 824 256 824 256 824 229 c 0,51,52
 824 192 824 192 869 192 c 0,53,54
 966.772727273 192 966.772727273 192 1149 403 c 1,55,-1
 1174 382 l 1,56,57
 1081.6835443 286.132911392 1081.6835443 286.132911392 1035.34177215 248.066455696 c 0,58,59
 930.565217391 162 930.565217391 162 860.282608696 162 c 128,-1,60
 790 162 790 162 790 221 c 0,61,62
 790 230 790 230 791 233 c 1,63,64
 587.972824091 76.2772677194 587.972824091 76.2772677194 417.5 15.5 c 0,65,66
 360 -5 360 -5 320 -5 c 0,67,68
 256 -5 256 -5 256 62 c 0,69,70
 256 134.3125 256 134.3125 314 234 c 1,71,72
 32.2520325203 -5 32.2520325203 -5 -109 -5 c 0,73,74
 -176 -5 -176 -5 -176 60 c 0,75,76
 -176 208.105590062 -176 208.105590062 73.5 485.5 c 0,77,78
 154 575 154 575 256 671 c 1,0,1
EndSplineSet
EndChar

StartChar: x
Encoding: 120 120 28
Width: 889
Flags: HW
LayerCount: 2
Fore
SplineSet
-193 50 m 0,0,1
 -193 68 -193 68 -175 83.5 c 128,-1,2
 -157 99 -157 99 -138 99 c 128,-1,3
 -119 99 -119 99 -109 94 c 128,-1,4
 -99 89 -99 89 -89 83.5 c 0,5,6
 -60.8181818182 68 -60.8181818182 68 -32.9090909091 68 c 128,-1,7
 -5 68 -5 68 45 93.5 c 128,-1,8
 95 119 95 119 145.5 166 c 0,9,10
 249.184177998 262.498145859 249.184177998 262.498145859 338 426 c 2,11,-1
 344 437 l 1,12,-1
 344 435 l 1,13,14
 406 523.571428571 406 523.571428571 406 581.785714286 c 128,-1,15
 406 640 406 640 363 640 c 0,16,17
 307.490909091 640 307.490909091 640 257.745454545 604 c 0,18,19
 166.863542099 538.23019494 166.863542099 538.23019494 28 379 c 1,20,-1
 25 379 l 2,21,22
 15.1666666667 379 15.1666666667 379 7.58333333333 385.5 c 128,-1,23
 0 392 0 392 0 394.5 c 128,-1,24
 0 397 0 397 41 443 c 128,-1,25
 82 489 82 489 138.5 544 c 128,-1,26
 195 599 195 599 236.5 628 c 0,27,28
 305.189655172 676 305.189655172 676 368.094827586 676 c 128,-1,29
 431 676 431 676 464 640.5 c 128,-1,30
 497 605 497 605 497 539 c 0,31,32
 497 505.428571429 497 505.428571429 484 459 c 1,33,34
 602.632999229 609.035851966 602.632999229 609.035851966 727 658.5 c 0,35,36
 771 676 771 676 805.5 676 c 128,-1,37
 840 676 840 676 858 669 c 128,-1,38
 876 662 876 662 887.5 651 c 0,39,40
 908 631.391304348 908 631.391304348 908 601.195652174 c 128,-1,41
 908 571 908 571 888.5 555.5 c 128,-1,42
 869 540 869 540 842.5 540 c 128,-1,43
 816 540 816 540 797.5 561.5 c 128,-1,44
 779 583 779 583 775 621 c 1,45,46
 770 622 770 622 766.5 622 c 2,47,-1
 761 622 l 2,48,49
 686.128712871 622 686.128712871 622 583 513.5 c 0,50,51
 491.844036697 417.596330275 491.844036697 417.596330275 394 248 c 1,52,-1
 393 248 l 1,53,54
 345 141.714285714 345 141.714285714 345 81 c 256,55,56
 345 29 345 29 399.5 29 c 128,-1,57
 454 29 454 29 505 53 c 128,-1,58
 556 77 556 77 606.5 113.5 c 128,-1,59
 657 150 657 150 703.5 194.5 c 0,60,61
 792.998380567 280.148987854 792.998380567 280.148987854 835.42331629 331.429495147 c 0,62,63
 887.912553904 394.875077006 887.912553904 394.875077006 895 405 c 1,64,-1
 921 381 l 1,65,66
 915 378 915 378 901.5 362 c 128,-1,67
 888 346 888 346 857.5 311.5 c 128,-1,68
 827 277 827 277 787 236 c 128,-1,69
 747 195 747 195 699 152.5 c 128,-1,70
 651 110 651 110 599.5 75 c 0,71,72
 481.785714286 -5 481.785714286 -5 394 -5 c 0,73,74
 296.413793103 -5 296.413793103 -5 261.5 76 c 0,75,76
 249 105 249 105 249 144.5 c 128,-1,77
 249 184 249 184 268 247 c 1,78,79
 176.432835821 127.962686567 176.432835821 127.962686567 63 56.5 c 0,80,81
 -34.619047619 -5 -34.619047619 -5 -113.80952381 -5 c 128,-1,82
 -193 -5 -193 -5 -193 50 c 0,0,1
EndSplineSet
EndChar

StartChar: y
Encoding: 121 121 29
Width: 893
Flags: HW
LayerCount: 2
Fore
SplineSet
-88 68 m 0,0,1
 -88 27 -88 27 -31 27 c 128,-1,2
 26 27 26 27 96 56.5 c 128,-1,3
 166 86 166 86 233 134 c 0,4,5
 357.074074074 222.888888889 357.074074074 222.888888889 473 362 c 1,6,7
 614.666666667 517.833333333 614.666666667 517.833333333 734 667 c 1,8,9
 769 660 769 660 788.5 660 c 0,10,11
 834 660 834 660 874 665 c 1,12,-1
 526 238 l 1,13,14
 374.134328358 37.5373134328 374.134328358 37.5373134328 185 -191 c 1,15,16
 442.788856305 -69.1876832845 442.788856305 -69.1876832845 582.5 55 c 0,17,18
 677.633802817 139.563380282 677.633802817 139.563380282 755.816901408 232.781690141 c 128,-1,19
 834 326 834 326 897 403 c 1,20,-1
 923 383 l 1,21,22
 746.431980907 171.61575179 746.431980907 171.61575179 690.715990453 114.307875895 c 128,-1,23
 635 57 635 57 582 12 c 128,-1,24
 529 -33 529 -33 465.5 -75 c 0,25,26
 346.641025641 -153.615384615 346.641025641 -153.615384615 136 -249 c 1,27,28
 -58.5945945946 -474.72972973 -58.5945945946 -474.72972973 -189.5 -562 c 0,29,30
 -311 -643 -311 -643 -445 -643 c 0,31,32
 -482.578947368 -643 -482.578947368 -643 -502.789473684 -627 c 0,33,34
 -535 -601.5 -535 -601.5 -535 -573.25 c 128,-1,35
 -535 -545 -535 -545 -508 -511 c 128,-1,36
 -481 -477 -481 -477 -415.5 -436.5 c 0,37,38
 -278.462130488 -351.766660836 -278.462130488 -351.766660836 36 -240 c 1,39,40
 167.148594378 -83.6305220884 167.148594378 -83.6305220884 439 261 c 1,41,-1
 434 264 l 1,42,43
 277.104938272 95.8981481481 277.104938272 95.8981481481 79 20.5 c 0,44,45
 12 -5 12 -5 -48 -5 c 0,46,47
 -161 -5 -161 -5 -161 80 c 0,48,49
 -161 151.16 -161 151.16 -113 233.08 c 0,50,51
 -17.7113970588 395.705882353 -17.7113970588 395.705882353 208 625 c 1,52,-1
 254 671 l 1,53,54
 310 664 310 664 336 664 c 0,55,56
 383 664 383 664 419 668 c 1,57,58
 302.125 561.75 302.125 561.75 241.5625 492.875 c 128,-1,59
 181 424 181 424 150 389 c 2,60,-1
 111 346 l 2,61,62
 -22.4 198.8 -22.4 198.8 -55.2 144.4 c 128,-1,63
 -88 90 -88 90 -88 68 c 0,0,1
-4 -288 m 1,64,65
 -497 -466.737051793 -497 -466.737051793 -497 -575 c 0,66,67
 -497 -584 -497 -584 -484.5 -597.5 c 128,-1,68
 -472 -611 -472 -611 -435 -611 c 128,-1,69
 -398 -611 -398 -611 -355.5 -597.5 c 128,-1,70
 -313 -584 -313 -584 -263 -548 c 0,71,72
 -168.597014925 -480.029850746 -168.597014925 -480.029850746 -4 -288 c 1,64,65
EndSplineSet
EndChar

StartChar: z
Encoding: 122 122 30
Width: 684
Flags: HW
LayerCount: 2
Fore
SplineSet
-400 -643 m 0,0,1
 -489 -643 -489 -643 -489 -565 c 0,2,3
 -489 -451.070093458 -489 -451.070093458 -147 -254.5 c 0,4,5
 -40 -193 -40 -193 91 -126 c 1,6,7
 95 -106 95 -106 95 -76 c 128,-1,8
 95 -46 95 -46 81 -28 c 128,-1,9
 67 -10 67 -10 50 -10 c 1,10,-1
 10 -30 l 1,11,12
 -54.367816092 -64.1954022989 -54.367816092 -64.1954022989 -72.183908046 -75.5977011494 c 0,13,14
 -101 -94.04 -101 -94.04 -104.5 -94.02 c 128,-1,15
 -108 -94 -108 -94 -120 -86 c 128,-1,16
 -132 -78 -132 -78 -132 -73.5 c 0,17,18
 -132 -57.5483870968 -132 -57.5483870968 -93 -41.2741935484 c 128,-1,19
 -54 -25 -54 -25 -31 -12.5 c 128,-1,20
 -8 0 -8 0 13 17.5 c 128,-1,21
 34 35 34 35 54.5 60.5 c 128,-1,22
 75 86 75 86 99.5 124 c 0,23,24
 140.946166395 188.283849918 140.946166395 188.283849918 190.973083197 281.641924959 c 0,25,26
 256.639949408 404.186599211 256.639949408 404.186599211 303 466 c 1,27,28
 200.795275591 486.440944882 200.795275591 486.440944882 149 554 c 1,29,30
 47.4388489209 377.604316547 47.4388489209 377.604316547 -41.5 308 c 0,31,32
 -60.6666666667 293 -60.6666666667 293 -68.3333333333 293 c 128,-1,33
 -76 293 -76 293 -76 297.5 c 0,34,35
 -76 303.764705882 -76 303.764705882 -35 352 c 2,36,-1
 6 401 l 2,37,38
 73.4242424242 481.909090909 73.4242424242 481.909090909 92.7121212121 518.454545455 c 0,39,40
 121.806451613 573.580645161 121.806451613 573.580645161 128 587 c 1,41,42
 107 629 107 629 107 665 c 128,-1,43
 107 701 107 701 114 721 c 128,-1,44
 121 741 121 741 134 756.5 c 0,45,46
 162.935483871 791 162.935483871 791 210.967741935 791 c 128,-1,47
 259 791 259 791 259 750 c 0,48,49
 259 718.37037037 259 718.37037037 234.5 695.685185185 c 128,-1,50
 210 673 210 673 199 658 c 128,-1,51
 188 643 188 643 188 622 c 128,-1,52
 188 601 188 601 197 582 c 128,-1,53
 206 563 206 563 223 545 c 0,54,55
 260.709090909 505.072727273 260.709090909 505.072727273 321 490 c 1,56,57
 408 599 408 599 493 649 c 128,-1,58
 578 699 578 699 636.5 699 c 0,59,60
 741 699 741 699 741 638 c 0,61,62
 741 587.325 741 587.325 655 532.5 c 0,63,64
 563.900845503 474.424289008 563.900845503 474.424289008 445 461 c 1,65,66
 315.006035578 150.282719187 315.006035578 150.282719187 83 10 c 1,67,68
 168.244444444 -0.148148148148 168.244444444 -0.148148148148 191 -76 c 1,69,70
 405.242916441 53.0326655838 405.242916441 53.0326655838 593.5 281.5 c 0,71,72
 645 344 645 344 692 403 c 1,73,-1
 716 382 l 1,74,75
 581.777777778 214.222222222 581.777777778 214.222222222 505.388888889 136.611111111 c 0,76,77
 351.463613014 -19.7769691781 351.463613014 -19.7769691781 198 -109 c 1,78,79
 200 -125 200 -125 200 -160 c 128,-1,80
 200 -195 200 -195 172.5 -252 c 128,-1,81
 145 -309 145 -309 98 -364.5 c 128,-1,82
 51 -420 51 -420 -10 -470.5 c 128,-1,83
 -71 -521 -71 -521 -137.5 -559.5 c 0,84,85
 -281.727272727 -643 -281.727272727 -643 -400 -643 c 0,0,1
701 640 m 0,86,87
 701 672 701 672 652.5 672 c 0,88,89
 540.090909091 672 540.090909091 672 456 487 c 1,90,91
 552.675191816 502.468030691 552.675191816 502.468030691 607.337595908 536.734015345 c 0,92,93
 701 595.447761194 701 595.447761194 701 640 c 0,86,87
-411 -486 m 128,-1,95
 -453 -532 -453 -532 -453 -572 c 128,-1,96
 -453 -612 -453 -612 -400 -612 c 256,97,98
 -340.123076923 -612 -340.123076923 -612 -236 -541.5 c 0,99,100
 -69.4719120426 -428.746607112 -69.4719120426 -428.746607112 31.5 -269 c 0,101,102
 65 -216 65 -216 82 -164 c 1,103,104
 -175.211606511 -301.958952583 -175.211606511 -301.958952583 -272.105803255 -370.979476292 c 128,-1,94
 -369 -440 -369 -440 -411 -486 c 128,-1,95
EndSplineSet
EndChar

StartChar: A
Encoding: 65 65 31
Width: 1491
Flags: HW
LayerCount: 2
Fore
SplineSet
736 193 m 2,0,1
 601.058823529 193 601.058823529 193 477 230 c 1,2,3
 306.077125906 84.9143045485 306.077125906 84.9143045485 234.538562953 48.4571522742 c 128,-1,4
 163 12 163 12 115 2.5 c 128,-1,5
 67 -7 67 -7 12 -7 c 128,-1,6
 -43 -7 -43 -7 -82.5 4.5 c 128,-1,7
 -122 16 -122 16 -148.5 35.5 c 0,8,9
 -201 74.1320754717 -201 74.1320754717 -201 139 c 0,10,11
 -201 179.5 -201 179.5 -178 196.75 c 0,12,13
 -143 223 -143 223 -116 223 c 0,14,15
 -54 223 -54 223 -54 175 c 0,16,17
 -54 154 -54 154 -71.5 139 c 128,-1,18
 -89 124 -89 124 -115.5 124 c 128,-1,19
 -142 124 -142 124 -156 131 c 1,20,-1
 -156 130 l 2,21,22
 -156 24 -156 24 18 24 c 0,23,24
 146.888888889 24 146.888888889 24 322.5 154.5 c 0,25,26
 377 195 377 195 436 244 c 1,27,28
 297.507936508 295.93452381 297.507936508 295.93452381 211 396.5 c 0,29,30
 129 491.825 129 491.825 129 600 c 128,-1,31
 129 708.054054054 129 708.054054054 204 779 c 0,32,33
 285.4 856 285.4 856 421 856 c 0,34,35
 613.908163265 856 613.908163265 856 744.5 694 c 0,36,37
 784 645 784 645 811 588 c 1,38,-1
 835 611 l 1,39,40
 1367.51161406 1126.19416319 1367.51161406 1126.19416319 1593.5 1270.5 c 0,41,42
 1769.67924528 1383 1769.67924528 1383 1865 1383 c 0,43,44
 1886 1383 1886 1383 1886 1371 c 0,45,46
 1886 1363.33333333 1886 1363.33333333 1864 1356 c 256,47,48
 1840.93243243 1348.31081081 1840.93243243 1348.31081081 1783.46621622 1276.65540541 c 128,-1,49
 1726 1205 1726 1205 1664.5 1124 c 128,-1,50
 1603 1043 1603 1043 1513 923.5 c 128,-1,51
 1423 804 1423 804 1301.5 642 c 128,-1,52
 1180 480 1180 480 1021 269 c 1,53,54
 1288.72487759 356.166239217 1288.72487759 356.166239217 1437 558.5 c 0,55,56
 1485 624 1485 624 1502 667.5 c 0,57,58
 1526.03448276 729 1526.03448276 729 1531.51724138 729 c 128,-1,59
 1537 729 1537 729 1544 720 c 128,-1,60
 1551 711 1551 711 1551 698 c 0,61,62
 1537.67201242 524.736161407 1537.67201242 524.736161407 1365 392.5 c 0,63,64
 1208.79708826 272.876251137 1208.79708826 272.876251137 984 221 c 1,65,-1
 813 -4 l 1,66,-1
 699 1 l 1,67,68
 674.655183586 0.922408206942 674.655183586 0.922408206942 663.827591793 -1.03879589653 c 0,69,70
 647.479110168 -4 647.479110168 -4 636 -4 c 1,71,-1
 774 168 l 1,72,73
 783.666666667 177.666666667 783.666666667 177.666666667 793 194 c 1,74,75
 779 193 779 193 764.5 193 c 2,76,-1
 736 193 l 2,0,1
860 271 m 1,77,78
 1561.10851809 1128.70128355 1561.10851809 1128.70128355 1780 1333 c 1,79,80
 1514.84332009 1222.8579945 1514.84332009 1222.8579945 889 611 c 1,81,-1
 827 551 l 1,82,83
 868 452 868 452 868 347 c 0,84,85
 868 301.4 868 301.4 860 271 c 1,77,78
465 268 m 1,86,87
 610.823529412 394.235294118 610.823529412 394.235294118 784 562 c 1,88,89
 704.411362341 743.462093863 704.411362341 743.462093863 536.5 802 c 0,90,91
 482 821 482 821 429 821 c 128,-1,92
 376 821 376 821 335 802.5 c 128,-1,93
 294 784 294 784 263.5 752.5 c 0,94,95
 197 683.819672131 197 683.819672131 197 594 c 0,96,97
 197 432 197 432 347 327 c 0,98,99
 397 292 397 292 465 268 c 1,86,87
506 255 m 1,100,101
 611.642857143 226 611.642857143 226 742 226 c 0,102,103
 775 226 775 226 809 228 c 1,104,105
 830 285.272727273 830 285.272727273 830 361.136363636 c 128,-1,106
 830 437 830 437 799 524 c 1,107,108
 626 358 626 358 506 255 c 1,100,101
EndSplineSet
EndChar

StartChar: B
Encoding: 66 66 32
Width: 1571
Flags: HW
LayerCount: 2
Fore
SplineSet
692 106 m 0,0,1
 692 29 692 29 823 29 c 0,2,3
 916.328358209 29 916.328358209 29 1020.5 99.5 c 0,4,5
 1186.56832269 211.889672928 1186.56832269 211.889672928 1246 409.5 c 0,6,7
 1266 476 1266 476 1266 530 c 128,-1,8
 1266 584 1266 584 1253 609 c 1,9,10
 1154 575 1154 575 1083.5 575 c 128,-1,11
 1013 575 1013 575 989.5 591 c 128,-1,12
 966 607 966 607 966 621 c 128,-1,13
 966 635 966 635 979.5 646.5 c 128,-1,14
 993 658 993 658 1015.5 667.5 c 0,15,16
 1064.05263158 688 1064.05263158 688 1131.52631579 688 c 128,-1,17
 1199 688 1199 688 1250 663 c 1,18,19
 1468.88642817 770.649063032 1468.88642817 770.649063032 1552 977 c 0,20,21
 1581 1049 1581 1049 1581 1123.5 c 128,-1,22
 1581 1198 1581 1198 1544 1248 c 1,23,24
 1298.2380301 1117.67168263 1298.2380301 1117.67168263 936 639 c 0,25,26
 579.976226415 167.509056604 579.976226415 167.509056604 246 28 c 1,27,28
 159.571428571 -5 159.571428571 -5 29 -5 c 0,29,30
 -56.7948717949 -5 -56.7948717949 -5 -120 37.5 c 0,31,32
 -182 79.1896551724 -182 79.1896551724 -182 140 c 0,33,34
 -182 181.5 -182 181.5 -159 198.75 c 0,35,36
 -124 225 -124 225 -97 225 c 0,37,38
 -35 225 -35 225 -35 177 c 0,39,40
 -35 156 -35 156 -52.5 141 c 128,-1,41
 -70 126 -70 126 -95.5 126 c 128,-1,42
 -121 126 -121 126 -137 134 c 1,43,-1
 -137 132 l 2,44,45
 -137 84 -137 84 -90.5 55.5 c 128,-1,46
 -44 27 -44 27 16 27 c 128,-1,47
 76 27 76 27 118 40.5 c 128,-1,48
 160 54 160 54 210 85.5 c 128,-1,49
 260 117 260 117 322 169.5 c 128,-1,50
 384 222 384 222 462.5 299.5 c 0,51,52
 605.08722198 440.270824248 605.08722198 440.270824248 827.54361099 687.635412124 c 128,-1,53
 1050 935 1050 935 1217 1070 c 128,-1,54
 1384 1205 1384 1205 1518 1278 c 1,55,56
 1406 1390 1406 1390 1148 1390 c 0,57,58
 1013 1390 1013 1390 854 1337 c 1,59,60
 618.948875256 1245.42163971 618.948875256 1245.42163971 421.5 1054.5 c 0,61,62
 297.584741069 934.681113265 297.584741069 934.681113265 246.5 825.5 c 0,63,64
 221 771 221 771 221 733.5 c 128,-1,65
 221 696 221 696 231.5 675.5 c 128,-1,66
 242 655 242 655 260 641.5 c 0,67,68
 295.333333333 615 295.333333333 615 351.666666667 615 c 128,-1,69
 408 615 408 615 473 637.5 c 128,-1,70
 538 660 538 660 604 701 c 128,-1,71
 670 742 670 742 733 799 c 128,-1,72
 796 856 796 856 847.5 925 c 0,73,74
 960.000138179 1075.72834047 960.000138179 1075.72834047 981 1238 c 1,75,76
 986 1260 986 1260 988 1266 c 128,-1,77
 990 1272 990 1272 998 1272 c 0,78,79
 1012 1272 1012 1272 1012 1248 c 0,80,81
 1012 1064.86597938 1012 1064.86597938 907.5 906.5 c 0,82,83
 810.976176725 760.221628646 810.976176725 760.221628646 653.5 672.5 c 0,84,85
 498.21686747 586 498.21686747 586 343 586 c 0,86,87
 237.5 586 237.5 586 198.5 664 c 0,88,89
 185 691 185 691 185 749.5 c 128,-1,90
 185 808 185 808 223.5 890 c 128,-1,91
 262 972 262 972 329.5 1049 c 128,-1,92
 397 1126 397 1126 489.5 1193 c 128,-1,93
 582 1260 582 1260 690.5 1310 c 0,94,95
 924.86 1418 924.86 1418 1176.65727273 1418 c 128,-1,96
 1428.45454545 1418 1428.45454545 1418 1571 1306 c 1,97,98
 1718.78947368 1378 1718.78947368 1378 1813 1378 c 0,99,100
 1849 1378 1849 1378 1849 1365 c 0,101,102
 1849 1361 1849 1361 1830 1356 c 128,-1,103
 1811 1351 1811 1351 1777.5 1342 c 0,104,105
 1689.36309524 1318.32142857 1689.36309524 1318.32142857 1602 1278 c 1,106,107
 1689 1191 1689 1191 1689 1064 c 256,108,109
 1689 936.710280374 1689 936.710280374 1572.5 811.5 c 0,110,111
 1463.14564537 693.969618855 1463.14564537 693.969618855 1302 627 c 1,112,113
 1378 557.162162162 1378 557.162162162 1378 431 c 0,114,115
 1378 262.830188679 1378 262.830188679 1205 129 c 0,116,117
 1031.7804878 -5 1031.7804878 -5 820 -5 c 0,118,119
 690.6 -5 690.6 -5 661 69 c 0,120,121
 653 89 653 89 653 115.5 c 128,-1,122
 653 142 653 142 673.5 181.5 c 128,-1,123
 694 221 694 221 730.5 260.5 c 128,-1,124
 767 300 767 300 816 336.5 c 128,-1,125
 865 373 865 373 922 401 c 0,126,127
 1048.21428571 463 1048.21428571 463 1165 463 c 0,128,129
 1189 463 1189 463 1189 448 c 128,-1,130
 1189 433 1189 433 1147 433 c 128,-1,131
 1105 433 1105 433 1050.5 418 c 128,-1,132
 996 403 996 403 944.5 378 c 128,-1,133
 893 353 893 353 847 320 c 128,-1,134
 801 287 801 287 766.5 250.5 c 0,135,136
 692 171.68115942 692 171.68115942 692 106 c 0,0,1
1212 646 m 1,137,138
 1184 660 1184 660 1134.5 660 c 128,-1,139
 1085 660 1085 660 1053.5 651 c 128,-1,140
 1022 642 1022 642 1022 631 c 0,141,142
 1022 612 1022 612 1076.5 612 c 128,-1,143
 1131 612 1131 612 1212 646 c 1,137,138
EndSplineSet
EndChar

StartChar: C
Encoding: 67 67 33
Width: 1325
Flags: HW
LayerCount: 2
Fore
SplineSet
450 -232 m 128,-1,1
 460 -246 460 -246 460 -253.5 c 128,-1,2
 460 -261 460 -261 449.5 -261 c 128,-1,3
 439 -261 439 -261 425.5 -241.5 c 128,-1,4
 412 -222 412 -222 399 -187.5 c 0,5,6
 368.680544436 -107.036829464 368.680544436 -107.036829464 363 -1 c 1,7,8
 218.261011419 18.2985318108 218.261011419 18.2985318108 170 148 c 0,9,10
 154 191 154 191 154 246 c 0,11,12
 154 475.958762887 154 475.958762887 362 744 c 1,13,14
 253.62962963 769.157407407 253.62962963 769.157407407 194 840.5 c 0,15,16
 139 906.303571429 139 906.303571429 139 1002 c 0,17,18
 139 1100.67391304 139 1100.67391304 236 1204 c 0,19,20
 331.795104261 1306.04261106 331.795104261 1306.04261106 486 1373 c 0,21,22
 649.515151515 1444 649.515151515 1444 823 1444 c 0,23,24
 906 1444 906 1444 906 1425 c 0,25,26
 906 1414 906 1414 890 1414 c 2,27,-1
 819 1417 l 1,28,29
 688.590163934 1417 688.590163934 1417 539.5 1352.5 c 0,30,31
 391.385631908 1288.42215281 391.385631908 1288.42215281 293.5 1186.5 c 0,32,33
 188 1076.64948454 188 1076.64948454 188 962 c 0,34,35
 188 861.625 188 861.625 299 801.5 c 0,36,37
 335 782 335 782 383 771 c 1,38,39
 590.218914186 1024.61120841 590.218914186 1024.61120841 884.5 1199 c 0,40,41
 1188.25 1379 1188.25 1379 1436 1379 c 0,42,43
 1536 1379 1536 1379 1536 1304 c 0,44,45
 1536 1193.88311688 1536 1193.88311688 1369 1060.5 c 0,46,47
 1114.30769231 857.076923077 1114.30769231 857.076923077 750 766 c 0,48,49
 634 737 634 737 528 732 c 1,50,51
 226 402.545454545 226 402.545454545 226 209 c 0,52,53
 226 62.96875 226 62.96875 363 33 c 1,54,55
 363 206.731707317 363 206.731707317 451 372 c 0,56,57
 532.706952567 525.449642625 532.706952567 525.449642625 669 624 c 0,58,59
 805.914893617 723 805.914893617 723 949 723 c 0,60,61
 1034 723 1034 723 1078 684.5 c 128,-1,62
 1122 646 1122 646 1122 586 c 128,-1,63
 1122 526 1122 526 1097 460.5 c 128,-1,64
 1072 395 1072 395 1026.5 329.5 c 128,-1,65
 981 264 981 264 916.5 203.5 c 128,-1,66
 852 143 852 143 773 97 c 0,67,68
 597.826086957 -5 597.826086957 -5 412 -5 c 2,69,-1
 398 -5 l 1,70,71
 401.865509761 -105.503253796 401.865509761 -105.503253796 420.932754881 -161.751626898 c 128,-1,0
 440 -218 440 -218 450 -232 c 128,-1,1
1507 1300 m 0,72,73
 1507 1350 1507 1350 1434 1350 c 0,74,75
 1243.4 1350 1243.4 1350 868.5 1051 c 0,76,77
 702.248258391 918.406586447 702.248258391 918.406586447 558 764 c 1,78,79
 828.519843101 796.300876788 828.519843101 796.300876788 1167.5 988 c 0,80,81
 1402.04299412 1120.63810702 1402.04299412 1120.63810702 1481 1233 c 0,82,83
 1507 1270 1507 1270 1507 1300 c 0,72,73
398 28 m 1,84,85
 404 27 404 27 410 27 c 2,86,-1
 423 27 l 2,87,88
 546.92 27 546.92 27 697 139 c 0,89,90
 827.741641337 236.568389058 827.741641337 236.568389058 928 382.5 c 0,91,92
 1025 523.688888889 1025 523.688888889 1025 617 c 0,93,94
 1025 656 1025 656 1004.5 673 c 128,-1,95
 984 690 984 690 934 690 c 128,-1,96
 884 690 884 690 822.5 666.5 c 128,-1,97
 761 643 761 643 700.5 600 c 128,-1,98
 640 557 640 557 585.5 496.5 c 128,-1,99
 531 436 531 436 489 362.5 c 0,100,101
 398 203.25 398 203.25 398 28 c 1,84,85
EndSplineSet
EndChar

StartChar: D
Encoding: 68 68 34
Width: 1702
Flags: HW
LayerCount: 2
Fore
SplineSet
495 45 m 1,0,1
 333 -9 333 -9 143 -9 c 0,2,3
 8.18518518519 -9 8.18518518519 -9 -27 38.5 c 0,4,5
 -37 52 -37 52 -37 67 c 256,6,7
 -37 98.5 -37 98.5 16 125 c 0,8,9
 74 154 74 154 167.666666667 154 c 128,-1,10
 261.333333333 154 261.333333333 154 438 101 c 1,11,12
 550.435233161 161.233160622 550.435233161 161.233160622 650.71761658 255.616580311 c 0,13,14
 811.91292876 407.329815303 811.91292876 407.329815303 995 625 c 1,15,-1
 1048 690 l 2,16,17
 1181.65 853.35 1181.65 853.35 1237.825 912.675 c 0,18,19
 1362.28429423 1044.11332008 1362.28429423 1044.11332008 1493 1133 c 1,20,21
 1362.23076923 1333 1362.23076923 1333 1036 1333 c 0,22,23
 853.043478261 1333 853.043478261 1333 669 1231 c 0,24,25
 508.349609375 1141.96484375 508.349609375 1141.96484375 396.5 998 c 0,26,27
 289 859.633663366 289 859.633663366 289 744 c 0,28,29
 289 675 289 675 337 632.5 c 128,-1,30
 385 590 385 590 454.5 590 c 128,-1,31
 524 590 524 590 588.5 613.5 c 128,-1,32
 653 637 653 637 721 677 c 128,-1,33
 789 717 789 717 854.5 772 c 128,-1,34
 920 827 920 827 973 889 c 0,35,36
 1089.39052698 1025.15495609 1089.39052698 1025.15495609 1099 1152 c 1,37,38
 1102.46666667 1178 1102.46666667 1178 1114.73333333 1178 c 128,-1,39
 1127 1178 1127 1178 1127 1155 c 0,40,41
 1127 1014.44444444 1127 1014.44444444 1032 873 c 0,42,43
 940.371109608 736.574763194 940.371109608 736.574763194 790 648 c 0,44,45
 633.813953488 556 633.813953488 556 469 556 c 0,46,47
 371.428571429 556 371.428571429 556 301 614 c 0,48,49
 225 676.588235294 225 676.588235294 225 758.294117647 c 128,-1,50
 225 840 225 840 253.5 913 c 128,-1,51
 282 986 282 986 334.5 1052 c 128,-1,52
 387 1118 387 1118 460.5 1175 c 128,-1,53
 534 1232 534 1232 623.5 1274 c 0,54,55
 813.154761905 1363 813.154761905 1363 1029 1363 c 0,56,57
 1374.27272727 1363 1374.27272727 1363 1535 1159 c 1,58,59
 1769.70686901 1302.69808307 1769.70686901 1302.69808307 1934 1310 c 0,60,61
 1952 1310 1952 1310 1952 1299.5 c 128,-1,62
 1952 1289 1952 1289 1946.5 1285.5 c 128,-1,63
 1941 1282 1941 1282 1884.5 1274.5 c 128,-1,64
 1828 1267 1828 1267 1741.5 1223.5 c 128,-1,65
 1655 1180 1655 1180 1570 1108 c 1,66,67
 1642 984.571428571 1642 984.571428571 1642 844.285714286 c 128,-1,68
 1642 704 1642 704 1609.5 595.5 c 128,-1,69
 1577 487 1577 487 1519.5 395 c 128,-1,70
 1462 303 1462 303 1383 229 c 128,-1,71
 1304 155 1304 155 1210 103 c 0,72,73
 1014.76923077 -5 1014.76923077 -5 796 -5 c 0,74,75
 679.782608696 -5 679.782608696 -5 495 45 c 1,0,1
550 66 m 1,76,77
 675 31 675 31 786.5 31 c 128,-1,78
 898 31 898 31 992.5 58 c 128,-1,79
 1087 85 1087 85 1172.5 134.5 c 128,-1,80
 1258 184 1258 184 1331.5 254.5 c 128,-1,81
 1405 325 1405 325 1458.5 413 c 0,82,83
 1573 601.336448598 1573 601.336448598 1573 821 c 0,84,85
 1573 968 1573 968 1527 1070 c 1,86,87
 1414 963 1414 963 1321.5 829.5 c 128,-1,88
 1229 696 1229 696 1145 582 c 128,-1,89
 1061 468 1061 468 970 370 c 0,90,91
 771.21641791 155.925373134 771.21641791 155.925373134 550 66 c 1,76,77
386 75 m 1,92,93
 257.571428571 106 257.571428571 106 167.785714286 106 c 128,-1,94
 78 106 78 106 37.5 93.5 c 128,-1,95
 -3 81 -3 81 -3 67 c 0,96,97
 -3 29 -3 29 160 29 c 0,98,99
 279.28 29 279.28 29 386 75 c 1,92,93
EndSplineSet
EndChar

StartChar: E
Encoding: 69 69 35
Width: 1108
Flags: HW
LayerCount: 2
Fore
SplineSet
240 -10 m 1,0,-1
 241 -1 l 1,1,2
 107.791788856 12.7126099707 107.791788856 12.7126099707 27 85 c 0,3,4
 -51.993697479 155.678571429 -51.993697479 155.678571429 -52.9968487395 254.839285714 c 128,-1,5
 -54 354 -54 354 -9.5 441.5 c 128,-1,6
 35 529 35 529 114.5 596 c 0,7,8
 287.73880597 742 287.73880597 742 540 742 c 1,9,10
 515.575757576 777.696969697 515.575757576 777.696969697 505 820 c 1,11,12
 206.505440453 885.476225965 206.505440453 885.476225965 114 1092 c 0,13,14
 109 1103.66666667 109 1103.66666667 109 1118.33333333 c 128,-1,15
 109 1133 109 1133 120 1133 c 1,16,17
 133.728813559 1130.25423729 133.728813559 1130.25423729 144 1108 c 0,18,19
 233.14355429 909.903212688 233.14355429 909.903212688 500 853 c 1,20,21
 499 858 499 858 499 862 c 2,22,-1
 499 871 l 2,23,24
 499 1091.02564103 499 1091.02564103 695.5 1240.5 c 0,25,26
 877.573033708 1379 877.573033708 1379 1101 1379 c 0,27,28
 1263 1379 1263 1379 1351.5 1322.5 c 128,-1,29
 1440 1266 1440 1266 1440 1163 c 0,30,31
 1440 1011.50793651 1440 1011.50793651 1235 902.5 c 0,32,33
 1034.71641791 796 1034.71641791 796 751 796 c 0,34,35
 668 796 668 796 595 805 c 1,36,37
 604 769 604 769 625 737 c 1,38,39
 722 726 722 726 772.5 697 c 128,-1,40
 823 668 823 668 823 635.5 c 128,-1,41
 823 603 823 603 773 603 c 0,42,43
 664.608695652 603 664.608695652 603 573 701 c 1,44,45
 381.38585209 677.048231511 381.38585209 677.048231511 218 527 c 0,46,47
 117.322484324 434.541057032 117.322484324 434.541057032 76.5 329 c 0,48,49
 56 276 56 276 56.5 212 c 128,-1,50
 57 148 57 148 103.5 96.5 c 128,-1,51
 150 45 150 45 243 29 c 1,52,53
 258.279532164 209.298479532 258.279532164 209.298479532 387 352.5 c 0,54,55
 518.685393258 499 518.685393258 499 677 499 c 0,56,57
 739.526315789 499 739.526315789 499 787 458 c 0,58,59
 834 417.409090909 834 417.409090909 834 350.204545455 c 128,-1,60
 834 283 834 283 793.5 216.5 c 128,-1,61
 753 150 753 150 682 100.5 c 0,62,63
 530.676767677 -5 530.676767677 -5 309 -5 c 1,64,-1
 275 -4 l 1,65,-1
 275 -30 l 2,66,67
 275 -132.476190476 275 -132.476190476 307.5 -214.5 c 0,68,69
 318 -241 318 -241 329.5 -253 c 128,-1,70
 341 -265 341 -265 341 -274 c 128,-1,71
 341 -283 341 -283 326 -283 c 256,72,73
 273.06557377 -283 273.06557377 -283 248.5 -116.5 c 0,74,75
 240 -58.8888888889 240 -58.8888888889 240 -10 c 1,0,-1
590 838 m 1,76,77
 649.5 831 649.5 831 727.75 831 c 128,-1,78
 806 831 806 831 884 842 c 128,-1,79
 962 853 962 853 1036 874.5 c 128,-1,80
 1110 896 1110 896 1175.5 927 c 128,-1,81
 1241 958 1241 958 1290 998.5 c 0,82,83
 1397 1086.93877551 1397 1086.93877551 1397 1192 c 0,84,85
 1397 1259.76470588 1397 1259.76470588 1327 1303 c 0,86,87
 1252.52380952 1349 1252.52380952 1349 1160.26190476 1349 c 128,-1,88
 1068 1349 1068 1349 1001.5 1325.5 c 128,-1,89
 935 1302 935 1302 874.5 1263 c 128,-1,90
 814 1224 814 1224 762 1173 c 128,-1,91
 710 1122 710 1122 671.5 1066.5 c 0,92,93
 590 949.012987013 590 949.012987013 590 849 c 2,94,-1
 590 838 l 1,76,77
652 703 m 1,95,96
 717.25 631 717.25 631 783 631 c 0,97,98
 795 631 795 631 795 639.5 c 128,-1,99
 795 648 795 648 784 657.5 c 128,-1,100
 773 667 773 667 753.5 676 c 0,101,102
 706.893617021 697.510638298 706.893617021 697.510638298 652 703 c 1,95,96
278 25 m 1,103,104
 287 24 287 24 296 24 c 2,105,-1
 315 24 l 2,106,107
 464.68 24 464.68 24 626.5 154.5 c 0,108,109
 720.31359354 230.156123822 720.31359354 230.156123822 762.5 313.5 c 0,110,111
 783 354 783 354 783 390 c 128,-1,112
 783 426 783 426 754 447.5 c 128,-1,113
 725 469 725 469 672 469 c 128,-1,114
 619 469 619 469 552.5 437 c 128,-1,115
 486 405 486 405 428 347 c 0,116,117
 297.111111111 216.111111111 297.111111111 216.111111111 278 25 c 1,103,104
EndSplineSet
EndChar

StartChar: F
Encoding: 70 70 36
Width: 1270
Flags: HW
LayerCount: 2
Fore
SplineSet
925 1188 m 1,0,1
 925 1213 925 1213 938 1213 c 128,-1,2
 951 1213 951 1213 951 1176 c 128,-1,3
 951 1139 951 1139 933 1091 c 128,-1,4
 915 1043 915 1043 884 999.5 c 128,-1,5
 853 956 853 956 811.5 919 c 128,-1,6
 770 882 770 882 722.5 855 c 0,7,8
 620.462962963 797 620.462962963 797 535.231481481 797 c 128,-1,9
 450 797 450 797 405 832.5 c 128,-1,10
 360 868 360 868 360 932.5 c 128,-1,11
 360 997 360 997 397 1060.5 c 128,-1,12
 434 1124 434 1124 502.5 1181 c 0,13,14
 649.104254662 1302.99186154 649.104254662 1302.99186154 885 1360 c 1,15,16
 1024.2 1392 1024.2 1392 1241 1392 c 0,17,18
 1303.91666667 1392 1303.91666667 1392 1406.45833333 1380.5 c 0,19,20
 1607.08333333 1358 1607.08333333 1358 1671.54166667 1358 c 128,-1,21
 1736 1358 1736 1358 1792 1371 c 128,-1,22
 1848 1384 1848 1384 1892 1407 c 0,23,24
 1974.41819773 1450.08223972 1974.41819773 1450.08223972 2024 1532 c 0,25,26
 2035.07692308 1550 2035.07692308 1550 2047.53846154 1550 c 128,-1,27
 2060 1550 2060 1550 2060 1539 c 128,-1,28
 2060 1528 2060 1528 2050 1518 c 1,29,-1
 2051 1518 l 1,30,31
 1896.62711864 1265 1896.62711864 1265 1543 1265 c 0,32,33
 1443.77777778 1265 1443.77777778 1265 1322.88888889 1281 c 0,34,35
 1096.22222222 1311 1096.22222222 1311 1010.61111111 1311 c 128,-1,36
 925 1311 925 1311 851 1296 c 128,-1,37
 777 1281 777 1281 709.5 1254.5 c 128,-1,38
 642 1228 642 1228 584.5 1192.5 c 128,-1,39
 527 1157 527 1157 484.5 1116 c 0,40,41
 394 1028.69411765 394 1028.69411765 394 944 c 0,42,43
 394 840 394 840 495 840 c 0,44,45
 623.555555556 840 623.555555556 840 766.5 964 c 0,46,47
 902.512304251 1081.98657718 902.512304251 1081.98657718 925 1188 c 1,0,1
302 415.5 m 0,48,49
 257 377 257 377 239.318181818 348.5 c 128,-1,50
 221.636363636 320 221.636363636 320 212.318181818 320 c 128,-1,51
 203 320 203 320 203 326 c 0,52,53
 203 336.099416612 203 336.099416612 210 348 c 1,54,55
 249.012124826 436.290598291 249.012124826 436.290598291 412.5 527 c 0,56,57
 579.83639901 619.844711709 579.83639901 619.844711709 794 667 c 0,58,59
 797 667 797 667 798 668 c 0,60,61
 959.510887651 916.617883238 959.510887651 916.617883238 1178 1070.5 c 0,62,63
 1361.87022901 1200 1361.87022901 1200 1481 1200 c 0,64,65
 1506 1200 1506 1200 1506 1188 c 0,66,67
 1506 1181 1506 1181 1491.5 1177.5 c 128,-1,68
 1477 1174 1477 1174 1441.5 1163.5 c 128,-1,69
 1406 1153 1406 1153 1343.5 1113.5 c 128,-1,70
 1281 1074 1281 1074 1216.5 1014.5 c 0,71,72
 1082.78978472 891.154917687 1082.78978472 891.154917687 962 707 c 1,73,74
 1001 717 1001 717 1038.5 726 c 128,-1,75
 1076 735 1076 735 1107 745.5 c 0,76,77
 1176.75737393 769.127497621 1176.75737393 769.127497621 1192 803 c 1,78,-1
 1195 805 l 1,79,80
 1290.66666667 805 1290.66666667 805 1353 788 c 1,81,82
 1280.04423592 754.648793566 1280.04423592 754.648793566 1224.02211796 696.324396783 c 0,83,84
 1124.93820225 593.168539326 1124.93820225 593.168539326 1090 500 c 1,85,86
 1079 485 1079 485 1068 485 c 128,-1,87
 1057 485 1057 485 1057 496 c 0,88,89
 1057 528.459459459 1057 528.459459459 1089.5 598.72972973 c 128,-1,90
 1122 669 1122 669 1146 707 c 1,91,92
 1093.20833333 691.916666667 1093.20833333 691.916666667 928 654 c 1,93,94
 609.209386282 122.682310469 609.209386282 122.682310469 301 27.5 c 0,95,96
 199 -4 199 -4 121 -4 c 128,-1,97
 43 -4 43 -4 2 7.5 c 128,-1,98
 -39 19 -39 19 -71.5 39 c 0,99,100
 -143 83 -143 83 -143 142 c 0,101,102
 -143 203.363636364 -143 203.363636364 -81.5 222 c 0,103,104
 -65 227 -65 227 -48.5 227 c 128,-1,105
 -32 227 -32 227 -14 216 c 128,-1,106
 4 205 4 205 4 181.5 c 128,-1,107
 4 158 4 158 -14 142.5 c 128,-1,108
 -32 127 -32 127 -57 127 c 128,-1,109
 -82 127 -82 127 -98 135 c 1,110,-1
 -98 134 l 2,111,112
 -98 88.8490566038 -98 88.8490566038 -41.5 59 c 0,113,114
 15.2857142857 29 15.2857142857 29 87.6428571429 29 c 128,-1,115
 160 29 160 29 232 53 c 128,-1,116
 304 77 304 77 386.5 142 c 0,117,118
 565.188811189 282.785123967 565.188811189 282.785123967 769 620 c 1,119,120
 455.081198647 546.469469953 455.081198647 546.469469953 302 415.5 c 0,48,49
EndSplineSet
EndChar

StartChar: G
Encoding: 71 71 37
Width: 1112
Flags: HW
LayerCount: 2
Fore
SplineSet
832.5 713 m 128,-1,1
 919 771 919 771 1032.28571429 859 c 128,-1,2
 1145.57142857 947 1145.57142857 947 1175.78571429 947 c 128,-1,3
 1206 947 1206 947 1206 933 c 0,4,5
 1206 921.769230769 1206 921.769230769 1183 910.884615385 c 128,-1,6
 1160 900 1160 900 1129 872.5 c 128,-1,7
 1098 845 1098 845 1060 799.5 c 0,8,9
 985.68 710.511578947 985.68 710.511578947 872 537 c 1,10,11
 522.340909091 -6 522.340909091 -6 97 -6 c 0,12,13
 -0.0769230769231 -6 -0.0769230769231 -6 -72 36.5 c 0,14,15
 -143 78.4545454545 -143 78.4545454545 -143 139 c 0,16,17
 -143 180 -143 180 -120.5 197.5 c 0,18,19
 -86.4285714286 224 -86.4285714286 224 -59.2142857143 224 c 0,20,21
 4 224 4 224 4 176 c 0,22,23
 4 155 4 155 -14 140 c 128,-1,24
 -32 125 -32 125 -58 125 c 128,-1,25
 -84 125 -84 125 -98 132 c 1,26,-1
 -98 131 l 2,27,28
 -98 58.28 -98 58.28 20.5 33 c 0,29,30
 58 25 58 25 111 25 c 128,-1,31
 164 25 164 25 224.5 46.5 c 128,-1,32
 285 68 285 68 352 118.5 c 0,33,34
 482.885487528 217.152494331 482.885487528 217.152494331 663 456 c 1,35,36
 722.159090909 536.954545455 722.159090909 536.954545455 877 709 c 1,37,38
 603.222222222 517 603.222222222 517 438 517 c 0,39,40
 363.074074074 517 363.074074074 517 337.037037037 535.5 c 0,41,42
 290 568.921052632 290 568.921052632 290 634 c 0,43,44
 290 658 290 658 294 682 c 1,45,46
 283 680 283 680 273.5 680 c 2,47,-1
 253 680 l 2,48,49
 109 680 109 680 18 725.5 c 0,50,51
 -7 738 -7 738 -7 750.5 c 128,-1,52
 -7 763 -7 763 6 763 c 0,53,54
 8 763 8 763 26 753.5 c 128,-1,55
 44 744 44 744 68 734 c 128,-1,56
 92 724 92 724 118 717.5 c 0,57,58
 168 705 168 705 218.5 705 c 128,-1,59
 269 705 269 705 299 708 c 1,60,61
 335.827531646 861.125 335.827531646 861.125 499 1033 c 0,62,63
 652.731604765 1194.93062369 652.731604765 1194.93062369 851 1304.5 c 0,64,65
 1056.38095238 1418 1056.38095238 1418 1212 1418 c 0,66,67
 1278 1418 1278 1418 1306 1396.5 c 128,-1,68
 1334 1375 1334 1375 1334 1323 c 128,-1,69
 1334 1271 1334 1271 1289 1204 c 128,-1,70
 1244 1137 1244 1137 1162.5 1067.5 c 0,71,72
 994.1898017 923.971671388 994.1898017 923.971671388 718 794 c 1,73,74
 556.93442623 725.278688525 556.93442623 725.278688525 408 697 c 1,75,76
 377 636 377 636 377 607.5 c 128,-1,77
 377 579 377 579 392.5 563.5 c 128,-1,78
 408 548 408 548 451.5 548 c 128,-1,79
 495 548 495 548 550.5 565 c 128,-1,80
 606 582 606 582 676 618.5 c 128,-1,0
 746 655 746 655 832.5 713 c 128,-1,1
1237 1389 m 128,-1,82
 1170 1389 1170 1389 1096.5 1357.5 c 128,-1,83
 1023 1326 1023 1326 945.5 1273.5 c 128,-1,84
 868 1221 868 1221 790 1153 c 128,-1,85
 712 1085 712 1085 642.5 1012 c 0,86,87
 497.873432155 860.090079818 497.873432155 860.090079818 425 731 c 1,88,89
 633.766153846 785.938461538 633.766153846 785.938461538 856 922 c 0,90,91
 1039.13576159 1034.12393567 1039.13576159 1034.12393567 1177.5 1169 c 0,92,93
 1304 1292.31092437 1304 1292.31092437 1304 1340.65546218 c 128,-1,81
 1304 1389 1304 1389 1237 1389 c 128,-1,82
EndSplineSet
EndChar

StartChar: H
Encoding: 72 72 38
Width: 1559
Flags: HW
LayerCount: 2
Fore
SplineSet
-198.5 131 m 128,-1,1
 -216 116 -216 116 -241 116 c 128,-1,2
 -266 116 -266 116 -282 124 c 1,3,-1
 -282 122 l 2,4,5
 -282 80 -282 80 -242 53.5 c 128,-1,6
 -202 27 -202 27 -145 27 c 0,7,8
 -16.0909090909 27 -16.0909090909 27 106.5 120 c 0,9,10
 237.953777778 219.723555556 237.953777778 219.723555556 472 508 c 1,11,-1
 376 479 l 1,12,13
 104.31097561 377.782520325 104.31097561 377.782520325 11 243 c 1,14,15
 6 233 6 233 -2.5 233 c 128,-1,16
 -11 233 -11 233 -11 242 c 0,17,18
 -11 254.333333333 -11 254.333333333 -1.35155875325 272.42656275 c 128,-1,19
 8.29688249351 290.519792166 8.29688249351 290.519792166 35.1484412468 316.259896083 c 128,-1,20
 62 342 62 342 95 366.5 c 0,21,22
 206.310980966 449.139970717 206.310980966 449.139970717 305.155490483 484.069985359 c 128,-1,23
 404 519 404 519 503 547 c 1,24,25
 680.258064516 784.399193548 680.258064516 784.399193548 886 1003 c 1,26,27
 718.931034483 901 718.931034483 901 616 901 c 0,28,29
 564 901 564 901 530.5 925.5 c 128,-1,30
 497 950 497 950 497 987.5 c 128,-1,31
 497 1025 497 1025 503 1049 c 128,-1,32
 509 1073 509 1073 524 1098.5 c 0,33,34
 554.915119363 1151.05570292 554.915119363 1151.05570292 633 1212 c 0,35,36
 681.815384615 1250.53846154 681.815384615 1250.53846154 685.907692308 1260.76923077 c 128,-1,37
 690 1271 690 1271 690 1276 c 0,38,39
 690 1339 690 1339 565 1339 c 0,40,41
 401.888888889 1339 401.888888889 1339 290 1233 c 0,42,43
 273.333333333 1218 273.333333333 1218 263 1218 c 256,44,45
 249 1218 249 1218 249 1231 c 0,46,47
 249 1236.625 249 1236.625 268 1258 c 1,48,49
 393.632653061 1366 393.632653061 1366 565 1366 c 256,50,51
 650 1366 650 1366 695 1335.5 c 128,-1,52
 740 1305 740 1305 740 1263.5 c 128,-1,53
 740 1222 740 1222 733 1195 c 128,-1,54
 726 1168 726 1168 709 1141 c 0,55,56
 674.011080332 1085.42936288 674.011080332 1085.42936288 588 1030 c 1,57,58
 544.535433071 1000.11811024 544.535433071 1000.11811024 542.267716535 992.559055118 c 128,-1,59
 540 985 540 985 540 978.5 c 128,-1,60
 540 972 540 972 544.5 964 c 128,-1,61
 549 956 549 956 559 949.5 c 0,62,63
 582.846153846 934 582.846153846 934 620.923076923 934 c 128,-1,64
 659 934 659 934 699 946 c 128,-1,65
 739 958 739 958 783.5 980 c 0,66,67
 877.598958333 1026.52083333 877.598958333 1026.52083333 963.799479167 1101.76041667 c 128,-1,68
 1050 1177 1050 1177 1110 1228.5 c 128,-1,69
 1170 1280 1170 1280 1213.5 1313.5 c 0,70,71
 1298.55223881 1379 1298.55223881 1379 1336 1379 c 0,72,73
 1353 1379 1353 1379 1353 1373.5 c 0,74,75
 1353 1366 1353 1366 1332 1352 c 1,76,-1
 1326 1350 l 1,77,-1
 1328 1350 l 1,78,79
 1178.88815455 1255.82409761 1178.88815455 1255.82409761 945 944.5 c 0,80,81
 871 846 871 846 785 726 c 1,82,-1
 682 596 l 1,83,84
 907.276315789 653.763157895 907.276315789 653.763157895 1055 689 c 1,85,86
 1267.10823383 957.869592185 1267.10823383 957.869592185 1556.5 1174.5 c 0,87,88
 1841.70992366 1388 1841.70992366 1388 1968 1388 c 0,89,90
 2013 1388 2013 1388 2036 1367.5 c 128,-1,91
 2059 1347 2059 1347 2059 1315 c 128,-1,92
 2059 1283 2059 1283 2032 1236.5 c 128,-1,93
 2005 1190 2005 1190 1953 1136 c 128,-1,94
 1901 1082 1901 1082 1826.5 1024 c 128,-1,95
 1752 966 1752 966 1657.5 908.5 c 0,96,97
 1453.96153846 784.653846154 1453.96153846 784.653846154 1206 702 c 1,98,99
 951.915262636 391.818632309 951.915262636 391.818632309 866.5 209 c 0,100,101
 838 148 838 148 838 106.5 c 128,-1,102
 838 65 838 65 855.5 45 c 128,-1,103
 873 25 873 25 921.5 25 c 128,-1,104
 970 25 970 25 1028.5 57 c 128,-1,105
 1087 89 1087 89 1142 148 c 0,106,107
 1258.68939187 273.175893101 1258.68939187 273.175893101 1322 473 c 0,108,109
 1327 487 1327 487 1335.5 495.5 c 128,-1,110
 1344 504 1344 504 1348.5 504 c 128,-1,111
 1353 504 1353 504 1358.5 492 c 128,-1,112
 1364 480 1364 480 1364 450.5 c 128,-1,113
 1364 421 1364 421 1346 372 c 128,-1,114
 1328 323 1328 323 1296 271.5 c 128,-1,115
 1264 220 1264 220 1220 170.5 c 128,-1,116
 1176 121 1176 121 1125.5 82 c 0,117,118
 1012.84615385 -5 1012.84615385 -5 908 -5 c 0,119,120
 849.513513514 -5 849.513513514 -5 812.5 36.5 c 0,121,122
 779 74.0606060606 779 74.0606060606 779 122.03030303 c 128,-1,123
 779 170 779 170 791.5 224.5 c 128,-1,124
 804 279 804 279 833 344 c 0,125,126
 895.675945378 484.480567227 895.675945378 484.480567227 1024 650 c 1,127,128
 933 625 933 625 836 603.5 c 128,-1,129
 739 582 739 582 648 555 c 1,130,131
 397.493243243 254.391891892 397.493243243 254.391891892 228.5 131 c 0,132,133
 42.2391304348 -5 42.2391304348 -5 -138 -5 c 0,134,135
 -262.489795918 -5 -262.489795918 -5 -313 77.5 c 0,136,137
 -328 102 -328 102 -328 127.5 c 128,-1,138
 -328 153 -328 153 -319 169 c 128,-1,139
 -310 185 -310 185 -296 195.5 c 0,140,141
 -270 215 -270 215 -243 215 c 0,142,143
 -181 215 -181 215 -181 167 c 0,144,0
 -181 146 -181 146 -198.5 131 c 128,-1,1
1244 748 m 1,145,146
 1549.02905904 865.534132841 1549.02905904 865.534132841 1794.5 1064 c 0,147,148
 1935.97025419 1178.38020552 1935.97025419 1178.38020552 1992 1264.5 c 0,149,150
 2019 1306 2019 1306 2019 1333.5 c 128,-1,151
 2019 1361 2019 1361 1978.5 1361 c 128,-1,152
 1938 1361 1938 1361 1887.5 1337 c 128,-1,153
 1837 1313 1837 1313 1777.5 1271 c 128,-1,154
 1718 1229 1718 1229 1652 1171 c 128,-1,155
 1586 1113 1586 1113 1517 1045 c 0,156,157
 1386.40939597 916.302013423 1386.40939597 916.302013423 1244 748 c 1,145,146
EndSplineSet
EndChar

StartChar: I
Encoding: 73 73 39
Width: 1092
Flags: HW
LayerCount: 2
Fore
SplineSet
1213 1018 m 0,0,1
 1213 1050 1213 1050 1227.5 1050 c 128,-1,2
 1242 1050 1242 1050 1242 977.5 c 128,-1,3
 1242 905 1242 905 1212.5 818.5 c 128,-1,4
 1183 732 1183 732 1132.5 657.5 c 128,-1,5
 1082 583 1082 583 1013.5 522.5 c 128,-1,6
 945 462 945 462 868 419 c 0,7,8
 706.837209302 329 706.837209302 329 548 329 c 0,9,10
 542 329 542 329 536 329 c 128,-1,11
 530 329 530 329 523 330 c 1,12,13
 277.064558115 90.2907718339 277.064558115 90.2907718339 51 18.5 c 0,14,15
 -23 -5 -23 -5 -81 -5 c 128,-1,16
 -139 -5 -139 -5 -178.5 7 c 128,-1,17
 -218 19 -218 19 -246.5 39.5 c 0,18,19
 -304.61452514 81.3016759777 -304.61452514 81.3016759777 -313 140 c 1,20,21
 -313 201.333333333 -313 201.333333333 -252.5 227 c 0,22,23
 -236 234 -236 234 -220.5 234 c 128,-1,24
 -205 234 -205 234 -188 222.5 c 128,-1,25
 -171 211 -171 211 -171 192 c 128,-1,26
 -171 173 -171 173 -177.5 163.5 c 128,-1,27
 -184 154 -184 154 -194.5 147 c 0,28,29
 -215.5 133 -215.5 133 -235.25 133 c 128,-1,30
 -255 133 -255 133 -267 139 c 1,31,-1
 -267 137 l 1,32,33
 -262 91 -262 91 -217 59 c 128,-1,34
 -172 27 -172 27 -104 27 c 128,-1,35
 -36 27 -36 27 20.5 44 c 128,-1,36
 77 61 77 61 138 100 c 0,37,38
 260.397470295 178.254120353 260.397470295 178.254120353 410 357 c 1,39,40
 281 419.111111111 281 419.111111111 281 597 c 0,41,42
 281 783.289655172 281 783.289655172 432.5 963 c 0,43,44
 584.393881159 1143.17756938 584.393881159 1143.17756938 828 1253 c 0,45,46
 1089.74545455 1371 1089.74545455 1371 1379 1371 c 1,47,-1
 1498 1361 l 1,48,49
 1524 1357 1524 1357 1550 1357 c 1,50,-1
 1651 1364 l 1,51,52
 1690 1364 1690 1364 1690 1347 c 0,53,54
 1690 1324 1690 1324 1636 1324 c 2,55,-1
 1534 1324 l 1,56,57
 1209.65453877 1249.15104741 1209.65453877 1249.15104741 802 659 c 1,58,59
 694.333333333 500.333333333 694.333333333 500.333333333 555 361 c 1,60,-1
 559 361 l 2,61,62
 698.823529412 361 698.823529412 361 851.5 450.5 c 0,63,64
 1005.55248619 540.806629834 1005.55248619 540.806629834 1105 686 c 0,65,66
 1213 843.68 1213 843.68 1213 1018 c 0,0,1
1464 1334 m 1,67,68
 1406.5 1339 1406.5 1339 1355.75 1339 c 128,-1,69
 1305 1339 1305 1339 1219.5 1319 c 128,-1,70
 1134 1299 1134 1299 1046 1263 c 128,-1,71
 958 1227 958 1227 871 1178 c 128,-1,72
 784 1129 784 1129 705 1072 c 128,-1,73
 626 1015 626 1015 558 951.5 c 128,-1,74
 490 888 490 888 440.5 823 c 0,75,76
 334 683.151515152 334 683.151515152 334 586.075757576 c 128,-1,77
 334 489 334 489 361 444.5 c 128,-1,78
 388 400 388 400 431 381 c 1,79,80
 521.666666667 494.333333333 521.666666667 494.333333333 620.833333333 629.666666667 c 128,-1,81
 720 765 720 765 843 897.5 c 128,-1,82
 966 1030 966 1030 1077 1120.5 c 0,83,84
 1284.50190784 1289.67948342 1284.50190784 1289.67948342 1464 1334 c 1,67,68
EndSplineSet
EndChar

StartChar: J
Encoding: 74 74 40
Width: 1063
Flags: HW
LayerCount: 2
Fore
SplineSet
749 230 m 1,0,1
 777.888888889 212.666666667 777.888888889 212.666666667 725 190 c 2,2,-1
 704 181 l 2,3,4
 587.11641791 130.050746269 587.11641791 130.050746269 487.058208955 100.525373134 c 128,-1,5
 387 71 387 71 293 45 c 1,6,7
 -154.640752933 -508.955431755 -154.640752933 -508.955431755 -419.5 -610 c 0,8,9
 -506 -643 -506 -643 -556 -643 c 128,-1,10
 -606 -643 -606 -643 -623.5 -634.5 c 128,-1,11
 -641 -626 -641 -626 -652.5 -612.5 c 0,12,13
 -676 -584.913043478 -676 -584.913043478 -676 -541.956521739 c 128,-1,14
 -676 -499 -676 -499 -647 -444.5 c 128,-1,15
 -618 -390 -618 -390 -564.5 -334.5 c 128,-1,16
 -511 -279 -511 -279 -435.5 -224.5 c 128,-1,17
 -360 -170 -360 -170 -267.5 -120 c 0,18,19
 -75.8042895442 -16.3806970509 -75.8042895442 -16.3806970509 156 49 c 1,20,21
 210 119 210 119 261 191.5 c 128,-1,22
 312 264 312 264 366 339 c 1,23,24
 306 372 306 372 266.5 431 c 128,-1,25
 227 490 227 490 227 583 c 128,-1,26
 227 676 227 676 269 777 c 128,-1,27
 311 878 311 878 386 968 c 128,-1,28
 461 1058 461 1058 564 1133.5 c 128,-1,29
 667 1209 667 1209 788.5 1263.5 c 0,30,31
 1045.99082569 1379 1045.99082569 1379 1322 1379 c 1,32,-1
 1502 1366 l 1,33,-1
 1603 1373 l 1,34,35
 1643 1373 1643 1373 1643 1356 c 0,36,37
 1643 1332 1643 1332 1549 1332 c 1,38,-1
 1514 1333 l 1,39,-1
 1486 1333 l 1,40,41
 1317 1288 1317 1288 1127.5 1113 c 128,-1,42
 938 938 938 938 744 644 c 1,43,44
 644 502.333333333 644 502.333333333 520 337 c 1,45,46
 649.905660377 340.820754717 649.905660377 340.820754717 808 455 c 0,47,48
 956.670406732 562.373071529 956.670406732 562.373071529 1059 719 c 0,49,50
 1166 882.775510204 1166 882.775510204 1166 1017 c 0,51,52
 1166 1050 1166 1050 1180 1050 c 128,-1,53
 1194 1050 1194 1050 1194 985.5 c 128,-1,54
 1194 921 1194 921 1165.5 838 c 128,-1,55
 1137 755 1137 755 1087.5 677.5 c 128,-1,56
 1038 600 1038 600 971.5 532 c 128,-1,57
 905 464 905 464 828 413.5 c 0,58,59
 662.564356436 305 662.564356436 305 501 305 c 2,60,-1
 496 305 l 1,61,62
 426.019607843 212.235294118 426.019607843 212.235294118 334 96 c 1,63,-1
 394 112 l 2,64,65
 554.384615385 154.769230769 554.384615385 154.769230769 636.692307692 185.884615385 c 128,-1,66
 719 217 719 217 730.5 223.5 c 128,-1,67
 742 230 742 230 749 230 c 1,0,1
1423 1342 m 1,68,69
 1373 1348 1373 1348 1315.5 1348 c 128,-1,70
 1258 1348 1258 1348 1173 1328 c 128,-1,71
 1088 1308 1088 1308 1000.5 1272 c 128,-1,72
 913 1236 913 1236 825.5 1186.5 c 128,-1,73
 738 1137 738 1137 659 1078.5 c 128,-1,74
 580 1020 580 1020 511.5 954.5 c 128,-1,75
 443 889 443 889 393 821.5 c 0,76,77
 286 677.05 286 677.05 286 556 c 0,78,79
 286 427.355555556 286 427.355555556 387 369 c 1,80,-1
 503 537 l 1,81,82
 750.843708877 892.119344063 750.843708877 892.119344063 1018.5 1110.5 c 0,83,84
 1242.7603768 1293.4739476 1242.7603768 1293.4739476 1423 1342 c 1,68,69
117 -2 m 1,85,86
 -121.005133929 -83.3435267857 -121.005133929 -83.3435267857 -379.5 -267.5 c 0,87,88
 -536.56097561 -379.393113343 -536.56097561 -379.393113343 -605 -474 c 0,89,90
 -639 -521 -639 -521 -639 -550.5 c 128,-1,91
 -639 -580 -639 -580 -622.5 -596 c 128,-1,92
 -606 -612 -606 -612 -580 -612 c 0,93,94
 -392.977578475 -612 -392.977578475 -612 -76.5 -242.5 c 0,95,96
 19 -131 19 -131 117 -2 c 1,85,86
EndSplineSet
EndChar

StartChar: K
Encoding: 75 75 41
Width: 1663
Flags: HW
LayerCount: 2
Fore
SplineSet
1652.5 1423 m 0,0,1
 1666 1423 1666 1423 1666 1412 c 128,-1,2
 1666 1401 1666 1401 1649.5 1396.5 c 128,-1,3
 1633 1392 1633 1392 1602 1376 c 128,-1,4
 1571 1360 1571 1360 1527.5 1326.5 c 128,-1,5
 1484 1293 1484 1293 1426 1239 c 128,-1,6
 1368 1185 1368 1185 1293 1102.5 c 0,7,8
 1132.7826087 926.260869565 1132.7826087 926.260869565 961.891304348 697.130434783 c 128,-1,9
 791 468 791 468 668 346.5 c 128,-1,10
 545 225 545 225 430.5 147 c 0,11,12
 207.371794872 -5 207.371794872 -5 25 -5 c 0,13,14
 -115.040816327 -5 -115.040816327 -5 -160.5 77.5 c 0,15,16
 -174 102 -174 102 -174 127.5 c 128,-1,17
 -174 153 -174 153 -165 169 c 128,-1,18
 -156 185 -156 185 -142.5 195.5 c 0,19,20
 -117.428571429 215 -117.428571429 215 -90.2142857143 215 c 0,21,22
 -27 215 -27 215 -27 167 c 0,23,24
 -27 146 -27 146 -45 131 c 128,-1,25
 -63 116 -63 116 -89 116 c 128,-1,26
 -115 116 -115 116 -129 123 c 1,27,-1
 -129 122 l 2,28,29
 -129 80 -129 80 -88.5 53.5 c 128,-1,30
 -48 27 -48 27 15.5 27 c 128,-1,31
 79 27 79 27 146 53 c 128,-1,32
 213 79 213 79 293.5 139.5 c 0,33,34
 463.038902883 266.917436328 463.038902883 266.917436328 674 552 c 1,35,36
 792.016913319 715.408033827 792.016913319 715.408033827 1179 1073 c 1,37,38
 1004.27777778 962 1004.27777778 962 874 962 c 0,39,40
 772 962 772 962 772 1045 c 0,41,42
 772 1136.52054795 772 1136.52054795 920 1246 c 0,43,44
 965 1279.26086957 965 1279.26086957 965 1298 c 0,45,46
 965 1356 965 1356 860 1356 c 0,47,48
 688.683544304 1356 688.683544304 1356 547 1219.5 c 0,49,50
 467.70754717 1143.10849057 467.70754717 1143.10849057 434.853773585 1075.05424528 c 128,-1,51
 402 1007 402 1007 395.5 980.5 c 0,52,53
 386.056603774 942 386.056603774 942 377 942 c 0,54,55
 363 942 363 942 363 959 c 128,-1,56
 363 976 363 976 368 992.5 c 128,-1,57
 373 1009 373 1009 392 1050.5 c 128,-1,58
 411 1092 411 1092 441 1137.5 c 128,-1,59
 471 1183 471 1183 512.5 1228.5 c 128,-1,60
 554 1274 554 1274 607 1309.5 c 0,61,62
 727.183098592 1390 727.183098592 1390 868 1390 c 0,63,64
 975.108108108 1390 975.108108108 1390 1015 1328.5 c 0,65,66
 1027 1310 1027 1310 1027 1272.5 c 128,-1,67
 1027 1235 1027 1235 992.5 1181.5 c 0,68,69
 957.414150943 1127.09150943 957.414150943 1127.09150943 863 1066 c 0,70,71
 823 1040.11764706 823 1040.11764706 823 1026.55882353 c 0,72,73
 823 996 823 996 874 996 c 0,74,75
 983 996 983 996 1099.5 1058.5 c 128,-1,76
 1216 1121 1216 1121 1351 1235 c 1,77,78
 1584.37931034 1423 1584.37931034 1423 1652.5 1423 c 0,0,1
1492 515 m 0,79,80
 1506 515 1506 515 1506 471.5 c 128,-1,81
 1506 428 1506 428 1484 373.5 c 128,-1,82
 1462 319 1462 319 1424.5 264.5 c 128,-1,83
 1387 210 1387 210 1338.5 159 c 128,-1,84
 1290 108 1290 108 1236.5 69.5 c 0,85,86
 1117.68831169 -16 1117.68831169 -16 1025 -16 c 0,87,88
 889 -16 889 -16 889 88 c 0,89,90
 889 160.301587302 889 160.301587302 932 232.650793651 c 0,91,92
 1011.41197183 366.264587525 1011.41197183 366.264587525 1180 533 c 0,93,94
 1248 601 1248 601 1248 673 c 0,95,96
 1248 683 1248 683 1245 691 c 1,97,98
 1188 673 1188 673 1151 671 c 128,-1,99
 1114 669 1114 669 1094 674 c 128,-1,100
 1074 679 1074 679 1058.5 686.5 c 0,101,102
 1025 702.709677419 1025 702.709677419 1025 722.35483871 c 128,-1,103
 1025 742 1025 742 1055.5 756.5 c 128,-1,104
 1086 771 1086 771 1153.57142857 771 c 128,-1,105
 1221.14285714 771 1221.14285714 771 1262 732 c 1,106,107
 1359.27272727 780.636363636 1359.27272727 780.636363636 1527 967 c 1,108,109
 1714.85370549 1173.63907603 1714.85370549 1173.63907603 1924.5 1289 c 0,110,111
 2109.86538462 1391 2109.86538462 1391 2253 1391 c 0,112,113
 2319 1391 2319 1391 2357.5 1361 c 128,-1,114
 2396 1331 2396 1331 2396 1283 c 0,115,116
 2395.87781143 1270.54072952 2395.87781143 1270.54072952 2392.43890571 1252.77036476 c 128,-1,117
 2389 1235 2389 1235 2378.5 1216 c 128,-1,118
 2368 1197 2368 1197 2354.5 1184 c 0,119,120
 2326.46153846 1157 2326.46153846 1157 2295.73076923 1157 c 128,-1,121
 2265 1157 2265 1157 2252.5 1172 c 128,-1,122
 2240 1187 2240 1187 2240 1202.5 c 128,-1,123
 2240 1218 2240 1218 2245.5 1229.5 c 128,-1,124
 2251 1241 2251 1241 2261 1250.5 c 0,125,126
 2283.63157895 1272 2283.63157895 1272 2309.81578947 1272 c 128,-1,127
 2336 1272 2336 1272 2353 1259 c 1,128,129
 2356 1264 2356 1264 2356 1270 c 2,130,-1
 2356 1280 l 2,131,132
 2356 1332.15384615 2356 1332.15384615 2300.5 1353.5 c 0,133,134
 2281 1361 2281 1361 2246.5 1361 c 128,-1,135
 2212 1361 2212 1361 2167 1344.5 c 128,-1,136
 2122 1328 2122 1328 2068.5 1294 c 0,137,138
 1972.71446647 1233.12695065 1972.71446647 1233.12695065 1806 1081 c 1,139,140
 1516.21563176 797.515291937 1516.21563176 797.515291937 1283 705 c 1,141,142
 1301 669 1301 669 1301 627 c 128,-1,143
 1301 585 1301 585 1291 539.5 c 128,-1,144
 1281 494 1281 494 1252.5 441 c 0,145,146
 1190.68766404 326.050743657 1190.68766404 326.050743657 1037 187 c 0,147,148
 946 105.413793103 946 105.413793103 946 73.2068965517 c 128,-1,149
 946 41 946 41 965 28.5 c 128,-1,150
 984 16 984 16 1034 16 c 128,-1,151
 1084 16 1084 16 1148 49 c 128,-1,152
 1212 82 1212 82 1275.5 143 c 0,153,154
 1423.64584972 285.313335956 1423.64584972 285.313335956 1474 483 c 1,155,156
 1485 515 1485 515 1492 515 c 0,79,80
1227 717 m 1,157,158
 1194.21428571 744 1194.21428571 744 1154.10714286 744 c 128,-1,159
 1114 744 1114 744 1096.5 737 c 128,-1,160
 1079 730 1079 730 1079 724 c 0,161,162
 1079 702 1079 702 1118.5 702 c 0,163,164
 1180.125 702 1180.125 702 1227 717 c 1,157,158
EndSplineSet
EndChar

StartChar: L
Encoding: 76 76 42
Width: 1323
Flags: HW
LayerCount: 2
Fore
SplineSet
747 -28 m 0,0,1
 598.5 -28 598.5 -28 273 65 c 1,2,3
 121 -5 121 -5 -59 -5 c 0,4,5
 -217.8 -5 -217.8 -5 -265.5 48 c 0,6,7
 -279 63 -279 63 -279 82.5 c 128,-1,8
 -279 102 -279 102 -263 121 c 128,-1,9
 -247 140 -247 140 -217.5 153.5 c 0,10,11
 -155.222222222 182 -155.222222222 182 -43.4236111111 182 c 128,-1,12
 68.375 182 68.375 182 261 115 c 1,13,14
 401.63646833 207.523992322 401.63646833 207.523992322 601 474 c 1,15,16
 398.663826388 482.013313806 398.663826388 482.013313806 276.5 564.5 c 0,17,18
 154 647.213675214 154 647.213675214 154 776 c 0,19,20
 154 905.186915888 154 905.186915888 271.5 1015 c 0,21,22
 391.34 1127 391.34 1127 543 1127 c 0,23,24
 567 1127 567 1127 567 1113 c 0,25,26
 567 1100.72 567 1100.72 512.5 1095.86 c 128,-1,27
 458 1091 458 1091 401.5 1061.5 c 128,-1,28
 345 1032 345 1032 308 990 c 0,29,30
 234 906 234 906 234 815.5 c 128,-1,31
 234 725 234 725 261.5 671 c 128,-1,32
 289 617 289 617 340 581 c 0,33,34
 439.05738476 511.077140169 439.05738476 511.077140169 626 509 c 1,35,36
 660.802919708 555.766423358 660.802919708 555.766423358 771.401459854 717.883211679 c 128,-1,37
 882 880 882 880 992.5 1008 c 128,-1,38
 1103 1136 1103 1136 1208.5 1218.5 c 0,39,40
 1413.74545455 1379 1413.74545455 1379 1624 1379 c 0,41,42
 1738.77777778 1379 1738.77777778 1379 1778.5 1307.5 c 0,43,44
 1791 1285 1791 1285 1791 1258 c 0,45,46
 1791 1123.94871795 1791 1123.94871795 1621 948.5 c 0,47,48
 1462.35121446 784.766317486 1462.35121446 784.766317486 1220 652 c 0,49,50
 972.640658694 516.49009998 972.640658694 516.49009998 752 483 c 1,51,52
 540.731034483 207.951724138 540.731034483 207.951724138 326 91 c 1,53,54
 501.483870968 27 501.483870968 27 754 27 c 0,55,56
 974 27 974 27 1073 126 c 0,57,58
 1080 133 1080 133 1089 133 c 128,-1,59
 1098 133 1098 133 1097.5 124.5 c 0,60,61
 1095.23442136 85.9851632047 1095.23442136 85.9851632047 999 32 c 0,62,63
 919.388349515 -12.6601941748 919.388349515 -12.6601941748 854.194174757 -20.3300970874 c 128,-1,64
 789 -28 789 -28 747 -28 c 0,0,1
782 522 m 1,65,66
 990.674654378 561.004608295 990.674654378 561.004608295 1216 691 c 0,67,68
 1429.08695652 813.934782609 1429.08695652 813.934782609 1571 971.5 c 0,69,70
 1718 1134.71323529 1718 1134.71323529 1718 1263 c 0,71,72
 1718 1297.11111111 1718 1297.11111111 1697 1316.55555556 c 0,73,74
 1659.8 1351 1659.8 1351 1599.9 1351 c 128,-1,75
 1540 1351 1540 1351 1462.5 1317.5 c 128,-1,76
 1385 1284 1385 1284 1308.5 1221 c 0,77,78
 1159.72258065 1098.47741935 1159.72258065 1098.47741935 1011 863 c 1,79,80
 877.25 649 877.25 649 782 522 c 1,65,66
-47 126 m 0,81,82
 -245 126 -245 126 -245 80 c 0,83,84
 -245 49.1428571429 -245 49.1428571429 -144.5 30 c 0,85,86
 -113 24 -113 24 -53.5 24 c 0,87,88
 94.8571428571 24 94.8571428571 24 208 84 c 1,89,90
 49.8823529412 126 49.8823529412 126 -47 126 c 0,81,82
EndSplineSet
EndChar

StartChar: M
Encoding: 77 77 43
Width: 1718
Flags: HW
LayerCount: 2
Fore
SplineSet
1449 150 m 1,0,1
 1457 142 1457 142 1457 128.5 c 128,-1,2
 1457 115 1457 115 1451 108 c 1,3,4
 1360.04918033 31.2602459016 1360.04918033 31.2602459016 1222 2.5 c 0,5,6
 1186 -5 1186 -5 1142 -5 c 128,-1,7
 1098 -5 1098 -5 1069 22.5 c 128,-1,8
 1040 50 1040 50 1040 92.5 c 128,-1,9
 1040 135 1040 135 1071 200.5 c 128,-1,10
 1102 266 1102 266 1155.5 346.5 c 128,-1,11
 1209 427 1209 427 1280 518.5 c 128,-1,12
 1351 610 1351 610 1431 704 c 128,-1,13
 1511 798 1511 798 1595 891.5 c 128,-1,14
 1679 985 1679 985 1759 1070 c 0,15,16
 1920.85507246 1241.97101449 1920.85507246 1241.97101449 2033 1352 c 1,17,18
 1895.6115352 1246.56234097 1895.6115352 1246.56234097 1366 742 c 0,19,20
 1098.79691986 487.371182459 1098.79691986 487.371182459 759 92 c 0,21,22
 682.733333333 4 682.733333333 4 656 4 c 0,23,24
 648 4 648 4 640 14.5 c 128,-1,25
 632 25 632 25 632 63.5 c 128,-1,26
 632 102 632 102 656 177.5 c 128,-1,27
 680 253 680 253 725.5 345 c 128,-1,28
 771 437 771 437 836 543.5 c 128,-1,29
 901 650 901 650 982.5 766.5 c 0,30,31
 1151.52529183 1008.11284047 1151.52529183 1008.11284047 1364 1256 c 1,32,33
 1215.78836988 1113.79694948 1215.78836988 1113.79694948 814 673 c 1,34,35
 395.165015568 211.159637702 395.165015568 211.159637702 94 55 c 1,36,37
 -25.9032258065 -4 -25.9032258065 -4 -118.451612903 -4 c 128,-1,38
 -211 -4 -211 -4 -257 31.5 c 128,-1,39
 -303 67 -303 67 -303 124 c 0,40,41
 -303 167.666666667 -303 167.666666667 -280.5 186.833333333 c 0,42,43
 -245.086956522 217 -245.086956522 217 -219.043478261 217 c 0,44,45
 -156 217 -156 217 -156 169 c 0,46,47
 -156 148 -156 148 -174 132.5 c 128,-1,48
 -192 117 -192 117 -216.5 117 c 128,-1,49
 -241 117 -241 117 -259 126 c 1,50,-1
 -260 119 l 1,51,52
 -260 29 -260 29 -117 29 c 256,53,54
 105.065088757 29 105.065088757 29 584.5 496 c 0,55,56
 758 665 758 665 942.5 866 c 128,-1,57
 1127 1067 1127 1067 1233.5 1172 c 128,-1,58
 1340 1277 1340 1277 1412 1341.5 c 128,-1,59
 1484 1406 1484 1406 1523 1433.5 c 128,-1,60
 1562 1461 1562 1461 1568 1461 c 0,61,62
 1598 1461 1598 1461 1598 1448 c 256,63,64
 1598 1443 1598 1443 1582 1427 c 1,65,66
 1562 1411 1562 1411 1530.5 1378 c 128,-1,67
 1499 1345 1499 1345 1456.5 1285.5 c 128,-1,68
 1414 1226 1414 1226 1359 1144 c 128,-1,69
 1304 1062 1304 1062 1240 964 c 128,-1,70
 1176 866 1176 866 1111 763 c 128,-1,71
 1046 660 1046 660 982.5 557.5 c 128,-1,72
 919 455 919 455 864 364.5 c 0,73,74
 753.231257942 182.235069886 753.231257942 182.235069886 702 82 c 1,75,76
 971.060181369 391.73206925 971.060181369 391.73206925 1085.53009068 511.366034625 c 128,-1,77
 1200 631 1200 631 1274 705 c 0,78,79
 1413 844 1413 844 1582.5 1003 c 128,-1,80
 1752 1162 1752 1162 1847.5 1242.5 c 128,-1,81
 1943 1323 1943 1323 2011 1372 c 0,82,83
 2137.28571429 1463 2137.28571429 1463 2189 1463 c 0,84,85
 2203 1463 2203 1463 2202.5 1455.5 c 0,86,87
 2201.85514019 1445.8271028 2201.85514019 1445.8271028 2152.92757009 1409.4135514 c 128,-1,88
 2104 1373 2104 1373 2028.5 1295.5 c 128,-1,89
 1953 1218 1953 1218 1872 1120.5 c 128,-1,90
 1791 1023 1791 1023 1706.5 911 c 128,-1,91
 1622 799 1622 799 1538.5 684 c 128,-1,92
 1455 569 1455 569 1375.5 456 c 128,-1,93
 1296 343 1296 343 1244 268.5 c 128,-1,94
 1192 194 1192 194 1172 163 c 128,-1,95
 1152 132 1152 132 1141.5 113 c 0,96,97
 1124 81.3333333333 1124 81.3333333333 1124 66 c 0,98,99
 1124 28 1124 28 1178 28 c 0,100,101
 1263.32608696 28 1263.32608696 28 1380.5 98 c 0,102,103
 1419 121 1419 121 1449 150 c 1,0,1
EndSplineSet
EndChar

StartChar: N
Encoding: 78 78 44
Width: 1407
Flags: HW
LayerCount: 2
Fore
SplineSet
672 -4 m 256,0,1
 672 4 672 4 688.5 16 c 128,-1,2
 705 28 705 28 722.5 56.5 c 128,-1,3
 740 85 740 85 756.5 129 c 0,4,5
 773.382978723 174.021276596 773.382978723 174.021276596 817.691489362 319.010638298 c 128,-1,6
 862 464 862 464 898 557.5 c 128,-1,7
 934 651 934 651 978.5 749.5 c 0,8,9
 1072.16839262 956.833408375 1072.16839262 956.833408375 1182 1151 c 1,10,-1
 1164 1129 l 1,11,12
 534.738423029 352.910721736 534.738423029 352.910721736 240.5 127.5 c 0,13,14
 67.5419847328 -5 67.5419847328 -5 -42.7290076336 -5 c 128,-1,15
 -153 -5 -153 -5 -202.5 34.5 c 128,-1,16
 -252 74 -252 74 -252 131 c 0,17,18
 -252 192.470588235 -252 192.470588235 -189 211 c 0,19,20
 -172 216 -172 216 -156 216 c 128,-1,21
 -140 216 -140 216 -122.5 204.5 c 128,-1,22
 -105 193 -105 193 -105 170 c 128,-1,23
 -105 147 -105 147 -122 131.5 c 128,-1,24
 -139 116 -139 116 -164.5 116 c 128,-1,25
 -190 116 -190 116 -206 124 c 1,26,-1
 -206 123 l 2,27,28
 -206 81 -206 81 -169 54.5 c 128,-1,29
 -132 28 -132 28 -70.5 28 c 128,-1,30
 -9 28 -9 28 56.5 58.5 c 128,-1,31
 122 89 122 89 209 154.5 c 0,32,33
 389.931348955 290.718429386 389.931348955 290.718429386 644 570 c 1,34,35
 1009.25665495 982.790055249 1009.25665495 982.790055249 1237.5 1273.5 c 0,36,37
 1285 1334 1285 1334 1293 1346.5 c 0,38,39
 1306.76 1368 1306.76 1368 1319.38 1368 c 128,-1,40
 1332 1368 1332 1368 1332 1356 c 0,41,42
 1332 1350 1332 1350 1328 1343 c 2,43,-1
 1314 1314 l 1,44,45
 1270.5338809 1243.62628337 1270.5338809 1243.62628337 1245.76694045 1151.31314168 c 128,-1,46
 1221 1059 1221 1059 1207.5 1008.5 c 0,47,48
 1121.65648855 687.381679389 1121.65648855 687.381679389 944.5 368.5 c 0,49,50
 867 229 867 229 855 209 c 1,51,52
 1452.81699346 929.896962707 1452.81699346 929.896962707 1763.5 1197 c 0,53,54
 2083.36842105 1472 2083.36842105 1472 2328 1472 c 0,55,56
 2434 1472 2434 1472 2488 1426 c 128,-1,57
 2542 1380 2542 1380 2542 1295 c 0,58,59
 2542 1199.23913043 2542 1199.23913043 2446 1085.5 c 0,60,61
 2346.04234918 967.071913704 2346.04234918 967.071913704 2194 893 c 0,62,63
 2157.875 876 2157.875 876 2138 876 c 256,64,65
 2124 876 2124 876 2124 885.5 c 128,-1,66
 2124 895 2124 895 2143 905 c 1,67,68
 2268.68774094 951.866615266 2268.68774094 951.866615266 2367 1057.5 c 0,69,70
 2473 1171.39361702 2473 1171.39361702 2473 1278 c 0,71,72
 2473 1354 2473 1354 2432.5 1396 c 128,-1,73
 2392 1438 2392 1438 2313.5 1438 c 128,-1,74
 2235 1438 2235 1438 2143 1403.5 c 128,-1,75
 2051 1369 2051 1369 1942.5 1293.5 c 0,76,77
 1590.82222222 1048.78412698 1590.82222222 1048.78412698 912 224.5 c 0,78,79
 709 -22 709 -22 690.5 -22 c 128,-1,80
 672 -22 672 -22 672 -4 c 256,0,1
502 1124 m 1,81,82
 484 1106 484 1106 464.5 1106 c 128,-1,83
 445 1106 445 1106 429.5 1119 c 128,-1,84
 414 1132 414 1132 414 1151.5 c 128,-1,85
 414 1171 414 1171 426.5 1185.5 c 128,-1,86
 439 1200 439 1200 461.5 1200 c 128,-1,87
 484 1200 484 1200 501.5 1190.5 c 128,-1,88
 519 1181 519 1181 532.5 1163.5 c 0,89,90
 563 1123.96296296 563 1123.96296296 563 1064.98148148 c 128,-1,91
 563 1006 563 1006 536 956.5 c 128,-1,92
 509 907 509 907 465 871.5 c 0,93,94
 373.901408451 798 373.901408451 798 251 798 c 256,95,96
 127.5 798 127.5 798 46.5 866 c 0,97,98
 -43 941.135802469 -43 941.135802469 -43 1072 c 0,99,100
 -43 1214.11111111 -43 1214.11111111 80.5 1307 c 0,101,102
 206.806818182 1402 206.806818182 1402 402 1402 c 0,103,104
 537.026315789 1402 537.026315789 1402 672.5 1350 c 0,105,106
 726.446808511 1329.29314421 726.446808511 1329.29314421 793.723404255 1298.1465721 c 128,-1,107
 861 1267 861 1267 890.5 1256 c 0,108,109
 957.545454545 1231 957.545454545 1231 1000.77272727 1231 c 0,110,111
 1088.5 1231 1088.5 1231 1155 1288 c 1,112,113
 1166 1299 1166 1299 1174.5 1299 c 128,-1,114
 1183 1299 1183 1299 1183 1286 c 128,-1,115
 1183 1273 1183 1273 1168.5 1259 c 128,-1,116
 1154 1245 1154 1245 1131.5 1232.5 c 128,-1,117
 1109 1220 1109 1220 1081 1209 c 128,-1,118
 1053 1198 1053 1198 1026 1190.5 c 0,119,120
 966.6 1174 966.6 1174 936.8 1174 c 128,-1,121
 907 1174 907 1174 870.5 1180 c 128,-1,122
 834 1186 834 1186 796.5 1196.5 c 0,123,124
 717.798283262 1218.53648069 717.798283262 1218.53648069 655 1255 c 1,125,-1
 656 1255 l 1,126,127
 495.769230769 1344.62059974 495.769230769 1344.62059974 412.5 1354.5 c 0,128,129
 383 1358 383 1358 331.5 1358 c 128,-1,130
 280 1358 280 1358 215 1336 c 128,-1,131
 150 1314 150 1314 101 1275 c 0,132,133
 -6 1189.83673469 -6 1189.83673469 -6 1066 c 0,134,135
 -6 961.909090909 -6 961.909090909 63 895 c 0,136,137
 133.125 827 133.125 827 246 827 c 0,138,139
 353.721311475 827 353.721311475 827 437 890.5 c 0,140,141
 527 959.125 527 959.125 527 1062 c 0,142,143
 527 1096.72727273 527 1096.72727273 502 1124 c 1,81,82
EndSplineSet
EndChar

StartChar: O
Encoding: 79 79 45
Width: 1247
Flags: HW
LayerCount: 2
Fore
SplineSet
506 190 m 128,-1,1
 497 190 497 190 484 208 c 128,-1,2
 471 226 471 226 459.5 255 c 0,3,4
 432 324.347826087 432 324.347826087 432 409.673913043 c 128,-1,5
 432 495 432 495 456.5 583.5 c 128,-1,6
 481 672 481 672 524.5 750 c 128,-1,7
 568 828 568 828 627 893.5 c 128,-1,8
 686 959 686 959 754.5 1005.5 c 0,9,10
 899.602150538 1104 899.602150538 1104 1049 1104 c 0,11,12
 1188.26506024 1104 1188.26506024 1104 1239.5 982.5 c 0,13,14
 1257 941 1257 941 1257 865.5 c 128,-1,15
 1257 790 1257 790 1218.5 688 c 128,-1,16
 1180 586 1180 586 1113 487.5 c 128,-1,17
 1046 389 1046 389 955.5 299.5 c 128,-1,18
 865 210 865 210 760.5 142.5 c 0,19,20
 532.148148148 -5 532.148148148 -5 317 -5 c 0,21,22
 124.221238938 -5 124.221238938 -5 59 162.5 c 0,23,24
 37 219 37 219 37 303.5 c 128,-1,25
 37 388 37 388 65 483.5 c 128,-1,26
 93 579 93 579 144 672 c 128,-1,27
 195 765 195 765 265.5 854 c 128,-1,28
 336 943 336 943 420.5 1021.5 c 128,-1,29
 505 1100 505 1100 601 1165.5 c 128,-1,30
 697 1231 697 1231 799 1278.5 c 0,31,32
 1014.81052632 1379 1014.81052632 1379 1212 1379 c 0,33,34
 1413.97402597 1379 1413.97402597 1379 1464.5 1253.5 c 0,35,36
 1480 1215 1480 1215 1480 1183 c 128,-1,37
 1480 1151 1480 1151 1476 1127.5 c 128,-1,38
 1472 1104 1472 1104 1466 1081 c 0,39,40
 1451.23893805 1024.4159292 1451.23893805 1024.4159292 1437.61946903 1008.7079646 c 0,41,42
 1415.32957746 983 1415.32957746 983 1406.16478873 983 c 128,-1,43
 1397 983 1397 983 1397 996 c 1,44,45
 1397 994 1397 994 1405 1008.5 c 128,-1,46
 1413 1023 1413 1023 1422 1047 c 0,47,48
 1447 1113.66666667 1447 1113.66666667 1447 1160.33333333 c 128,-1,49
 1447 1207 1447 1207 1432.5 1239.5 c 128,-1,50
 1418 1272 1418 1272 1388 1295.5 c 0,51,52
 1324.80851064 1345 1324.80851064 1345 1222.90425532 1345 c 128,-1,53
 1121 1345 1121 1345 1032 1313.5 c 128,-1,54
 943 1282 943 1282 852 1227.5 c 128,-1,55
 761 1173 761 1173 671 1098.5 c 128,-1,56
 581 1024 581 1024 499 938.5 c 128,-1,57
 417 853 417 853 346.5 760 c 128,-1,58
 276 667 276 667 224.5 575 c 0,59,60
 115 379.388349515 115 379.388349515 115 233 c 0,61,62
 115 87 115 87 235 40.5 c 0,63,64
 275 25 275 25 346 25 c 128,-1,65
 417 25 417 25 516 64 c 128,-1,66
 615 103 615 103 712.5 170 c 128,-1,67
 810 237 810 237 898.5 325 c 128,-1,68
 987 413 987 413 1055 511 c 0,69,70
 1203 724.294117647 1203 724.294117647 1203 908 c 0,71,72
 1203 1071 1203 1071 1039 1071 c 0,73,74
 915.175824176 1071 915.175824176 1071 780.5 974.5 c 0,75,76
 566.822333547 821.39238073 566.822333547 821.39238073 492 565.5 c 0,77,78
 467 480 467 480 467 425 c 128,-1,79
 467 370 467 370 469 347 c 128,-1,80
 471 324 471 324 476 300.5 c 0,81,82
 487.09375 248.359375 487.09375 248.359375 499.546875 229.6796875 c 0,83,84
 515 206.5 515 206.5 515 198.25 c 128,-1,0
 515 190 515 190 506 190 c 128,-1,1
EndSplineSet
EndChar

StartChar: P
Encoding: 80 80 46
Width: 1253
Flags: HW
LayerCount: 2
Fore
SplineSet
731 569 m 1,0,1
 298.683544304 -5 298.683544304 -5 -13 -5 c 0,2,3
 -169.897959184 -5 -169.897959184 -5 -212.5 78.5 c 0,4,5
 -225 103 -225 103 -225 128.5 c 128,-1,6
 -225 154 -225 154 -216 170.5 c 128,-1,7
 -207 187 -207 187 -193 197 c 0,8,9
 -165 217 -165 217 -139.5 217 c 0,10,11
 -78 217 -78 217 -78 169 c 0,12,13
 -78 148 -78 148 -96 132.5 c 128,-1,14
 -114 117 -114 117 -139 117 c 128,-1,15
 -164 117 -164 117 -180 125 c 1,16,-1
 -180 124 l 2,17,18
 -180 82 -180 82 -139.5 55.5 c 128,-1,19
 -99 29 -99 29 -42 29 c 128,-1,20
 15 29 15 29 53.5 37.5 c 128,-1,21
 92 46 92 46 132.5 69 c 128,-1,22
 173 92 173 92 219.5 133 c 128,-1,23
 266 174 266 174 323 239 c 0,24,25
 431.64640884 362.895027624 431.64640884 362.895027624 613 614 c 1,26,27
 560 652 560 652 560 701 c 0,28,29
 560 744.4 560 744.4 599.5 776 c 0,30,31
 637 806 637 806 669.166666667 806 c 128,-1,32
 701.333333333 806 701.333333333 806 705.666666667 798.5 c 0,33,34
 713.18464351 785.488117002 713.18464351 785.488117002 694 782 c 0,35,36
 606 766.355555556 606 766.355555556 606 683 c 0,37,38
 606 662 606 662 634 643 c 1,39,40
 806.866666667 873.488888889 806.866666667 873.488888889 911.933333333 980.744444444 c 0,41,42
 1081.50127011 1153.84504657 1081.50127011 1153.84504657 1240 1265 c 1,43,-1
 1277 1290 l 1,44,45
 1157.65625 1357 1157.65625 1357 932 1357 c 0,46,47
 696.43373494 1357 696.43373494 1357 474 1266.5 c 0,48,49
 272.794074452 1184.6368048 272.794074452 1184.6368048 143.5 1050 c 0,50,51
 16 917.231404959 16 917.231404959 16 788 c 0,52,53
 16 713.435897436 16 713.435897436 60.5 673.5 c 0,54,55
 97.8285714286 640 97.8285714286 640 151.914285714 640 c 128,-1,56
 206 640 206 640 266 671.5 c 128,-1,57
 326 703 326 703 381.5 752.5 c 128,-1,58
 437 802 437 802 486.5 863.5 c 128,-1,59
 536 925 536 925 573.5 985.5 c 0,60,61
 653.302862883 1114.24861878 653.302862883 1114.24861878 662 1186 c 0,62,63
 665.523809524 1223 665.523809524 1223 677.761904762 1223 c 128,-1,64
 690 1223 690 1223 691 1211.5 c 128,-1,65
 692 1200 692 1200 692 1159 c 128,-1,66
 692 1118 692 1118 675 1054 c 128,-1,67
 658 990 658 990 625 927 c 128,-1,68
 592 864 592 864 544.5 806.5 c 128,-1,69
 497 749 497 749 436 705 c 0,70,71
 302.909090909 609 302.909090909 609 144 609 c 0,72,73
 81 609 81 609 32.5 657.5 c 0,74,75
 -20 710 -20 710 -20 788 c 128,-1,76
 -20 866 -20 866 19 941 c 128,-1,77
 58 1016 58 1016 126 1082.5 c 128,-1,78
 194 1149 194 1149 286 1204.5 c 128,-1,79
 378 1260 378 1260 483.5 1300 c 0,80,81
 705.05 1384 705.05 1384 934.289705882 1384 c 128,-1,82
 1163.52941176 1384 1163.52941176 1384 1316 1312 c 1,83,84
 1432.47058824 1378 1432.47058824 1378 1493 1378 c 0,85,86
 1514.7 1378 1514.7 1378 1515.35 1367.5 c 128,-1,87
 1516 1357 1516 1357 1510.5 1353 c 128,-1,88
 1505 1349 1505 1349 1481.5 1344.5 c 0,89,90
 1434.37087912 1335.47527473 1434.37087912 1335.47527473 1361 1288 c 1,91,92
 1512 1192.63157895 1512 1192.63157895 1512 1036 c 0,93,94
 1512 916.494252874 1512 916.494252874 1418.5 801.5 c 0,95,96
 1331.20674157 694.139325843 1331.20674157 694.139325843 1183.5 625 c 0,97,98
 1033.95454545 555 1033.95454545 555 875 555 c 0,99,100
 798 555 798 555 731 569 c 1,0,1
754 598 m 1,101,102
 813.4 587 813.4 587 867.7 587 c 128,-1,103
 922 587 922 587 981 601.5 c 128,-1,104
 1040 616 1040 616 1097.5 645 c 128,-1,105
 1155 674 1155 674 1207.5 717 c 128,-1,106
 1260 760 1260 760 1300 817 c 0,107,108
 1388 942.4 1388 942.4 1388 1100 c 0,109,110
 1388 1197 1388 1197 1320 1259 c 1,111,112
 1122.98347911 1108.55102041 1122.98347911 1108.55102041 843 723 c 1,113,-1
 754 598 l 1,101,102
EndSplineSet
EndChar

StartChar: Q
Encoding: 81 81 47
Width: 1389
Flags: HW
LayerCount: 2
Fore
SplineSet
446 35 m 1,0,1
 201.501274427 -23.6796941376 201.501274427 -23.6796941376 9.5 7.5 c 0,2,3
 -104.752104263 26.0537605213 -104.752104263 26.0537605213 -141 65.5 c 0,4,5
 -158 84 -158 84 -158 101 c 128,-1,6
 -158 118 -158 118 -141.5 134 c 128,-1,7
 -125 150 -125 150 -96.5 163 c 0,8,9
 -32.9230769231 192 -32.9230769231 192 54 192 c 0,10,11
 246 192 246 192 504 106 c 1,12,13
 747.551149881 204.580227333 747.551149881 204.580227333 981.5 437 c 0,14,15
 1235.98513826 689.821836698 1235.98513826 689.821836698 1323.5 940.5 c 0,16,17
 1353 1025 1353 1025 1353 1101 c 0,18,19
 1353 1217 1353 1217 1286 1283.5 c 128,-1,20
 1219 1350 1219 1350 1076 1350 c 0,21,22
 952.210526316 1350 952.210526316 1350 784 1256 c 1,23,24
 614.665719159 1150.89596362 614.665719159 1150.89596362 454 947.5 c 0,25,26
 358.817610063 827.003144654 358.817610063 827.003144654 328.408805031 752.501572327 c 128,-1,27
 298 678 298 678 298 647.5 c 128,-1,28
 298 617 298 617 305.5 590.5 c 128,-1,29
 313 564 313 564 331.5 542.5 c 0,30,31
 372.372093023 495 372.372093023 495 463 495 c 256,32,33
 557.914893617 495 557.914893617 495 690.5 598 c 0,34,35
 813.973016297 693.921186214 813.973016297 693.921186214 917 839 c 0,36,37
 1022.09090948 986.985158245 1022.09090948 986.985158245 1048 1116 c 1,38,39
 1052.57142857 1148 1052.57142857 1148 1061 1148 c 0,40,41
 1079 1148 1079 1148 1079 1114 c 0,42,43
 1079 966.857142857 1079 966.857142857 981.5 811.5 c 0,44,45
 888.228177374 662.880062849 888.228177374 662.880062849 746 566 c 0,46,47
 597.723404255 465 597.723404255 465 458 465 c 0,48,49
 352.3 465 352.3 465 291.5 529 c 0,50,51
 234 589.526315789 234 589.526315789 234 671.263157895 c 128,-1,52
 234 753 234 753 260 825 c 128,-1,53
 286 897 286 897 338.5 971.5 c 0,54,55
 452.026830076 1132.59997792 452.026830076 1132.59997792 659 1261 c 1,56,57
 796.030354132 1344.40978078 796.030354132 1344.40978078 980.5 1371 c 0,58,59
 1036 1379 1036 1379 1094 1379 c 128,-1,60
 1152 1379 1152 1379 1211.5 1361 c 128,-1,61
 1271 1343 1271 1343 1315.5 1304 c 0,62,63
 1412 1219.42696629 1412 1219.42696629 1412 1054 c 0,64,65
 1412 745.368421053 1412 745.368421053 1166 467 c 0,66,67
 931.266990291 201.381067961 931.266990291 201.381067961 583 77 c 1,68,-1
 648 49 l 1,69,70
 1143.125 -184 1143.125 -184 1328 -184 c 0,71,72
 1446.7826087 -184 1446.7826087 -184 1530 -126 c 1,73,74
 1567 -89 1567 -89 1572.5 -89 c 2,75,-1
 1581 -89 l 2,76,77
 1597 -89 1597 -89 1597 -104 c 128,-1,78
 1597 -119 1597 -119 1567 -141 c 128,-1,79
 1537 -163 1537 -163 1491 -182.5 c 0,80,81
 1381.30769231 -229 1381.30769231 -229 1299.15384615 -229 c 128,-1,82
 1217 -229 1217 -229 1148 -221 c 128,-1,83
 1079 -213 1079 -213 1002 -193.5 c 0,84,85
 851.678747941 -155.431630972 851.678747941 -155.431630972 639 -55 c 0,86,87
 512.705882353 4.82352941176 512.705882353 4.82352941176 446 35 c 1,0,1
384 62 m 1,88,89
 158.821428571 159 158.821428571 159 44 159 c 0,90,91
 -25 159 -25 159 -56 145 c 128,-1,92
 -87 131 -87 131 -87 111 c 256,93,94
 -87 29 -87 29 148 29 c 0,95,96
 270.5625 29 270.5625 29 384 62 c 1,88,89
EndSplineSet
EndChar

StartChar: R
Encoding: 82 82 48
Width: 1481
Flags: HW
LayerCount: 2
Fore
SplineSet
812 650.5 m 128,-1,1
 831 663 831 663 888.178571429 663 c 128,-1,2
 945.357142857 663 945.357142857 663 990 638 c 1,3,4
 1121.73279352 695.882591093 1121.73279352 695.882591093 1228 842 c 0,5,6
 1334 987.75 1334 987.75 1334 1107 c 1,7,8
 1329 1183 1329 1183 1273 1235 c 1,9,10
 1027.77112216 1066.66492284 1027.77112216 1066.66492284 778 701 c 1,11,12
 378.738793394 143.697899112 378.738793394 143.697899112 81.5 30 c 0,13,14
 -10 -5 -10 -5 -77 -5 c 128,-1,15
 -144 -5 -144 -5 -183.5 5.5 c 128,-1,16
 -223 16 -223 16 -249.5 35 c 0,17,18
 -301 71.9245283019 -301 71.9245283019 -301 132 c 0,19,20
 -301 193.470588235 -301 193.470588235 -238 212 c 0,21,22
 -221 217 -221 217 -205 217 c 128,-1,23
 -189 217 -189 217 -171.5 205.5 c 128,-1,24
 -154 194 -154 194 -154 171 c 128,-1,25
 -154 148 -154 148 -171.5 132.5 c 128,-1,26
 -189 117 -189 117 -214.5 117 c 128,-1,27
 -240 117 -240 117 -256 125 c 1,28,-1
 -256 124 l 2,29,30
 -256 82 -256 82 -215 55.5 c 128,-1,31
 -174 29 -174 29 -117 29 c 128,-1,32
 -60 29 -60 29 -19 41.5 c 128,-1,33
 22 54 22 54 66.5 82 c 128,-1,34
 111 110 111 110 160.5 156 c 128,-1,35
 210 202 210 202 269.5 270 c 0,36,37
 371.459016393 386.524590164 371.459016393 386.524590164 541.229508197 615.262295082 c 128,-1,38
 711 844 711 844 875 994.5 c 128,-1,39
 1039 1145 1039 1145 1199 1251 c 1,40,-1
 1230 1269 l 1,41,42
 1110 1345 1110 1345 888 1345 c 0,43,44
 673.411764706 1345 673.411764706 1345 471 1252.5 c 0,45,46
 288.327833726 1169.02078423 288.327833726 1169.02078423 168.5 1033 c 0,47,48
 52 900.756756757 52 900.756756757 52 778 c 0,49,50
 52 702.333333333 52 702.333333333 104.5 661.5 c 0,51,52
 145 630 145 630 203.5 630 c 128,-1,53
 262 630 262 630 321.5 661.5 c 128,-1,54
 381 693 381 693 437 743 c 128,-1,55
 493 793 493 793 542 855 c 128,-1,56
 591 917 591 917 628.5 978.5 c 0,57,58
 708.49271137 1109.68804665 708.49271137 1109.68804665 717 1182 c 1,59,60
 724.2 1218 724.2 1218 735 1218 c 128,-1,61
 746 1218 746 1218 747 1206.5 c 128,-1,62
 748 1195 748 1195 748 1154 c 128,-1,63
 748 1113 748 1113 731 1048 c 128,-1,64
 714 983 714 983 681 919 c 128,-1,65
 648 855 648 855 600.5 797 c 128,-1,66
 553 739 553 739 492 695 c 0,67,68
 357.522727273 598 357.522727273 598 200 598 c 0,69,70
 127.391304348 598 127.391304348 598 72 647 c 0,71,72
 13 699.192307692 13 699.192307692 13 778.596153846 c 128,-1,73
 13 858 13 858 50.5 934 c 128,-1,74
 88 1010 88 1010 153 1077 c 128,-1,75
 218 1144 218 1144 305 1199.5 c 128,-1,76
 392 1255 392 1255 491 1295 c 0,77,78
 698.9 1379 698.9 1379 914.45 1379 c 128,-1,79
 1130 1379 1130 1379 1269 1290 c 1,80,81
 1413.07894737 1363 1413.07894737 1363 1483 1363 c 0,82,83
 1503.7 1363 1503.7 1363 1504.35 1353 c 128,-1,84
 1505 1343 1505 1343 1498.5 1338.5 c 128,-1,85
 1492.19294521 1334.04386497 1492.19294521 1334.04386497 1465.09647261 1328.52193248 c 0,86,87
 1399.7091135 1315.19678173 1399.7091135 1315.19678173 1311 1260 c 1,88,89
 1422.10638298 1167.41134752 1422.10638298 1167.41134752 1428 1024 c 1,90,91
 1428 897.230769231 1428 897.230769231 1320 783 c 0,92,93
 1208.72807991 665.30854606 1208.72807991 665.30854606 1027 610 c 1,94,95
 1055 578 1055 578 1055 533.5 c 128,-1,96
 1055 489 1055 489 1047.5 457.5 c 128,-1,97
 1040 426 1040 426 1018.5 388 c 0,98,99
 976.151515152 313.151515152 976.151515152 313.151515152 855 192 c 1,100,101
 800 145.59375 800 145.59375 800 100 c 0,102,103
 800 29 800 29 900 29 c 0,104,105
 1014 29 1014 29 1144 159 c 0,106,107
 1275.55932203 290.559322034 1275.55932203 290.559322034 1341 473 c 1,108,109
 1348.75 504 1348.75 504 1357 504 c 0,110,111
 1378 504 1378 504 1378 460 c 128,-1,112
 1378 416 1378 416 1355.5 358 c 128,-1,113
 1333 300 1333 300 1295.5 247 c 128,-1,114
 1258 194 1258 194 1209 148 c 128,-1,115
 1160 102 1160 102 1106.5 68 c 0,116,117
 991.632352941 -5 991.632352941 -5 900.316176471 -5 c 128,-1,118
 809 -5 809 -5 767 32.5 c 128,-1,119
 725 70 725 70 725 126 c 128,-1,120
 725 182 725 182 740.5 226.5 c 128,-1,121
 756 271 756 271 780.5 310 c 0,122,123
 816.827586207 367.827586207 816.827586207 367.827586207 896 447 c 1,124,125
 965.574074074 505.87037037 965.574074074 505.87037037 973.5 545.5 c 0,126,127
 976 558 976 558 976 571 c 128,-1,128
 976 584 976 584 970 595 c 1,129,130
 924 585 924 585 882 585 c 128,-1,131
 840 585 840 585 816.5 596.5 c 128,-1,132
 793 608 793 608 793 623 c 128,-1,0
 793 638 793 638 812 650.5 c 128,-1,1
835 627 m 0,133,134
 835 613 835 613 870 613 c 128,-1,135
 905 613 905 613 942 621 c 1,136,137
 915 633 915 633 875 633 c 128,-1,138
 835 633 835 633 835 627 c 0,133,134
EndSplineSet
EndChar

StartChar: S
Encoding: 83 83 49
Width: 1141
Flags: HW
LayerCount: 2
Fore
SplineSet
12.5 132.5 m 128,-1,1
 -5 117 -5 117 -30.5 117 c 128,-1,2
 -56 117 -56 117 -72 125 c 1,3,-1
 -72 124 l 2,4,5
 -72 82.6 -72 82.6 -23.5 53.5 c 0,6,7
 25.6666666667 24 25.6666666667 24 91.3333333333 24 c 128,-1,8
 157 24 157 24 210.5 43 c 128,-1,9
 264 62 264 62 312 96 c 128,-1,10
 360 130 360 130 403 176.5 c 128,-1,11
 446 223 446 223 486 278 c 0,12,13
 544.051282051 357.820512821 544.051282051 357.820512821 641 516 c 2,14,-1
 704 618 l 2,15,16
 713.142857143 634 713.142857143 634 721 645 c 1,17,18
 490.907682163 655.091768326 490.907682163 655.091768326 343.5 745 c 0,19,20
 193 836.794326241 193 836.794326241 193 971 c 1,21,22
 202.645895153 1082.89238378 202.645895153 1082.89238378 303.5 1179.5 c 0,23,24
 451.918032787 1321.66885246 451.918032787 1321.66885246 715 1365 c 0,25,26
 800 1379 800 1379 863 1379 c 128,-1,27
 926 1379 926 1379 959.5 1375 c 128,-1,28
 993 1371 993 1371 1018.5 1364.5 c 0,29,30
 1074 1350.35294118 1074 1350.35294118 1074 1335 c 0,31,32
 1074 1330 1074 1330 1073.5 1329.5 c 128,-1,33
 1073 1329 1073 1329 1066.5 1329 c 0,34,35
 1055 1329 1055 1329 1033 1335.5 c 0,36,37
 980.538461538 1351 980.538461538 1351 896.269230769 1351 c 128,-1,38
 812 1351 812 1351 736.5 1337.5 c 128,-1,39
 661 1324 661 1324 592 1299 c 128,-1,40
 523 1274 523 1274 463 1238 c 128,-1,41
 403 1202 403 1202 358.5 1156.5 c 0,42,43
 264 1059.87640449 264 1059.87640449 264 943 c 0,44,45
 264 846.529411765 264 846.529411765 381.5 770.5 c 0,46,47
 516.053048298 683.436262866 516.053048298 683.436262866 741 676 c 1,48,49
 1188.18611111 1379 1188.18611111 1379 1547 1379 c 0,50,51
 1604 1379 1604 1379 1638.5 1344 c 128,-1,52
 1673 1309 1673 1309 1674 1254 c 1,53,54
 1663.51965066 1149.19650655 1663.51965066 1149.19650655 1556 1021 c 0,55,56
 1375.45794393 805.738317757 1375.45794393 805.738317757 1094.5 702 c 0,57,58
 997 666 997 666 892 652 c 1,59,60
 757.850340136 445.984450923 757.850340136 445.984450923 680.425170068 350.992225462 c 128,-1,61
 603 256 603 256 540.5 194.5 c 128,-1,62
 478 133 478 133 410 89 c 0,63,64
 264.727272727 -5 264.727272727 -5 112 -5 c 0,65,66
 -48.6734693878 -5 -48.6734693878 -5 -101.5 78.5 c 0,67,68
 -117 103 -117 103 -117 128.5 c 128,-1,69
 -117 154 -117 154 -108 170.5 c 128,-1,70
 -99 187 -99 187 -85 197 c 0,71,72
 -57 217 -57 217 -31 217 c 0,73,74
 30 217 30 217 30 169 c 0,75,0
 30 148 30 148 12.5 132.5 c 128,-1,1
915 688 m 1,76,77
 1186.83444307 733.782643043 1186.83444307 733.782643043 1407.5 930.5 c 0,78,79
 1536.47811334 1045.48048863 1536.47811334 1045.48048863 1589.5 1164 c 0,80,81
 1615 1221 1615 1221 1615 1255.5 c 128,-1,82
 1615 1290 1615 1290 1608.5 1305.5 c 128,-1,83
 1602 1321 1602 1321 1592 1330.5 c 0,84,85
 1572.52631579 1349 1572.52631579 1349 1546 1349 c 1,86,87
 1427 1338 1427 1338 1288 1195.5 c 128,-1,88
 1149 1053 1149 1053 981 789 c 1,89,-1
 915 688 l 1,76,77
EndSplineSet
EndChar

StartChar: T
Encoding: 84 84 50
Width: 1124
Flags: HW
LayerCount: 2
Fore
SplineSet
961 1227 m 0,0,1
 974 1227 974 1227 974 1186 c 128,-1,2
 974 1145 974 1145 955 1090.5 c 128,-1,3
 936 1036 936 1036 903 987 c 128,-1,4
 870 938 870 938 826.5 896.5 c 128,-1,5
 783 855 783 855 734.5 824.5 c 0,6,7
 630.344262295 759 630.344262295 759 545.172131148 759 c 128,-1,8
 460 759 460 759 417.5 800.5 c 128,-1,9
 375 842 375 842 375 902.5 c 128,-1,10
 375 963 375 963 407 1020.5 c 128,-1,11
 439 1078 439 1078 496.5 1133 c 0,12,13
 624.647710487 1255.5760709 624.647710487 1255.5760709 807 1317 c 0,14,15
 941.166666667 1363 941.166666667 1363 1167 1363 c 0,16,17
 1278 1363 1278 1363 1372 1346.5 c 128,-1,18
 1466 1330 1466 1330 1496.5 1326.5 c 128,-1,19
 1527 1323 1527 1323 1555.5 1320.5 c 0,20,21
 1618.2 1315 1618.2 1315 1658.6 1315 c 128,-1,22
 1699 1315 1699 1315 1753 1329.5 c 128,-1,23
 1807 1344 1807 1344 1854.5 1367.5 c 0,24,25
 1954.88838269 1417.16583144 1954.88838269 1417.16583144 1996 1485 c 1,26,-1
 1996 1484 l 1,27,28
 2006.85714286 1503 2006.85714286 1503 2018.92857143 1503 c 128,-1,29
 2031 1503 2031 1503 2030.5 1493.5 c 0,30,31
 2029.25082508 1469.76567657 2029.25082508 1469.76567657 1994.62541254 1429.38283828 c 128,-1,32
 1960 1389 1960 1389 1902.5 1351.5 c 128,-1,33
 1845 1314 1845 1314 1774.5 1287 c 0,34,35
 1623.05555556 1229 1623.05555556 1229 1461 1229 c 0,36,37
 1412.2 1229 1412.2 1229 1334.6 1241 c 128,-1,38
 1257 1253 1257 1253 1204 1261 c 128,-1,39
 1151 1269 1151 1269 1101.5 1276.5 c 0,40,41
 992.6 1293 992.6 1293 934.3 1293 c 128,-1,42
 876 1293 876 1293 814.5 1276 c 128,-1,43
 753 1259 753 1259 694 1230 c 128,-1,44
 635 1201 635 1201 583 1163 c 128,-1,45
 531 1125 531 1125 492 1082 c 0,46,47
 407 988.282051282 407 988.282051282 407 907 c 0,48,49
 407 861 407 861 437 828.5 c 128,-1,50
 467 796 467 796 515.5 796 c 128,-1,51
 564 796 564 796 606 817 c 128,-1,52
 648 838 648 838 691.5 872 c 128,-1,53
 735 906 735 906 776 949.5 c 128,-1,54
 817 993 817 993 851.5 1038 c 0,55,56
 926.087145969 1135.2875817 926.087145969 1135.2875817 940.043572985 1181.14379085 c 128,-1,57
 954 1227 954 1227 961 1227 c 0,0,1
-120.5 163 m 128,-1,59
 -138 147 -138 147 -163.5 147 c 128,-1,60
 -189 147 -189 147 -205 155 c 1,61,62
 -205 61.4375 -205 61.4375 -72 36.5 c 0,63,64
 -32 29 -32 29 28 29 c 128,-1,65
 88 29 88 29 166 56 c 128,-1,66
 244 83 244 83 322 137.5 c 0,67,68
 485.77544596 251.932843652 485.77544596 251.932843652 622 466 c 1,69,70
 799.782537961 736.654013015 799.782537961 736.654013015 1053.5 970 c 0,71,72
 1184.92275574 1090.87056367 1184.92275574 1090.87056367 1245.96137787 1129.93528184 c 128,-1,73
 1307 1169 1307 1169 1321.5 1169 c 128,-1,74
 1336 1169 1336 1169 1336 1159 c 0,75,76
 1336 1146 1336 1146 1309.5 1128 c 128,-1,77
 1283 1110 1283 1110 1256.5 1090 c 128,-1,78
 1230 1070 1230 1070 1205.5 1047 c 128,-1,79
 1181 1024 1181 1024 1156.5 995.5 c 128,-1,80
 1132 967 1132 967 1103 927.5 c 0,81,82
 1054.22727273 861.068181818 1054.22727273 861.068181818 941.113636364 686.534090909 c 128,-1,83
 828 512 828 512 703.5 375.5 c 128,-1,84
 579 239 579 239 460 154.5 c 0,85,86
 235.378698225 -5 235.378698225 -5 7 -5 c 0,87,88
 -99.023255814 -5 -99.023255814 -5 -172.5 39.5 c 0,89,90
 -250 86.4366197183 -250 86.4366197183 -250 162 c 0,91,92
 -250 203 -250 203 -227.5 220.5 c 0,93,94
 -193.428571429 247 -193.428571429 247 -166.214285714 247 c 0,95,96
 -103 247 -103 247 -103 199 c 0,97,58
 -103 179 -103 179 -120.5 163 c 128,-1,59
EndSplineSet
EndChar

StartChar: U
Encoding: 85 85 51
Width: 1204
Flags: HW
LayerCount: 2
Fore
SplineSet
1009 182 m 1,0,1
 1017.04545455 176.636363636 1017.04545455 176.636363636 1018.02272727 164.318181818 c 128,-1,2
 1019 152 1019 152 1015 145 c 1,3,4
 923 53 923 53 798.5 9.5 c 0,5,6
 757 -5 757 -5 714 -5 c 128,-1,7
 671 -5 671 -5 638 22 c 128,-1,8
 605 49 605 49 605 106 c 0,9,10
 605 202.208333333 605 202.208333333 664 303 c 1,11,12
 296.5 -5 296.5 -5 110 -5 c 0,13,14
 61 -5 61 -5 36 19 c 128,-1,15
 11 43 11 43 9 81 c 1,16,-1
 9 88 l 2,17,18
 9 318.102941176 9 318.102941176 510 797 c 1,19,20
 701.211221122 976.622662266 701.211221122 976.622662266 757.605610561 1050.31133113 c 128,-1,21
 814 1124 814 1124 829 1158.5 c 128,-1,22
 844 1193 844 1193 844 1220 c 0,23,24
 844 1288 844 1288 791.5 1316 c 128,-1,25
 739 1344 739 1344 656 1344 c 128,-1,26
 573 1344 573 1344 498 1323.5 c 128,-1,27
 423 1303 423 1303 353.5 1268 c 128,-1,28
 284 1233 284 1233 223.5 1187.5 c 128,-1,29
 163 1142 163 1142 118.5 1093 c 0,30,31
 23 987.842696629 23 987.842696629 23 900 c 0,32,33
 23 849 23 849 50.5 823.5 c 128,-1,34
 78 798 78 798 118.5 798 c 128,-1,35
 159 798 159 798 207 819 c 128,-1,36
 255 840 255 840 306 876 c 128,-1,37
 357 912 357 912 409.5 960 c 128,-1,38
 462 1008 462 1008 508 1061 c 0,39,40
 608.862745098 1177.2114237 608.862745098 1177.2114237 653 1277 c 0,41,42
 666.777777778 1308 666.777777778 1308 676.388888889 1308 c 128,-1,43
 686 1308 686 1308 686 1289.5 c 0,44,45
 686 1228.14285714 686 1228.14285714 647 1146.07142857 c 128,-1,46
 608 1064 608 1064 549.5 992 c 128,-1,47
 491 920 491 920 424 869 c 0,48,49
 283.431372549 762 283.431372549 762 146 762 c 0,50,51
 71 762 71 762 30 796.5 c 128,-1,52
 -11 831 -11 831 -11 887 c 128,-1,53
 -11 943 -11 943 16.5 999 c 128,-1,54
 44 1055 44 1055 92 1109.5 c 128,-1,55
 140 1164 140 1164 205.5 1213 c 128,-1,56
 271 1262 271 1262 347 1298.5 c 0,57,58
 514.616438356 1379 514.616438356 1379 673 1379 c 0,59,60
 820 1379 820 1379 865 1290.5 c 0,61,62
 880 1261 880 1261 880 1219 c 128,-1,63
 880 1177 880 1177 860 1115 c 128,-1,64
 840 1053 840 1053 785 964.5 c 0,65,66
 666.415861718 773.687341129 666.415861718 773.687341129 379 477 c 0,67,68
 81.3950819672 170.768852459 81.3950819672 170.768852459 55.5 102.5 c 0,69,70
 50 88 50 88 50 76 c 0,71,72
 50 25 50 25 103 25 c 128,-1,73
 156 25 156 25 229 55 c 128,-1,74
 302 85 302 85 391 144 c 0,75,76
 593.637895175 278.332986689 593.637895175 278.332986689 772 498 c 0,77,78
 1053.70034843 843.31010453 1053.70034843 843.31010453 1395 1231 c 1,79,-1
 1544 1231 l 1,80,81
 1533.80099502 1214.68159204 1533.80099502 1214.68159204 1429.90049751 1093.84079602 c 128,-1,82
 1326 973 1326 973 1276.5 915 c 128,-1,83
 1227 857 1227 857 1176 799 c 128,-1,84
 1125 741 1125 741 1079 689 c 0,85,86
 997.615384615 597 997.615384615 597 932.807692308 528 c 128,-1,87
 868 459 868 459 816 396 c 128,-1,88
 764 333 764 333 727 277.5 c 0,89,90
 650 162 650 162 650 92 c 256,91,92
 650 27 650 27 728 27 c 0,93,94
 816.054545455 27 816.054545455 27 945 125.5 c 0,95,96
 981 153 981 153 1009 182 c 1,0,1
EndSplineSet
EndChar

StartChar: V
Encoding: 86 86 52
Width: 1028
Flags: HW
LayerCount: 2
Fore
SplineSet
1425.5 829.5 m 128,-1,1
 1437 835 1437 835 1451 835 c 128,-1,2
 1465 835 1465 835 1465 825.5 c 128,-1,3
 1465 816 1465 816 1446 806 c 128,-1,4
 1427 796 1427 796 1379 796 c 128,-1,5
 1331 796 1331 796 1283.5 830 c 128,-1,6
 1236 864 1236 864 1211 919 c 1,7,8
 799.238123693 565.524051389 799.238123693 565.524051389 -94 -9 c 0,9,10
 -153.2 -46 -153.2 -46 -166.1 -46 c 0,11,12
 -190 -46 -190 -46 -190 -31 c 0,13,14
 -190 -24 -190 -24 -158.5 -9.5 c 128,-1,15
 -127 5 -127 5 -82.5 53.5 c 128,-1,16
 -38 102 -38 102 16 176.5 c 0,17,18
 107.24137931 302.379310345 107.24137931 302.379310345 206.620689655 464.689655172 c 128,-1,19
 306 627 306 627 352 696 c 128,-1,20
 398 765 398 765 444 828.5 c 0,21,22
 532.574468085 950.771276596 532.574468085 950.771276596 619 1048 c 1,23,24
 436.3 922 436.3 922 324 922 c 0,25,26
 274 922 274 922 241 948 c 128,-1,27
 208 974 208 974 208 1017 c 128,-1,28
 208 1060 208 1060 231 1097 c 128,-1,29
 254 1134 254 1134 284.5 1166 c 128,-1,30
 315 1198 315 1198 332.5 1217 c 128,-1,31
 350 1236 350 1236 365 1255.5 c 0,32,33
 400 1301 400 1301 400 1325 c 1,34,35
 396.555555556 1387 396.555555556 1387 286 1387 c 0,36,37
 153.5 1387 153.5 1387 13.5 1275 c 0,38,39
 6 1269 6 1269 1 1269 c 0,40,41
 -13 1269 -13 1269 -13 1281 c 0,42,43
 -13 1295.66666667 -13 1295.66666667 11 1317 c 1,44,45
 91.9966832504 1382.42039801 91.9966832504 1382.42039801 214 1406.5 c 0,46,47
 252 1414 252 1414 290.5 1414 c 128,-1,48
 329 1414 329 1414 363 1406.5 c 128,-1,49
 397 1399 397 1399 421.5 1384 c 0,50,51
 473 1352.46938776 473 1352.46938776 473 1294 c 0,52,53
 473 1229.45 473 1229.45 406 1139 c 0,54,55
 386 1112 386 1112 352 1077.5 c 128,-1,56
 318 1043 318 1043 299.5 1022 c 128,-1,57
 281 1001 281 1001 281 987 c 0,58,59
 281 954 281 954 318.5 954 c 128,-1,60
 356 954 356 954 400 966.5 c 128,-1,61
 444 979 444 979 505 1012 c 0,62,63
 643.214529915 1086.77179487 643.214529915 1086.77179487 827 1256 c 0,64,65
 838 1265 838 1265 854 1278.5 c 128,-1,66
 870 1292 870 1292 886.5 1305 c 0,67,68
 925.846153846 1336 925.846153846 1336 941.423076923 1336 c 128,-1,69
 957 1336 957 1336 957 1326.5 c 0,70,71
 957 1314.5 957 1314.5 926.862942701 1294.51075645 c 128,-1,72
 896.725885401 1274.5215129 896.725885401 1274.5215129 874.362942701 1252.76075645 c 128,-1,73
 852 1231 852 1231 832.5 1203 c 128,-1,74
 813 1175 813 1175 793 1138 c 128,-1,75
 773 1101 773 1101 744 1048.5 c 0,76,77
 479.381730412 569.449684367 479.381730412 569.449684367 173 248 c 0,78,79
 112 184 112 184 47 121 c 1,80,81
 382.306167401 347.440528634 382.306167401 347.440528634 811 687 c 0,82,83
 1016.25806452 849.580645161 1016.25806452 849.580645161 1189 1002 c 1,84,85
 1188 1008 1188 1008 1188 1014 c 128,-1,86
 1188 1020 1188 1020 1188 1052.5 c 128,-1,87
 1188 1085 1188 1085 1203 1143.5 c 128,-1,88
 1218 1202 1218 1202 1243 1256 c 128,-1,89
 1268 1310 1268 1310 1302 1356.5 c 128,-1,90
 1336 1403 1336 1403 1373.5 1437.5 c 0,91,92
 1453.39130435 1511 1453.39130435 1511 1529 1511 c 0,93,94
 1562 1511 1562 1511 1584.5 1492 c 128,-1,95
 1607 1473 1607 1473 1607 1428 c 0,96,97
 1607 1265.50561798 1607 1265.50561798 1247 950 c 1,98,99
 1269 886 1269 886 1311.5 855 c 128,-1,100
 1354 824 1354 824 1384 824 c 128,-1,0
 1414 824 1414 824 1425.5 829.5 c 128,-1,1
1233 1041 m 1,101,102
 1566 1346.63013699 1566 1346.63013699 1566 1439 c 0,103,104
 1566 1459 1566 1459 1553 1469.5 c 128,-1,105
 1540 1480 1540 1480 1518 1480 c 128,-1,106
 1496 1480 1496 1480 1461 1463.5 c 128,-1,107
 1426 1447 1426 1447 1393.5 1417.5 c 128,-1,108
 1361 1388 1361 1388 1331.5 1347 c 128,-1,109
 1302 1306 1302 1306 1280.5 1257.5 c 0,110,111
 1233 1150.34883721 1233 1150.34883721 1233 1045 c 2,112,-1
 1233 1041 l 1,101,102
EndSplineSet
EndChar

StartChar: W
Encoding: 87 87 53
Width: 1223
Flags: HW
LayerCount: 2
Fore
SplineSet
1043 1393 m 128,-1,1
 1071 1414 1071 1414 1089.5 1414 c 128,-1,2
 1108 1414 1108 1414 1108 1404 c 0,3,4
 1108 1393.2 1108 1393.2 1096 1386 c 2,5,-1
 1075 1374 l 1,6,-1
 1077 1374 l 1,7,8
 1012.39240506 1332.88607595 1012.39240506 1332.88607595 930 1229 c 0,9,10
 812.722772277 1081.12871287 812.722772277 1081.12871287 663.361386139 873.064356436 c 128,-1,11
 514 665 514 665 430.5 564 c 128,-1,12
 347 463 347 463 265 375 c 0,13,14
 128.063732929 228.04400607 128.063732929 228.04400607 -63 60 c 1,15,16
 150.917910448 188.350746269 150.917910448 188.350746269 448 470 c 0,17,18
 525 543 525 543 656 671.5 c 128,-1,19
 787 800 787 800 921.5 923 c 128,-1,20
 1056 1046 1056 1046 1157 1132 c 0,21,22
 1318.74637681 1269.72463768 1318.74637681 1269.72463768 1374.37318841 1310.86231884 c 128,-1,23
 1430 1352 1430 1352 1435 1355 c 128,-1,24
 1440 1358 1440 1358 1442 1360 c 1,25,-1
 1442 1359 l 1,26,27
 1528.4 1423 1528.4 1423 1546.2 1423 c 128,-1,28
 1564 1423 1564 1423 1564 1407 c 0,29,30
 1564 1393.29411765 1564 1393.29411765 1514 1368.14705882 c 128,-1,31
 1464 1343 1464 1343 1427.5 1306.5 c 128,-1,32
 1391 1270 1391 1270 1356 1221 c 0,33,34
 1306 1151 1306 1151 1231 1020.5 c 128,-1,35
 1156 890 1156 890 1104 803.5 c 128,-1,36
 1052 717 1052 717 996.5 633 c 0,37,38
 878.569659443 454.510835913 878.569659443 454.510835913 748 289 c 2,39,-1
 699 227 l 1,40,41
 983.522123894 525.07079646 983.522123894 525.07079646 1154.76106195 686.03539823 c 128,-1,42
 1326 847 1326 847 1432.5 947.5 c 128,-1,43
 1539 1048 1539 1048 1640.5 1131.5 c 128,-1,44
 1742 1215 1742 1215 1834 1272 c 0,45,46
 2021.22807018 1388 2021.22807018 1388 2166 1388 c 0,47,48
 2266 1388 2266 1388 2325 1353 c 128,-1,49
 2384 1318 2384 1318 2384 1249 c 0,50,51
 2384 1164.89855072 2384 1164.89855072 2308.5 1108 c 0,52,53
 2236.84615385 1054 2236.84615385 1054 2132 1054 c 0,54,55
 2072.57692308 1054 2072.57692308 1054 2030.78846154 1074.5 c 0,56,57
 1955 1111.67924528 1955 1111.67924528 1955 1145 c 256,58,59
 1955 1180 1955 1180 1982 1180 c 0,60,61
 1997 1180 1997 1180 2003 1174 c 128,-1,62
 2009 1168 2009 1168 2012.5 1147.5 c 128,-1,63
 2016 1127 2016 1127 2030 1114.5 c 128,-1,64
 2044 1102 2044 1102 2062 1094 c 0,65,66
 2095.75 1079 2095.75 1079 2127.875 1079 c 128,-1,67
 2160 1079 2160 1079 2194 1089.5 c 128,-1,68
 2228 1100 2228 1100 2257 1121 c 0,69,70
 2324 1169.51724138 2324 1169.51724138 2324 1247 c 0,71,72
 2324 1352 2324 1352 2155 1352 c 0,73,74
 1904.51006711 1352 1904.51006711 1352 1345 821 c 1,75,-1
 1292 770 l 1,76,77
 955.434497817 444.469432314 955.434497817 444.469432314 794.217248908 277.234716157 c 128,-1,78
 633 110 633 110 583.5 69.5 c 128,-1,79
 534 29 534 29 494.5 3.5 c 0,80,81
 417.823529412 -46 417.823529412 -46 390.411764706 -46 c 128,-1,82
 363 -46 363 -46 363 -27 c 0,83,84
 363 -13.9166666667 363 -13.9166666667 390.5 -3.45833333333 c 128,-1,85
 418 7 418 7 436.5 15 c 128,-1,86
 455 23 455 23 471.5 36 c 128,-1,87
 488 49 488 49 504.5 69 c 128,-1,88
 521 89 521 89 542 121 c 0,89,90
 572.772277228 167.891089109 572.772277228 167.891089109 635.886138614 279.945544554 c 128,-1,91
 699 392 699 392 740 461.5 c 128,-1,92
 781 531 781 531 823.5 596.5 c 128,-1,93
 866 662 866 662 912 726.5 c 128,-1,94
 958 791 958 791 1013.5 862.5 c 0,95,96
 1114.85805085 993.078389831 1114.85805085 993.078389831 1289 1200 c 1,97,98
 1091.06672845 1050.45041705 1091.06672845 1050.45041705 820 776.5 c 0,99,100
 179.987275693 129.67862969 179.987275693 129.67862969 -102 6 c 1,101,-1
 -139 -11 l 2,102,103
 -214.384615385 -46 -214.384615385 -46 -237.692307692 -46 c 128,-1,104
 -261 -46 -261 -46 -261 -28 c 0,105,106
 -261 -11.1034482759 -261 -11.1034482759 -226.5 -4.05172413793 c 128,-1,107
 -192 3 -192 3 -169 13.5 c 128,-1,108
 -146 24 -146 24 -115.5 53 c 0,109,110
 -51.4901315789 113.861842105 -51.4901315789 113.861842105 37.2549342105 242.930921053 c 128,-1,111
 126 372 126 372 201 476.5 c 128,-1,112
 276 581 276 581 366.5 693 c 0,113,114
 562.196581197 935.188034188 562.196581197 935.188034188 815 1177 c 0,115,116
 859 1219 859 1219 901 1261.5 c 128,-1,117
 943 1304 943 1304 979 1338 c 128,-1,0
 1015 1372 1015 1372 1043 1393 c 128,-1,1
-556 863 m 0,118,119
 -573 863 -573 863 -573 881 c 0,120,121
 -573 933.906976744 -573 933.906976744 -515.5 1023.5 c 0,122,123
 -457.120755566 1114.46300877 -457.120755566 1114.46300877 -347.5 1190 c 0,124,125
 -176.256097561 1308 -176.256097561 1308 13 1308 c 0,126,127
 129.913043478 1308 129.913043478 1308 327.5 1247 c 0,128,129
 402 1224 402 1224 467.5 1205 c 128,-1,130
 533 1186 533 1186 571.5 1186 c 128,-1,131
 610 1186 610 1186 645.5 1193 c 128,-1,132
 681 1200 681 1200 720.5 1215 c 0,133,134
 803.307228916 1246.44578313 803.307228916 1246.44578313 889 1315 c 0,135,136
 913.82 1335.44 913.82 1335.44 919.91 1330.22 c 128,-1,137
 926 1325 926 1325 925.5 1321 c 0,138,139
 924.352112676 1311.81690141 924.352112676 1311.81690141 889.176056338 1279.9084507 c 128,-1,140
 854 1248 854 1248 801.5 1214.5 c 128,-1,141
 749 1181 749 1181 698 1161 c 0,142,143
 603.65 1124 603.65 1124 529.325 1124 c 128,-1,144
 455 1124 455 1124 418.5 1128 c 128,-1,145
 382 1132 382 1132 344.5 1139.5 c 0,146,147
 287.192307692 1150.96153846 287.192307692 1150.96153846 215.596153846 1173.48076923 c 128,-1,148
 144 1196 144 1196 117 1203.5 c 128,-1,149
 90 1211 90 1211 65 1216 c 0,150,151
 20 1225 20 1225 -38.5 1225 c 128,-1,152
 -97 1225 -97 1225 -158 1210.5 c 128,-1,153
 -219 1196 -219 1196 -276.5 1169.5 c 0,154,155
 -447.700564972 1090.59887006 -447.700564972 1090.59887006 -514 958 c 0,156,157
 -532 922 -532 922 -532 900 c 128,-1,158
 -532 878 -532 878 -540.5 870.5 c 128,-1,159
 -549 863 -549 863 -556 863 c 0,118,119
EndSplineSet
EndChar

StartChar: X
Encoding: 88 88 54
Width: 1559
Flags: HW
LayerCount: 2
Fore
SplineSet
904 -5 m 0,0,1
 663 -5 663 -5 663 202 c 0,2,3
 663 348 663 348 753 519 c 1,4,5
 549.198385595 275.199937907 549.198385595 275.199937907 315.5 129 c 0,6,7
 101.303030303 -5 101.303030303 -5 -41 -5 c 0,8,9
 -133.523809524 -5 -133.523809524 -5 -197 38 c 0,10,11
 -264 83.3870967742 -264 83.3870967742 -264 158 c 0,12,13
 -264 223.470588235 -264 223.470588235 -201 242 c 0,14,15
 -184 247 -184 247 -167.5 247 c 128,-1,16
 -151 247 -151 247 -134 236 c 128,-1,17
 -117 225 -117 225 -117 202 c 128,-1,18
 -117 179 -117 179 -135 163 c 128,-1,19
 -153 147 -153 147 -178 147 c 128,-1,20
 -203 147 -203 147 -219 155 c 1,21,22
 -219 61.2388059701 -219 61.2388059701 -108.5 36.5 c 0,23,24
 -75 29 -75 29 -30 29 c 128,-1,25
 15 29 15 29 81.5 52 c 128,-1,26
 148 75 148 75 223.5 117 c 128,-1,27
 299 159 299 159 379.5 218 c 128,-1,28
 460 277 460 277 538 349.5 c 0,29,30
 707.361048818 506.918923581 707.361048818 506.918923581 819 681 c 1,31,-1
 819 680 l 1,32,33
 951.523489933 937.684563758 951.523489933 937.684563758 1000.5 1114 c 0,34,35
 1018 1177 1018 1177 1018 1217 c 0,36,37
 1018 1382 1018 1382 843 1382 c 0,38,39
 719.195402299 1382 719.195402299 1382 575 1285.5 c 0,40,41
 444.957939692 1198.47185195 444.957939692 1198.47185195 348.5 1069.5 c 0,42,43
 253.056455829 941.884474647 253.056455829 941.884474647 247 847 c 1,44,45
 249 761 249 761 333 761 c 0,46,47
 460 761 460 761 606 907 c 0,48,49
 757.083333333 1058.08333333 757.083333333 1058.08333333 855 1297 c 1,50,51
 865 1315 865 1315 872 1315 c 0,52,53
 890 1315 890 1315 890 1273.5 c 128,-1,54
 890 1232 890 1232 866.5 1173.5 c 128,-1,55
 843 1115 843 1115 802.5 1054.5 c 128,-1,56
 762 994 762 994 707 936 c 128,-1,57
 652 878 652 878 589.5 832.5 c 0,58,59
 451.450549451 732 451.450549451 732 331.225274725 732 c 128,-1,60
 211 732 211 732 211 844 c 0,61,62
 211 946.916666667 211 946.916666667 315 1084.5 c 0,63,64
 415.870809119 1217.94367456 415.870809119 1217.94367456 559 1312 c 0,65,66
 714.217391304 1414 714.217391304 1414 841 1414 c 0,67,68
 963.903225806 1414 963.903225806 1414 1025.5 1357 c 0,69,70
 1097 1290.8358209 1097 1290.8358209 1097 1141 c 0,71,72
 1097 980 1097 980 1012 785 c 1,73,74
 1562.24262295 1402 1562.24262295 1402 1925 1402 c 0,75,76
 1973 1402 1973 1402 2002 1379 c 128,-1,77
 2031 1356 2031 1356 2031 1321 c 128,-1,78
 2031 1286 2031 1286 2013.5 1270.5 c 128,-1,79
 1996 1255 1996 1255 1974.5 1255 c 128,-1,80
 1953 1255 1953 1255 1941.5 1272.5 c 128,-1,81
 1930 1290 1930 1290 1930 1316 c 128,-1,82
 1930 1342 1930 1342 1955 1361 c 1,83,84
 1940 1366 1940 1366 1929 1366 c 0,85,86
 1616.00934579 1366 1616.00934579 1366 1131 867 c 1,87,-1
 1104 838 l 2,88,89
 1084 816 1084 816 1066 797 c 128,-1,90
 1048 778 1048 778 1031.5 758.5 c 0,91,92
 994.571428571 714.857142857 994.571428571 714.857142857 964 669 c 1,93,-1
 965 669 l 1,94,95
 841.7253377 462.514940647 841.7253377 462.514940647 788.5 268.5 c 0,96,97
 773 212 773 212 772.5 170 c 128,-1,98
 772 128 772 128 784 98.5 c 128,-1,99
 796 69 796 69 815.5 52.5 c 0,100,101
 879.611012433 -1.74777975133 879.611012433 -1.74777975133 1014.5 42 c 0,102,103
 1130.84142988 79.732355637 1130.84142988 79.732355637 1238 173 c 0,104,105
 1350.93316983 271.293684856 1350.93316983 271.293684856 1400.5 402.5 c 0,106,107
 1426 470 1426 470 1426 546 c 128,-1,108
 1426 622 1426 622 1394.5 659 c 128,-1,109
 1363 696 1363 696 1321.5 696 c 128,-1,110
 1280 696 1280 696 1249.5 680 c 128,-1,111
 1219 664 1219 664 1195 637.5 c 0,112,113
 1142 578.979166667 1142 578.979166667 1142 505 c 0,114,115
 1142 444.272727273 1142 444.272727273 1177 422 c 1,116,117
 1190 412 1190 412 1190 401 c 256,118,119
 1190 379 1190 379 1167 379 c 0,120,121
 1124.31818182 379 1124.31818182 379 1102.5 443 c 0,122,123
 1095 465 1095 465 1095 503.5 c 128,-1,124
 1095 542 1095 542 1113.5 584.5 c 128,-1,125
 1132 627 1132 627 1162.5 658.5 c 0,126,127
 1228.82539683 727 1228.82539683 727 1307.41269841 727 c 128,-1,128
 1386 727 1386 727 1427.5 681.5 c 128,-1,129
 1469 636 1469 636 1469 558.5 c 128,-1,130
 1469 481 1469 481 1443.5 412 c 128,-1,131
 1418 343 1418 343 1375 281 c 128,-1,132
 1332 219 1332 219 1275 167 c 128,-1,133
 1218 115 1218 115 1155.5 76.5 c 0,134,135
 1023.19480519 -5 1023.19480519 -5 904 -5 c 0,0,1
EndSplineSet
EndChar

StartChar: Y
Encoding: 89 89 55
Width: 1174
Flags: HW
LayerCount: 2
Fore
SplineSet
377 437 m 0,0,1
 377 370 377 370 440 370 c 0,2,3
 565.663967611 370 565.663967611 370 907.5 693.5 c 0,4,5
 1038 817 1038 817 1150.5 941 c 128,-1,6
 1263 1065 1263 1065 1312.5 1107.5 c 128,-1,7
 1362 1150 1362 1150 1404.5 1178 c 0,8,9
 1489.5 1234 1489.5 1234 1520.75 1234 c 128,-1,10
 1552 1234 1552 1234 1552 1222 c 128,-1,11
 1552 1210 1552 1210 1534 1204 c 0,12,13
 1406 1162 1406 1162 1270 999 c 128,-1,14
 1134 836 1134 836 1004 595.5 c 128,-1,15
 874 355 874 355 752.5 206.5 c 128,-1,16
 631 58 631 58 503 -46.5 c 0,17,18
 237.813397129 -263 237.813397129 -263 7 -263 c 0,19,20
 -108.066666667 -263 -108.066666667 -263 -183.5 -216.5 c 0,21,22
 -262 -168.109589041 -262 -168.109589041 -262 -88 c 0,23,24
 -262 -23.875 -262 -23.875 -202 0.5 c 0,25,26
 -186 7 -186 7 -170 7 c 256,27,28
 -154 7 -154 7 -136 -4.5 c 128,-1,29
 -118 -16 -118 -16 -118 -38.5 c 128,-1,30
 -118 -61 -118 -61 -136 -77 c 128,-1,31
 -154 -93 -154 -93 -178 -93 c 128,-1,32
 -202 -93 -202 -93 -214 -87 c 1,33,34
 -217 -96 -217 -96 -217 -113 c 128,-1,35
 -217 -130 -217 -130 -199.5 -153.5 c 128,-1,36
 -182 -177 -182 -177 -151.5 -194 c 0,37,38
 -85.1176470588 -231 -85.1176470588 -231 -3.05882352941 -231 c 128,-1,39
 79 -231 79 -231 162 -194.5 c 128,-1,40
 245 -158 245 -158 336 -86.5 c 0,41,42
 528.896907216 65.0618556701 528.896907216 65.0618556701 714 332 c 1,43,44
 893.52 595.84 893.52 595.84 990 724 c 1,45,46
 613.603448276 341 613.603448276 341 437 341 c 0,47,48
 358.789473684 341 358.789473684 341 337 410 c 0,49,50
 331 429 331 429 331 461.5 c 128,-1,51
 331 494 331 494 355.5 555.5 c 128,-1,52
 380 617 380 617 422.5 685 c 0,53,54
 509.894736842 824.831578947 509.894736842 824.831578947 615.947368421 930.915789474 c 128,-1,55
 722 1037 722 1037 768 1085.5 c 128,-1,56
 814 1134 814 1134 838 1164.5 c 0,57,58
 876 1212.79166667 876 1212.79166667 876 1242 c 0,59,60
 876 1345 876 1345 687 1345 c 0,61,62
 542.2 1345 542.2 1345 375 1257 c 0,63,64
 219.784349409 1175.30755232 219.784349409 1175.30755232 113.5 1058.5 c 0,65,66
 4 938.158415842 4 938.158415842 4 846 c 0,67,68
 4 766 4 766 91 766 c 0,69,70
 182.252631579 766 182.252631579 766 312.5 875.5 c 0,71,72
 413.611485701 960.505231342 413.611485701 960.505231342 484.30574285 1052.75261567 c 0,73,74
 600.662061637 1204.58342189 600.662061637 1204.58342189 613 1249 c 1,75,76
 619.818181818 1264 619.818181818 1264 626 1264 c 0,77,78
 639 1264 639 1264 639 1227.5 c 128,-1,79
 639 1191 639 1191 612 1134 c 128,-1,80
 585 1077 585 1077 540 1019.5 c 128,-1,81
 495 962 495 962 437.5 907.5 c 128,-1,82
 380 853 380 853 319 811 c 0,83,84
 183.928571429 718 183.928571429 718 88 718 c 0,85,86
 28 718 28 718 -1.5 750.5 c 128,-1,87
 -31 783 -31 783 -31 837.5 c 128,-1,88
 -31 892 -31 892 -0.5 953.5 c 128,-1,89
 30 1015 30 1015 83 1075 c 128,-1,90
 136 1135 136 1135 206.5 1190 c 128,-1,91
 277 1245 277 1245 356.5 1287 c 0,92,93
 530.642857143 1379 530.642857143 1379 687 1379 c 0,94,95
 857.785714286 1379 857.785714286 1379 913.5 1299 c 0,96,97
 933 1271 933 1271 933 1231 c 0,98,99
 933 1065.75471698 933 1065.75471698 635 779 c 0,100,101
 377 529.896551724 377 529.896551724 377 437 c 0,0,1
EndSplineSet
EndChar

StartChar: Z
Encoding: 90 90 56
Width: 1595
Flags: HW
LayerCount: 2
Fore
SplineSet
490 87 m 1,0,1
 327.083333333 -5 327.083333333 -5 195.541666667 -5 c 128,-1,2
 64 -5 64 -5 10.5 23 c 128,-1,3
 -43 51 -43 51 -42.5 81 c 128,-1,4
 -42 111 -42 111 -25 130 c 128,-1,5
 -8 149 -8 149 24 164 c 0,6,7
 94.4 197 94.4 197 205.876470588 197 c 128,-1,8
 317.352941176 197 317.352941176 197 475 157 c 1,9,10
 621.895971137 282.195429946 621.895971137 282.195429946 864 610 c 0,11,12
 1172.65682657 1026.44175013 1172.65682657 1026.44175013 1496 1264 c 1,13,14
 1371.82608696 1208 1371.82608696 1208 1283.91304348 1208 c 128,-1,15
 1196 1208 1196 1208 1138 1221 c 128,-1,16
 1080 1234 1080 1234 1025.5 1250 c 0,17,18
 882.4375 1292 882.4375 1292 796.71875 1292 c 128,-1,19
 711 1292 711 1292 645.5 1264.5 c 128,-1,20
 580 1237 580 1237 524.5 1190.5 c 0,21,22
 397.722408027 1084.28093645 397.722408027 1084.28093645 390 953 c 1,23,24
 390 909.333333333 390 909.333333333 411 883.666666667 c 0,25,26
 449.181818182 837 449.181818182 837 492.590909091 837 c 128,-1,27
 536 837 536 837 575.5 857 c 128,-1,28
 615 877 615 877 650 908.5 c 128,-1,29
 685 940 685 940 715.5 980 c 128,-1,30
 746 1020 746 1020 769 1061 c 0,31,32
 816.509846827 1145.69146608 816.509846827 1145.69146608 825 1203 c 0,33,34
 828 1220 828 1220 837 1220 c 128,-1,35
 846 1220 846 1220 853.5 1198.5 c 128,-1,36
 861 1177 861 1177 861 1129.5 c 128,-1,37
 861 1082 861 1082 829.5 1019.5 c 128,-1,38
 798 957 798 957 747.5 910 c 0,39,40
 637.904255319 808 637.904255319 808 505 808 c 0,41,42
 438.386363636 808 438.386363636 808 395.5 859 c 0,43,44
 359 902.405405405 359 902.405405405 360.5 954.202702703 c 128,-1,45
 362 1006 362 1006 381.5 1057 c 128,-1,46
 401 1108 401 1108 434.5 1155.5 c 128,-1,47
 468 1203 468 1203 514 1243.5 c 128,-1,48
 560 1284 560 1284 615.5 1314.5 c 0,49,50
 732.868852459 1379 732.868852459 1379 868 1379 c 0,51,52
 1014 1379 1014 1379 1161 1330 c 128,-1,53
 1308 1281 1308 1281 1412 1281 c 0,54,55
 1524 1281 1524 1281 1626 1366 c 1,56,57
 1648.61538462 1387 1648.61538462 1387 1665.80769231 1387 c 128,-1,58
 1683 1387 1683 1387 1683 1374 c 0,59,60
 1683 1359.27777778 1683 1359.27777778 1661.5 1346.13888889 c 128,-1,61
 1640 1333 1640 1333 1633 1329 c 1,62,-1
 1634 1330 l 1,63,-1
 1599 1309 l 1,64,65
 1488.00635007 1230.00837055 1488.00635007 1230.00837055 1268 940 c 0,66,67
 1202 853 1202 853 1144 766 c 0,68,69
 850.417976368 324.667546174 850.417976368 324.667546174 565 133 c 1,70,-1
 619 118 l 1,71,72
 872.980707395 44.7363344051 872.980707395 44.7363344051 997 48 c 1,73,74
 1267.93333333 48 1267.93333333 48 1353 180 c 0,75,76
 1382 225 1382 225 1382 267 c 128,-1,77
 1382 309 1382 309 1375.5 330.5 c 128,-1,78
 1369 352 1369 352 1355.5 371 c 0,79,80
 1325.91489362 412.638297872 1325.91489362 412.638297872 1271 424 c 1,81,82
 1267 395 1267 395 1244.5 381 c 128,-1,83
 1222 367 1222 367 1199.5 367 c 128,-1,84
 1177 367 1177 367 1158.5 378.5 c 128,-1,85
 1140 390 1140 390 1140 408.5 c 128,-1,86
 1140 427 1140 427 1149 437.5 c 128,-1,87
 1158 448 1158 448 1170.5 454.5 c 0,88,89
 1194.53846154 467 1194.53846154 467 1227.76923077 467 c 128,-1,90
 1261 467 1261 467 1297.5 453.5 c 128,-1,91
 1334 440 1334 440 1360.5 416 c 0,92,93
 1416 365.735849057 1416 365.735849057 1416 286.867924528 c 128,-1,94
 1416 208 1416 208 1382.5 145.5 c 128,-1,95
 1349 83 1349 83 1291.5 39.5 c 0,96,97
 1174.51724138 -49 1174.51724138 -49 989 -49 c 0,98,99
 853.105263158 -49 853.105263158 -49 671.5 18 c 0,100,101
 620 37 620 37 569 57 c 2,102,-1
 490 87 l 1,0,1
418 112 m 1,103,104
 283 157 283 157 184 157 c 0,105,106
 62 157 62 157 12 119.5 c 0,107,108
 -21.4093959732 94.4429530201 -21.4093959732 94.4429530201 2.5 65.5 c 0,109,110
 36.7826086957 24 36.7826086957 24 178 24 c 0,111,112
 294.8 24 294.8 24 418 112 c 1,103,104
EndSplineSet
EndChar

StartChar: ampersand
Encoding: 38 38 57
Width: 1427
Flags: HW
LayerCount: 2
Fore
SplineSet
465 15 m 1,0,1
 420 21 420 21 386.5 21 c 128,-1,2
 353 21 353 21 298 15 c 1,3,4
 370.991735537 135.595041322 370.991735537 135.595041322 382 157 c 1,5,6
 306 219 306 219 259.5 309 c 128,-1,7
 213 399 213 399 213 480 c 128,-1,8
 213 561 213 561 227.5 609 c 128,-1,9
 242 657 242 657 268 692.5 c 0,10,11
 323.295774648 768 323.295774648 768 404 768 c 0,12,13
 467.666666667 768 467.666666667 768 513.5 713 c 0,14,15
 563 653.6 563 653.6 563 554 c 0,16,17
 563 445.380952381 563 445.380952381 475 261 c 1,18,19
 702.444444444 603.444444444 702.444444444 603.444444444 943.5 844.5 c 0,20,21
 1071 972 1071 972 1084 978.5 c 128,-1,22
 1097 985 1097 985 1101 985 c 0,23,24
 1116 985 1116 985 1116 975.5 c 0,25,26
 1116 965 1116 965 1088 937 c 1,27,-1
 1084 934 l 1,28,29
 847.401848531 703.71113257 847.401848531 703.71113257 638.5 353 c 0,30,31
 570 238 570 238 512 119 c 1,32,33
 570 95 570 95 631.5 95 c 128,-1,34
 693 95 693 95 747.5 114.5 c 128,-1,35
 802 134 802 134 845.5 168 c 0,36,37
 942 243.425287356 942 243.425287356 942 347 c 0,38,39
 942 355.2 942 355.2 928 363.6 c 0,40,41
 901 379.8 901 379.8 901 396 c 256,42,43
 901 408 901 408 910 418.5 c 128,-1,44
 919 429 919 429 934 429 c 0,45,46
 983 429 983 429 983 364 c 128,-1,47
 983 299 983 299 954 244.5 c 128,-1,48
 925 190 925 190 876 149.5 c 0,49,50
 770.135802469 62 770.135802469 62 633 62 c 256,51,52
 565 62 565 62 498 88 c 1,53,54
 493 78 493 78 465 15 c 1,0,1
400 190 m 1,55,56
 528 432.424242424 528 432.424242424 528 564 c 0,57,58
 528 672.95 528 672.95 457 712 c 0,59,60
 437 723 437 723 413 723 c 128,-1,61
 389 723 389 723 364 704.5 c 128,-1,62
 339 686 339 686 319 655.5 c 0,63,64
 275 588.4 275 588.4 275 497.2 c 0,65,66
 275 308.75 275 308.75 400 190 c 1,55,56
EndSplineSet
EndChar

StartChar: zero
Encoding: 48 48 58
Width: 1251
Flags: HW
LayerCount: 2
Fore
SplineSet
172 305 m 0,0,1
 172 563.946902655 172 563.946902655 355.5 853 c 0,2,3
 468.797891037 1031.46924429 468.797891037 1031.46924429 619.5 1167 c 0,4,5
 770.815485089 1303.08238256 770.815485089 1303.08238256 928 1358.5 c 0,6,7
 1006 1386 1006 1386 1073 1386 c 128,-1,8
 1140 1386 1140 1386 1183.5 1362.5 c 128,-1,9
 1227 1339 1227 1339 1255 1296.5 c 0,10,11
 1310 1213.01785714 1310 1213.01785714 1310 1080.50892857 c 128,-1,12
 1310 948 1310 948 1272 823.5 c 128,-1,13
 1234 699 1234 699 1168 579.5 c 128,-1,14
 1102 460 1102 460 1013 353.5 c 128,-1,15
 924 247 924 247 822.5 167 c 0,16,17
 601.7375 -7 601.7375 -7 397 -7 c 0,18,19
 288 -7 288 -7 230 74.5 c 128,-1,20
 172 156 172 156 172 305 c 0,0,1
285 221 m 0,21,22
 285 24 285 24 421 24 c 0,23,24
 520.123595506 24 520.123595506 24 663 117.5 c 0,25,26
 800.742815933 207.64051925 800.742815933 207.64051925 935.5 364 c 0,27,28
 1155.12948154 618.837261028 1155.12948154 618.837261028 1225.5 907.5 c 0,29,30
 1250 1008 1250 1008 1250 1094 c 128,-1,31
 1250 1180 1250 1180 1237.5 1227.5 c 128,-1,32
 1225 1275 1225 1275 1203 1304 c 0,33,34
 1162.79310345 1357 1162.79310345 1357 1095.39655172 1357 c 128,-1,35
 1028 1357 1028 1357 966 1323.5 c 128,-1,36
 904 1290 904 1290 838 1231.5 c 128,-1,37
 772 1173 772 1173 705.5 1094.5 c 128,-1,38
 639 1016 639 1016 577.5 927 c 128,-1,39
 516 838 516 838 462.5 742.5 c 128,-1,40
 409 647 409 647 369.5 554 c 0,41,42
 285 355.050632911 285 355.050632911 285 221 c 0,21,22
EndSplineSet
EndChar

StartChar: one
Encoding: 49 49 59
Width: 971
Flags: HW
LayerCount: 2
Fore
SplineSet
374 15 m 1,0,-1
 262 21 l 1,1,2
 200.571428571 21 200.571428571 21 162 6 c 1,3,4
 352.838095238 276.723809524 352.838095238 276.723809524 490.919047619 488.361904762 c 128,-1,5
 629 700 629 700 680 778 c 128,-1,6
 731 856 731 856 776 926 c 1,7,8
 552.422002725 693.183242507 552.422002725 693.183242507 386 571 c 1,9,-1
 363 553 l 1,10,11
 321 525 321 525 296.5 525 c 128,-1,12
 272 525 272 525 272 548 c 0,13,14
 272 568.4 272 568.4 308 581 c 1,15,-1
 334.5 593 l 2,16,17
 343 597 343 597 354 603 c 1,18,-1
 353 603 l 1,19,20
 481.314396385 680.766300839 481.314396385 680.766300839 741.5 950.5 c 0,21,22
 995.412116679 1213.72999252 995.412116679 1213.72999252 1078 1350 c 0,23,24
 1106.07692308 1394.92307692 1106.07692308 1394.92307692 1114.03846154 1398.46153846 c 128,-1,25
 1122 1402 1122 1402 1127 1402 c 0,26,27
 1144 1402 1144 1402 1144 1385 c 0,28,29
 1144 1367.4 1144 1367.4 1111 1324.7 c 128,-1,30
 1078 1282 1078 1282 1032 1208.5 c 128,-1,31
 986 1135 986 1135 927 1035.5 c 128,-1,32
 868 936 868 936 800 814.5 c 128,-1,33
 732 693 732 693 660 560 c 0,34,35
 494.911242604 255.044378698 494.911242604 255.044378698 374 15 c 1,0,-1
EndSplineSet
EndChar

StartChar: two
Encoding: 50 50 60
Width: 1419
Flags: HW
LayerCount: 2
Fore
SplineSet
53 -33 m 2,0,1
 45.8 -60 45.8 -60 20 -60 c 0,2,3
 8 -60 8 -60 8 -31.5 c 128,-1,4
 8 -3 8 -3 38 42.5 c 128,-1,5
 68 88 68 88 133.5 144 c 0,6,7
 275.064516129 265.032258065 275.064516129 265.032258065 555 405 c 1,8,9
 867.761732082 564.294795222 867.761732082 564.294795222 1043 778 c 0,10,11
 1208 979.219512195 1208 979.219512195 1208 1165 c 0,12,13
 1208 1321.38181818 1208 1321.38181818 1123.5 1347.5 c 0,14,15
 1096 1356 1096 1356 1044 1356 c 128,-1,16
 992 1356 992 1356 922 1324 c 128,-1,17
 852 1292 852 1292 787.5 1240.5 c 128,-1,18
 723 1189 723 1189 666.5 1124 c 128,-1,19
 610 1059 610 1059 567.5 993.5 c 0,20,21
 477 854.023529412 477 854.023529412 477 765 c 0,22,23
 477 726 477 726 500 699.5 c 128,-1,24
 523 673 523 673 564 673 c 128,-1,25
 605 673 605 673 646 689 c 128,-1,26
 687 705 687 705 728.5 734.5 c 0,27,28
 816.323800738 796.92896679 816.323800738 796.92896679 885 897 c 1,29,-1
 884 897 l 1,30,31
 894.857142857 916 894.857142857 916 907.928571429 916 c 128,-1,32
 921 916 921 916 921 906 c 128,-1,33
 921 896 921 896 906 872.5 c 128,-1,34
 891 849 891 849 865 820 c 128,-1,35
 839 791 839 791 804.5 759 c 128,-1,36
 770 727 770 727 730.5 701 c 0,37,38
 639.346153846 641 639.346153846 641 576.173076923 641 c 128,-1,39
 513 641 513 641 480 656.5 c 128,-1,40
 447 672 447 672 429 695.5 c 0,41,42
 400 733.361111111 400 733.361111111 400 794.680555556 c 128,-1,43
 400 856 400 856 426 924 c 128,-1,44
 452 992 452 992 497.5 1058 c 128,-1,45
 543 1124 543 1124 606 1183.5 c 128,-1,46
 669 1243 669 1243 743 1288.5 c 0,47,48
 904.824175824 1388 904.824175824 1388 1066 1388 c 0,49,50
 1200.30136986 1388 1200.30136986 1388 1274.5 1309.5 c 0,51,52
 1343 1237.02898551 1343 1237.02898551 1343 1129.01449275 c 128,-1,53
 1343 1021 1343 1021 1293.5 922.5 c 128,-1,54
 1244 824 1244 824 1152.5 729.5 c 0,55,56
 961.64978903 532.392405063 961.64978903 532.392405063 643 389 c 0,57,58
 335.307692308 250.538461538 335.307692308 250.538461538 274.153846154 209.769230769 c 128,-1,59
 213 169 213 169 176 136 c 1,60,61
 329.538271605 216.95654321 329.538271605 216.95654321 457.5 229 c 0,62,63
 500 233 500 233 558 233 c 0,64,65
 675 233 675 233 783 165 c 1,66,67
 869.896551724 109 869.896551724 109 916.948275862 109 c 128,-1,68
 964 109 964 109 998.5 120.5 c 128,-1,69
 1033 132 1033 132 1063 155 c 0,70,71
 1128.82089552 205.462686567 1128.82089552 205.462686567 1157 290 c 0,72,73
 1160 297 1160 297 1161 305 c 128,-1,74
 1162 313 1162 313 1163 319 c 0,75,76
 1165.33333333 333 1165.33333333 333 1174 333 c 0,77,78
 1191 333 1191 333 1191 309.5 c 128,-1,79
 1191 286 1191 286 1181.5 260.5 c 128,-1,80
 1172 235 1172 235 1156.5 207.5 c 0,81,82
 1036.72727273 -5 1036.72727273 -5 832 -5 c 0,83,84
 738.5 -5 738.5 -5 646 69 c 0,85,86
 530.066666667 163 530.066666667 163 404 163 c 0,87,88
 312.557692308 163 312.557692308 163 202.5 104 c 0,89,90
 97.6386182462 47.7856510186 97.6386182462 47.7856510186 56 -23 c 1,91,-1
 53 -33 l 2,0,1
EndSplineSet
EndChar

StartChar: three
Encoding: 51 51 61
Width: 1315
Flags: HW
LayerCount: 2
Fore
SplineSet
846 640 m 1,0,1
 866 642 866 642 898 642 c 128,-1,2
 930 642 930 642 969 628 c 128,-1,3
 1008 614 1008 614 1036.5 587 c 0,4,5
 1096 530.631578947 1096 530.631578947 1096 428 c 0,6,7
 1096 300.928571429 1096 300.928571429 978 145 c 0,8,9
 857.911111111 -13.6888888889 857.911111111 -13.6888888889 672 -119.5 c 0,10,11
 465.551401869 -237 465.551401869 -237 253 -237 c 0,12,13
 118.454545455 -237 118.454545455 -237 3 -173.5 c 0,14,15
 -106 -113.55 -106 -113.55 -106 -48 c 0,16,17
 -106 -18 -106 -18 -88 1.5 c 128,-1,18
 -70 21 -70 21 -41.5 21 c 128,-1,19
 -13 21 -13 21 4.5 1.5 c 128,-1,20
 22 -18 22 -18 22 -48 c 128,-1,21
 22 -78 22 -78 16 -104 c 1,22,23
 57.2857142857 -174.775510204 57.2857142857 -174.775510204 182 -201.5 c 0,24,25
 217 -209 217 -209 276.5 -209 c 128,-1,26
 336 -209 336 -209 421.5 -181 c 128,-1,27
 507 -153 507 -153 584 -104 c 128,-1,28
 661 -55 661 -55 727.5 12.5 c 128,-1,29
 794 80 794 80 842 159.5 c 0,30,31
 945 330.09375 945 330.09375 945 506 c 0,32,33
 945 551 945 551 919 574 c 128,-1,34
 893 597 893 597 851 597 c 256,35,36
 717.928571429 597 717.928571429 597 605 504 c 0,37,38
 571 476 571 476 549 443 c 1,39,-1
 550 443 l 1,40,41
 541 428 541 428 537 417.5 c 128,-1,42
 533 407 533 407 529.5 399.5 c 0,43,44
 522.733333333 385 522.733333333 385 504.366666667 385 c 128,-1,45
 486 385 486 385 486 410.5 c 128,-1,46
 486 436 486 436 509.5 465.5 c 128,-1,47
 533 495 533 495 574.5 525.5 c 0,48,49
 645.263241107 577.506719368 645.263241107 577.506719368 774.131620553 642.753359684 c 128,-1,50
 903 708 903 708 975 772.5 c 128,-1,51
 1047 837 1047 837 1091 906.5 c 0,52,53
 1172 1034.44318182 1172 1034.44318182 1172 1182 c 0,54,55
 1172 1320.53448276 1172 1320.53448276 1080 1347.5 c 0,56,57
 1051 1356 1051 1356 1004.5 1356 c 128,-1,58
 958 1356 958 1356 896.5 1327.5 c 128,-1,59
 835 1299 835 1299 776 1251.5 c 128,-1,60
 717 1204 717 1204 663.5 1143.5 c 128,-1,61
 610 1083 610 1083 570 1019.5 c 0,62,63
 482 879.8 482 879.8 482 790.4 c 128,-1,64
 482 701 482 701 551 701 c 0,65,66
 618.4 701 618.4 701 707.5 772.5 c 0,67,68
 836.685468808 876.167351513 836.685468808 876.167351513 903.5 1037.5 c 0,69,70
 924 1087 924 1087 927.5 1116 c 128,-1,71
 931 1145 931 1145 933 1149.5 c 128,-1,72
 935 1154 935 1154 945.5 1154 c 128,-1,73
 956 1154 956 1154 956 1114.5 c 128,-1,74
 956 1075 956 1075 935.5 1019.5 c 128,-1,75
 915 964 915 964 881.5 913 c 128,-1,76
 848 862 848 862 804.5 817 c 128,-1,77
 761 772 761 772 715 739 c 0,78,79
 616.03030303 668 616.03030303 668 547.515151515 668 c 128,-1,80
 479 668 479 668 437.5 706.5 c 128,-1,81
 396 745 396 745 396 811.5 c 128,-1,82
 396 878 396 878 422.5 942 c 128,-1,83
 449 1006 449 1006 494.5 1069 c 128,-1,84
 540 1132 540 1132 601 1189.5 c 128,-1,85
 662 1247 662 1247 731 1291.5 c 0,86,87
 880.629213483 1388 880.629213483 1388 1017 1388 c 0,88,89
 1309 1388 1309 1388 1309 1139 c 0,90,91
 1309 1024 1309 1024 1193 888 c 0,92,93
 1063.8897573 736.629370629 1063.8897573 736.629370629 846 640 c 1,0,1
EndSplineSet
EndChar

StartChar: four
Encoding: 52 52 62
Width: 1548
Flags: HW
LayerCount: 2
Fore
SplineSet
1011 444 m 1,0,1
 775.505154639 124.082474227 775.505154639 124.082474227 663 -117 c 1,2,-1
 524 -44 l 1,3,4
 686.328205128 213.815384615 686.328205128 213.815384615 902 468 c 1,5,6
 832 486.666666667 832 486.666666667 757 510 c 1,7,-1
 536 582 l 1,8,9
 379.8125 480 379.8125 480 236 480 c 0,10,11
 164 480 164 480 120 500 c 128,-1,12
 76 520 76 520 76 549.5 c 128,-1,13
 76 579 76 579 97.5 598 c 128,-1,14
 119 617 119 617 153.5 628.5 c 0,15,16
 218 650 218 650 315 650 c 256,17,18
 396.818181818 650 396.818181818 650 495 630 c 1,19,20
 690.957950066 802.904073587 690.957950066 802.904073587 929 1119.5 c 0,21,22
 1030.33531157 1254.27596439 1030.33531157 1254.27596439 1098 1365 c 1,23,-1
 1208 1379 l 2,24,25
 1304.2 1392 1304.2 1392 1343.1 1392 c 128,-1,26
 1382 1392 1382 1392 1382 1378 c 0,27,28
 1382 1367.31034483 1382 1367.31034483 1350.5 1355.15517241 c 128,-1,29
 1319 1343 1319 1343 1302.5 1333 c 128,-1,30
 1286 1323 1286 1323 1268.5 1308.5 c 128,-1,31
 1251 1294 1251 1294 1231.5 1274.5 c 2,32,-1
 1172 1215 l 2,33,34
 1156 1199 1156 1199 1121.5 1160 c 128,-1,35
 1087 1121 1087 1121 1040 1069 c 128,-1,36
 993 1017 993 1017 937.5 956.5 c 128,-1,37
 882 896 882 896 824.5 836.5 c 0,38,39
 694.719167905 702.205052006 694.719167905 702.205052006 604 630 c 1,40,-1
 579 611 l 1,41,42
 621 600 621 600 672.5 586 c 128,-1,43
 724 572 724 572 788 555 c 2,44,-1
 940 513 l 1,45,46
 1256.46866485 885.316076294 1256.46866485 885.316076294 1417.5 974 c 0,47,48
 1452 993 1452 993 1470 993 c 128,-1,49
 1488 993 1488 993 1488 981 c 0,50,51
 1488 971.8125 1488 971.8125 1465 956 c 1,52,-1
 1465 957 l 1,53,54
 1315.44086022 854.44516129 1315.44086022 854.44516129 1044 488 c 1,55,56
 1115.5 475 1115.5 475 1179.75 475 c 128,-1,57
 1244 475 1244 475 1313 490.5 c 128,-1,58
 1382 506 1382 506 1416.5 524.5 c 128,-1,59
 1451 543 1451 543 1466 556.5 c 128,-1,60
 1481 570 1481 570 1489.5 570 c 0,61,62
 1505 570 1505 570 1505 561 c 128,-1,63
 1505 552 1505 552 1476 528 c 1,64,65
 1424.03896104 476.038961039 1424.03896104 476.038961039 1295 450.5 c 0,66,67
 1216.68421053 435 1216.68421053 435 1142.64210526 435 c 128,-1,68
 1068.6 435 1068.6 435 1011 444 c 1,0,1
145 548 m 0,69,70
 145 510 145 510 247 510 c 0,71,72
 349.965517241 510 349.965517241 510 461 602 c 1,73,74
 373.125 621 373.125 621 301.0625 621 c 128,-1,75
 229 621 229 621 187 600 c 128,-1,76
 145 579 145 579 145 548 c 0,69,70
EndSplineSet
EndChar

StartChar: five
Encoding: 53 53 63
Width: 1210
Flags: HW
LayerCount: 2
Fore
SplineSet
-295 -159 m 0,0,1
 -295 -129 -295 -129 -265 -129 c 0,2,3
 -243.769230769 -129 -243.769230769 -129 -233 -157 c 0,4,5
 -189.842105263 -280 -189.842105263 -280 46 -280 c 0,6,7
 245.818181818 -280 245.818181818 -280 440 -136 c 0,8,9
 616.016713092 -5.47075208914 616.016713092 -5.47075208914 732 197.5 c 0,10,11
 846 397 846 397 846 571 c 0,12,13
 846 732.513513514 846 732.513513514 730 767 c 0,14,15
 693 778 693 778 644.5 778 c 128,-1,16
 596 778 596 778 543 760.5 c 128,-1,17
 490 743 490 743 441.5 713 c 0,18,19
 339.067844239 649.639903653 339.067844239 649.639903653 282 562 c 0,20,21
 266.571428571 538 266.571428571 538 251.785714286 538 c 128,-1,22
 237 538 237 538 237 548.5 c 128,-1,23
 237 559 237 559 249.5 579.5 c 128,-1,24
 262 600 262 600 282.5 624.5 c 0,25,26
 330.155844156 681.454545455 330.155844156 681.454545455 381 721 c 1,27,28
 605.531791908 1106.73410405 605.531791908 1106.73410405 732 1375 c 1,29,-1
 820 1378 l 1,30,31
 814.945454545 1360.30909091 814.945454545 1360.30909091 776 1287 c 1,32,33
 890.173913043 1388 890.173913043 1388 1007 1388 c 0,34,35
 1051.4 1388 1051.4 1388 1098.2 1374.5 c 0,36,37
 1186.6 1349 1186.6 1349 1210.3 1349 c 128,-1,38
 1234 1349 1234 1349 1256.5 1352.5 c 128,-1,39
 1279 1356 1279 1356 1301 1366 c 0,40,41
 1346.74766355 1386.79439252 1346.74766355 1386.79439252 1386 1441 c 0,42,43
 1389 1445 1389 1445 1391.5 1451 c 128,-1,44
 1394 1457 1394 1457 1397 1463 c 0,45,46
 1404 1477 1404 1477 1415.5 1477 c 128,-1,47
 1427 1477 1427 1477 1427 1464 c 0,48,49
 1427 1458 1427 1458 1412 1425.5 c 128,-1,50
 1397 1393 1397 1393 1363.5 1355 c 128,-1,51
 1330 1317 1330 1317 1287 1289 c 0,52,53
 1196.39285714 1230 1196.39285714 1230 1079 1230 c 0,54,55
 1039.8 1230 1039.8 1230 989.4 1243.5 c 0,56,57
 894.2 1269 894.2 1269 865.6 1269 c 128,-1,58
 837 1269 837 1269 799 1252.5 c 128,-1,59
 761 1236 761 1236 735 1208 c 1,60,61
 677.333333333 1092.66666667 677.333333333 1092.66666667 494 781 c 1,62,63
 575.7 824 575.7 824 672 824 c 0,64,65
 820 824 820 824 903 745.5 c 128,-1,66
 986 667 986 667 986 518 c 0,67,68
 986 324.916030534 986 324.916030534 845.5 126.5 c 0,69,70
 709.873709801 -65.033310586 709.873709801 -65.033310586 494.5 -186.5 c 0,71,72
 268.428571429 -314 268.428571429 -314 40 -314 c 0,73,74
 -107.372093023 -314 -107.372093023 -314 -205.5 -265.5 c 0,75,76
 -295 -221.264367816 -295 -221.264367816 -295 -159 c 0,0,1
EndSplineSet
EndChar

StartChar: six
Encoding: 54 54 64
Width: 1374
Flags: HW
LayerCount: 2
Fore
SplineSet
501 -7 m 0,0,1
 253 -7 253 -7 253 335 c 1,2,3
 258.973684211 570.960526316 258.973684211 570.960526316 447 853 c 0,4,5
 563.766169154 1028.14925373 563.766169154 1028.14925373 723.5 1165.5 c 0,6,7
 982.259259259 1388 982.259259259 1388 1224 1388 c 0,8,9
 1327.9 1388 1327.9 1388 1390 1342 c 0,10,11
 1443 1302.74074074 1443 1302.74074074 1443 1252 c 0,12,13
 1443 1198 1443 1198 1421 1170.5 c 0,14,15
 1383.8 1124 1383.8 1124 1345.9 1124 c 128,-1,16
 1308 1124 1308 1124 1290.5 1143.5 c 128,-1,17
 1273 1163 1273 1163 1273 1185 c 128,-1,18
 1273 1207 1273 1207 1285.5 1222.5 c 128,-1,19
 1298 1238 1298 1238 1313 1251 c 128,-1,20
 1328 1264 1328 1264 1340.5 1274.5 c 128,-1,21
 1353 1285 1353 1285 1353 1303 c 128,-1,22
 1353 1321 1353 1321 1321.5 1338.5 c 128,-1,23
 1290 1356 1290 1356 1218 1356 c 128,-1,24
 1146 1356 1146 1356 1064.5 1320.5 c 128,-1,25
 983 1285 983 1285 906.5 1224.5 c 128,-1,26
 830 1164 830 1164 761.5 1083 c 128,-1,27
 693 1002 693 1002 633.5 910 c 128,-1,28
 574 818 574 818 526.5 721 c 128,-1,29
 479 624 479 624 445 531 c 0,30,31
 375 339.529411765 375 339.529411765 375 207 c 0,32,33
 375 27 375 27 494 27 c 0,34,35
 681.197916667 27 681.197916667 27 915 362 c 1,36,37
 1025.48955916 522.999071926 1025.48955916 522.999071926 1063.5 672 c 0,38,39
 1076 721 1076 721 1077 763 c 1,40,41
 1077 873 1077 873 990 873 c 0,42,43
 937.963636364 873 937.963636364 873 875.481818182 829.5 c 128,-1,44
 813 786 813 786 773 748 c 128,-1,45
 733 710 733 710 699.5 666 c 0,46,47
 623.751592357 566.50955414 623.751592357 566.50955414 609 478 c 0,48,49
 603.882352941 449 603.882352941 449 590 449 c 128,-1,50
 576 449 576 449 576.5 486 c 128,-1,51
 577 523 577 523 594 574.5 c 128,-1,52
 611 626 611 626 640.5 673.5 c 128,-1,53
 670 721 670 721 710 763 c 128,-1,54
 750 805 750 805 797 836 c 0,55,56
 898.580645161 903 898.580645161 903 993.290322581 903 c 0,57,58
 1184 903 1184 903 1184 707 c 0,59,60
 1184 522.588785047 1184 522.588785047 1065.5 346.5 c 0,61,62
 962.396998151 193.290866411 962.396998151 193.290866411 795.5 90.5 c 0,63,64
 637.193548387 -7 637.193548387 -7 501 -7 c 0,0,1
EndSplineSet
EndChar

StartChar: seven
Encoding: 55 55 65
Width: 1165
Flags: HW
LayerCount: 2
Fore
SplineSet
678 -530 m 128,-1,1
 678 -538 678 -538 669 -538 c 0,2,3
 630.1125 -538 630.1125 -538 578.55625 -481.5 c 128,-1,4
 527 -425 527 -425 497 -368 c 0,5,6
 429 -238.8 429 -238.8 429 -97.4 c 128,-1,7
 429 44 429 44 475.5 187 c 128,-1,8
 522 330 522 330 611.5 484 c 0,9,10
 795.313452058 800.282364436 795.313452058 800.282364436 1132 1129 c 1,11,-1
 1151 1147 l 2,12,13
 1165 1160 1165 1160 1183.5 1177 c 128,-1,14
 1202 1194 1202 1194 1222 1213 c 1,15,16
 1137 1169 1137 1169 1071 1169 c 128,-1,17
 1005 1169 1005 1169 968.5 1186 c 128,-1,18
 932 1203 932 1203 895 1224 c 0,19,20
 798.095238095 1279 798.095238095 1279 731 1279 c 0,21,22
 611.454545455 1279 611.454545455 1279 538 1178 c 1,23,-1
 539 1178 l 1,24,25
 417.280802292 977.163323782 417.280802292 977.163323782 338 906.5 c 0,26,27
 315 886 315 886 302 886 c 128,-1,28
 289 886 289 886 289 898 c 1,29,30
 288 902 288 902 291 905 c 128,-1,31
 294 908 294 908 302 917 c 2,32,-1
 317 934 l 2,33,34
 430.629711752 1063.86252772 430.629711752 1063.86252772 494.5 1214.5 c 0,35,36
 521 1277 521 1277 527.5 1330 c 128,-1,37
 534 1383 534 1383 554.5 1383 c 128,-1,38
 575 1383 575 1383 575 1361 c 0,39,40
 575 1317.42857143 575 1317.42857143 559 1258 c 1,41,42
 671.272727273 1388 671.272727273 1388 832 1388 c 0,43,44
 918.5 1388 918.5 1388 995 1337 c 2,45,-1
 1046 1303 l 1,46,47
 1104.57142857 1262 1104.57142857 1262 1185 1262 c 0,48,49
 1240.86956522 1262 1240.86956522 1262 1270.43478261 1279 c 0,50,51
 1308.39779006 1300.82872928 1308.39779006 1300.82872928 1350.69889503 1339.91436464 c 128,-1,52
 1393 1379 1393 1379 1403.5 1381.5 c 128,-1,53
 1414 1384 1414 1384 1419 1384 c 0,54,55
 1443 1384 1443 1384 1443 1365 c 0,56,57
 1443 1352.5 1443 1352.5 1430 1342.75 c 2,58,-1
 1399 1319.5 l 2,59,60
 1305 1249 1305 1249 1156.5 1101.5 c 128,-1,61
 1008 954 1008 954 891.5 797.5 c 128,-1,62
 775 641 775 641 699 489.5 c 0,63,64
 549 190.486842105 549 190.486842105 549 -87 c 0,65,66
 549 -274 549 -274 609.5 -417 c 0,67,68
 633.424148607 -473.547987616 633.424148607 -473.547987616 655.712074303 -497.773993808 c 128,-1,0
 678 -522 678 -522 678 -530 c 128,-1,1
EndSplineSet
EndChar

StartChar: eight
Encoding: 56 56 66
Width: 1286
Flags: HW
LayerCount: 2
Fore
SplineSet
855 754 m 1,0,1
 1009 537.259259259 1009 537.259259259 1009 386 c 0,2,3
 1009 224.045454545 1009 224.045454545 862 106 c 0,4,5
 721.283018868 -7 721.283018868 -7 545 -7 c 0,6,7
 373.170731707 -7 373.170731707 -7 282 82 c 0,8,9
 201 161.071428571 201 161.071428571 201 296 c 0,10,11
 201 447 201 447 335.5 581.5 c 0,12,13
 462.213114754 708.213114754 462.213114754 708.213114754 660 779 c 1,14,15
 572 937.4 572 937.4 572 1040 c 0,16,17
 572 1169.63636364 572 1169.63636364 689 1276 c 0,18,19
 812.2 1388 812.2 1388 987 1388 c 0,20,21
 1119.91666667 1388 1119.91666667 1388 1192.5 1321 c 0,22,23
 1254 1264.23076923 1254 1264.23076923 1254 1183.61538462 c 128,-1,24
 1254 1103 1254 1103 1222.5 1038 c 128,-1,25
 1191 973 1191 973 1136.5 918 c 0,26,27
 1022.59806371 803.053091818 1022.59806371 803.053091818 855 754 c 1,0,1
836 783 m 1,28,29
 971.06185567 821.881443299 971.06185567 821.881443299 1073 935.5 c 0,30,31
 1179 1053.64583333 1179 1053.64583333 1179 1177 c 0,32,33
 1179 1297.39726027 1179 1297.39726027 1077.5 1340.5 c 0,34,35
 1041 1356 1041 1356 994.5 1356 c 128,-1,36
 948 1356 948 1356 899.5 1339 c 128,-1,37
 851 1322 851 1322 809.5 1288 c 0,38,39
 713 1208.93975904 713 1208.93975904 713 1089 c 0,40,41
 713 969.363636364 713 969.363636364 836 783 c 1,28,29
304 319 m 0,42,43
 304 249 304 249 323.5 193.5 c 128,-1,44
 343 138 343 138 378 100.5 c 0,45,46
 448.466666667 25 448.466666667 25 566 25 c 0,47,48
 677.353658537 25 677.353658537 25 766.5 111 c 0,49,50
 862 203.129411765 862 203.129411765 862 332 c 0,51,52
 862 401.074074074 862 401.074074074 843.5 449.037037037 c 0,53,54
 812.34375 529.8125 812.34375 529.8125 766.671875 602.40625 c 0,55,56
 702.600204948 704.245791246 702.600204948 704.245791246 679 746 c 1,57,58
 510.29707113 687.757322176 510.29707113 687.757322176 407.5 572.5 c 0,59,60
 304 456.454545455 304 456.454545455 304 319 c 0,42,43
EndSplineSet
EndChar

StartChar: nine
Encoding: 57 57 67
Width: 1337
Flags: HW
LayerCount: 2
Fore
SplineSet
1113 803 m 1,0,1
 895.939393939 556 895.939393939 556 707 556 c 128,-1,2
 517.958762887 556 517.958762887 556 459 706.5 c 0,3,4
 440 755 440 755 440 789 c 2,5,-1
 440 829.5 l 2,6,7
 440 836 440 836 442 841 c 1,8,9
 472.407385481 1051.82453933 472.407385481 1051.82453933 637 1217.5 c 0,10,11
 804.39869281 1386 804.39869281 1386 999 1386 c 0,12,13
 1223.70588235 1386 1223.70588235 1386 1284.5 1200.5 c 0,14,15
 1304 1141 1304 1141 1304 1052 c 128,-1,16
 1304 963 1304 963 1271.5 844.5 c 128,-1,17
 1239 726 1239 726 1180 607 c 128,-1,18
 1121 488 1121 488 1039.5 377.5 c 128,-1,19
 958 267 958 267 859.5 182 c 0,20,21
 642.8 -5 642.8 -5 420 -5 c 0,22,23
 296.611111111 -5 296.611111111 -5 215.5 55 c 0,24,25
 140 110.849315068 140 110.849315068 140 181 c 1,26,27
 142 219 142 219 165 243.5 c 128,-1,28
 188 268 188 268 215.5 268 c 128,-1,29
 243 268 243 268 255.5 262 c 128,-1,30
 268 256 268 256 276 247 c 0,31,32
 291 230.125 291 230.125 291 212.5625 c 0,33,34
 291 185.833333333 291 185.833333333 280.5 172.416666667 c 0,35,36
 264 151.333333333 264 151.333333333 264 131.166666667 c 128,-1,37
 264 111 264 111 277.5 93 c 128,-1,38
 291 75 291 75 313.5 60.5 c 0,39,40
 365.482758621 27 365.482758621 27 444.74137931 27 c 128,-1,41
 524 27 524 27 621.5 81.5 c 128,-1,42
 719 136 719 136 807.5 237 c 0,43,44
 990.67248749 446.044307756 990.67248749 446.044307756 1113 803 c 1,0,1
631.5 597 m 0,45,46
 662 585 662 585 710 585 c 128,-1,47
 758 585 758 585 814.5 610 c 128,-1,48
 871 635 871 635 924.5 677.5 c 128,-1,49
 978 720 978 720 1025.5 776.5 c 128,-1,50
 1073 833 1073 833 1109 896 c 0,51,52
 1187.08695652 1032.65217391 1187.08695652 1032.65217391 1191 1152 c 1,53,54
 1191 1265.19047619 1191 1265.19047619 1151 1309 c 0,55,56
 1112.65217391 1351 1112.65217391 1351 1039.32608696 1351 c 128,-1,57
 966 1351 966 1351 910.5 1321.5 c 128,-1,58
 855 1292 855 1292 802.5 1243 c 128,-1,59
 750 1194 750 1194 703.5 1130.5 c 128,-1,60
 657 1067 657 1067 621.5 999 c 0,61,62
 545.00859375 852.48125 545.00859375 852.48125 543 740 c 1,63,64
 543 631.819672131 543 631.819672131 631.5 597 c 0,45,46
EndSplineSet
EndChar

StartChar: period
Encoding: 46 46 68
Width: 713
Flags: HW
LayerCount: 2
Fore
SplineSet
95 16 m 128,-1,1
 74 37 74 37 74 64 c 128,-1,2
 74 91 74 91 83.5 111 c 128,-1,3
 93 131 93 131 109.5 146.5 c 0,4,5
 147.290322581 182 147.290322581 182 188.64516129 182 c 0,6,7
 268 182 268 182 268 106 c 0,8,9
 268 63.1470588235 268 63.1470588235 240.5 38.0735294118 c 0,10,11
 193.258064516 -5 193.258064516 -5 154.629032258 -5 c 128,-1,0
 116 -5 116 -5 95 16 c 128,-1,1
EndSplineSet
EndChar

StartChar: ellipsis
Encoding: 8230 8230 69
Width: 2140
Flags: HW
LayerCount: 2
Fore
SplineSet
1619 16 m 128,-1,1
 1598 37 1598 37 1598 64 c 128,-1,2
 1598 91 1598 91 1607.5 111 c 128,-1,3
 1617 131 1617 131 1633.5 146.5 c 0,4,5
 1671.29032258 182 1671.29032258 182 1712.64516129 182 c 128,-1,6
 1754 182 1754 182 1773.5 161 c 128,-1,7
 1793 140 1793 140 1793 112 c 128,-1,8
 1793 84 1793 84 1782 64 c 128,-1,9
 1771 44 1771 44 1754 28.5 c 0,10,11
 1717.25806452 -5 1717.25806452 -5 1678.62903226 -5 c 128,-1,0
 1640 -5 1640 -5 1619 16 c 128,-1,1
906 16 m 128,-1,13
 885 37 885 37 885 64 c 128,-1,14
 885 91 885 91 894.5 111 c 128,-1,15
 904 131 904 131 920.5 146.5 c 0,16,17
 958.290322581 182 958.290322581 182 999.14516129 182 c 128,-1,18
 1040 182 1040 182 1059.5 161 c 128,-1,19
 1079 140 1079 140 1079 112 c 128,-1,20
 1079 84 1079 84 1068.5 64 c 128,-1,21
 1058 44 1058 44 1041 28.5 c 0,22,23
 1004.25806452 -5 1004.25806452 -5 965.629032258 -5 c 128,-1,12
 927 -5 927 -5 906 16 c 128,-1,13
191 16 m 128,-1,25
 170 37 170 37 170 64 c 128,-1,26
 170 91 170 91 179.5 111 c 128,-1,27
 189 131 189 131 205.5 146.5 c 0,28,29
 243.290322581 182 243.290322581 182 284.64516129 182 c 128,-1,30
 326 182 326 182 346 161 c 128,-1,31
 366 140 366 140 366 112 c 128,-1,32
 366 84 366 84 355 64 c 128,-1,33
 344 44 344 44 327 28.5 c 0,34,35
 290.258064516 -5 290.258064516 -5 251.129032258 -5 c 128,-1,24
 212 -5 212 -5 191 16 c 128,-1,25
EndSplineSet
EndChar

StartChar: periodcentered
Encoding: 183 183 70
Width: 713
Flags: HW
LayerCount: 2
Fore
SplineSet
97.5 370 m 128,-1,1
 76 361 76 361 49 361 c 128,-1,2
 22 361 22 361 1 382 c 128,-1,3
 -20 403 -20 403 -20 430 c 128,-1,4
 -20 457 -20 457 -10.5 477 c 128,-1,5
 -1 497 -1 497 15.5 512.5 c 0,6,7
 53.2903225806 548 53.2903225806 548 94.6451612903 548 c 0,8,9
 174 548 174 548 174 472 c 0,10,11
 174 429.147058824 174 429.147058824 146.5 404.073529412 c 128,-1,0
 119 379 119 379 97.5 370 c 128,-1,1
EndSplineSet
EndChar

StartChar: bullet
Encoding: 8226 8226 71
Width: 713
Flags: HW
LayerCount: 2
Fore
SplineSet
390 318 m 128,-1,1
 360 305 360 305 322 305 c 128,-1,2
 284 305 284 305 255.5 335 c 128,-1,3
 227 365 227 365 227 402 c 128,-1,4
 227 439 227 439 240 467 c 128,-1,5
 253 495 253 495 276 516.5 c 0,6,7
 327.88372093 565 327.88372093 565 385.441860465 565 c 128,-1,8
 443 565 443 565 470 535.5 c 128,-1,9
 497 506 497 506 497 467 c 128,-1,10
 497 428 497 428 482.5 400.5 c 128,-1,11
 468 373 468 373 444 352 c 128,-1,0
 420 331 420 331 390 318 c 128,-1,1
EndSplineSet
EndChar

StartChar: comma
Encoding: 44 44 72
Width: 713
Flags: HW
LayerCount: 2
Fore
SplineSet
-39 -212 m 0,0,1
 -61 -212 -61 -212 -61 -197 c 256,2,3
 -61 -187 -61 -187 -37 -177.5 c 128,-1,4
 -13 -168 -13 -168 16 -148 c 128,-1,5
 45 -128 45 -128 69.5 -104.5 c 0,6,7
 126 -50.306122449 126 -50.306122449 126 -28.1530612245 c 0,8,9
 126 6.5 126 6.5 118.5 28.75 c 0,10,11
 107 62.8666666667 107 62.8666666667 107 82.9333333333 c 128,-1,12
 107 103 107 103 114 120 c 128,-1,13
 121 137 121 137 134 150.5 c 0,14,15
 164.333333333 182 164.333333333 182 205 182 c 0,16,17
 271 182 271 182 271 103 c 0,18,19
 271 -9.28260869565 271 -9.28260869565 106 -142 c 0,20,21
 49.2926829268 -187.365853659 49.2926829268 -187.365853659 8.64634146341 -199.682926829 c 128,-1,22
 -32 -212 -32 -212 -39 -212 c 0,0,1
EndSplineSet
EndChar

StartChar: colon
Encoding: 58 58 73
Width: 713
Flags: HW
LayerCount: 2
Fore
SplineSet
107.5 465 m 128,-1,1
 86 456 86 456 59 456 c 128,-1,2
 32 456 32 456 11 477 c 128,-1,3
 -10 498 -10 498 -10 525 c 128,-1,4
 -10 552 -10 552 -0.5 572 c 128,-1,5
 9 592 9 592 25.5 607.5 c 0,6,7
 63.2903225806 643 63.2903225806 643 104.64516129 643 c 0,8,9
 184 643 184 643 184 567 c 0,10,11
 184 524.147058824 184 524.147058824 156.5 499.073529412 c 128,-1,0
 129 474 129 474 107.5 465 c 128,-1,1
-46 185 m 128,-1,13
 -27 164 -27 164 -27 136 c 128,-1,14
 -27 108 -27 108 -37.5 88 c 128,-1,15
 -48 68 -48 68 -65 52.5 c 0,16,17
 -101.741935484 19 -101.741935484 19 -140.370967742 19 c 128,-1,18
 -179 19 -179 19 -200 40 c 128,-1,19
 -221 61 -221 61 -221 88 c 128,-1,20
 -221 115 -221 115 -211.5 135 c 128,-1,21
 -202 155 -202 155 -185.5 170.5 c 0,22,23
 -147.709677419 206 -147.709677419 206 -106.35483871 206 c 128,-1,12
 -65 206 -65 206 -46 185 c 128,-1,13
EndSplineSet
EndChar

StartChar: semicolon
Encoding: 59 59 74
Width: 713
Flags: HW
LayerCount: 2
Fore
SplineSet
105.5 465 m 128,-1,1
 84 456 84 456 57 456 c 128,-1,2
 30 456 30 456 9 477 c 128,-1,3
 -12 498 -12 498 -12 525 c 128,-1,4
 -12 552 -12 552 -2.5 572 c 128,-1,5
 7 592 7 592 23.5 607.5 c 0,6,7
 61.2903225806 643 61.2903225806 643 102.64516129 643 c 0,8,9
 182 643 182 643 182 567 c 0,10,11
 182 524.147058824 182 524.147058824 154.5 499.073529412 c 128,-1,0
 127 474 127 474 105.5 465 c 128,-1,1
-92 206 m 0,12,13
 -26 206 -26 206 -26 127 c 0,14,15
 -26 50.1111111111 -26 50.1111111111 -112.5 -46 c 0,16,17
 -207.0375 -151.041666667 -207.0375 -151.041666667 -312.5 -183 c 0,18,19
 -329 -188 -329 -188 -336 -188 c 0,20,21
 -358 -188 -358 -188 -358 -173 c 256,22,23
 -358 -163 -358 -163 -334 -153.5 c 128,-1,24
 -310 -144 -310 -144 -281 -124 c 128,-1,25
 -252 -104 -252 -104 -227.5 -80.5 c 0,26,27
 -171 -26.306122449 -171 -26.306122449 -171 5.34693877551 c 128,-1,28
 -171 37 -171 37 -180.5 65 c 128,-1,29
 -190 93 -190 93 -190 110 c 128,-1,30
 -190 127 -190 127 -183 144 c 128,-1,31
 -176 161 -176 161 -163 174.5 c 0,32,33
 -132.666666667 206 -132.666666667 206 -92 206 c 0,12,13
EndSplineSet
EndChar

StartChar: exclam
Encoding: 33 33 75
Width: 678
Flags: HW
LayerCount: 2
Fore
SplineSet
260 320 m 1,0,1
 269.278106509 366.390532544 269.278106509 366.390532544 541.5 816.5 c 0,2,3
 706.122047244 1088.69685039 706.122047244 1088.69685039 783 1199 c 1,4,-1
 782 1199 l 1,5,-1
 823 1261 l 1,6,7
 847 1255 847 1255 882.5 1255 c 128,-1,8
 918 1255 918 1255 943.5 1254 c 128,-1,9
 969 1253 969 1253 1005 1262 c 1,10,11
 802.17791411 1033.53374233 802.17791411 1033.53374233 606 758.5 c 0,12,13
 555 687 555 687 508 621 c 2,14,-1
 296 323 l 2,15,16
 284.1 306 284.1 306 272.05 306 c 128,-1,17
 260 306 260 306 260 320 c 1,0,1
87 13.5 m 128,-1,19
 70 32 70 32 70 55 c 128,-1,20
 70 78 70 78 78 95 c 128,-1,21
 86 112 86 112 99.5 125 c 0,22,23
 129.615384615 154 129.615384615 154 165.307692308 154 c 0,24,25
 235 154 235 154 235 90 c 0,26,27
 235 53.1379310345 235 53.1379310345 211.5 32.0689655172 c 0,28,29
 170.153846154 -5 170.153846154 -5 137.076923077 -5 c 128,-1,18
 104 -5 104 -5 87 13.5 c 128,-1,19
EndSplineSet
EndChar

StartChar: exclamdown
Encoding: 161 161 76
Width: 743
Flags: HW
LayerCount: 2
Fore
SplineSet
941 963 m 128,-1,1
 922 955 922 955 897 955 c 128,-1,2
 872 955 872 955 855 972.5 c 128,-1,3
 838 990 838 990 838 1013.5 c 128,-1,4
 838 1037 838 1037 847 1054.5 c 128,-1,5
 856 1072 856 1072 870.5 1085 c 0,6,7
 902.846153846 1114 902.846153846 1114 935.923076923 1114 c 128,-1,8
 969 1114 969 1114 986 1095.5 c 128,-1,9
 1003 1077 1003 1077 1003 1054 c 128,-1,10
 1003 1031 1003 1031 995 1014 c 128,-1,11
 987 997 987 997 973.5 984 c 128,-1,0
 960 971 960 971 941 963 c 128,-1,1
250 -152 m 1,12,13
 211 -146 211 -146 183 -146 c 128,-1,14
 155 -146 155 -146 130.5 -145 c 128,-1,15
 106 -144 106 -144 68 -153 c 1,16,17
 270.82208589 75.4662576687 270.82208589 75.4662576687 467 350.5 c 0,18,19
 518 422 518 422 565 488 c 2,20,-1
 777 786 l 2,21,22
 788.9 803 788.9 803 800.95 803 c 128,-1,23
 813 803 813 803 813 789 c 1,24,25
 805.856492027 746.138952164 805.856492027 746.138952164 531.5 292.5 c 0,26,27
 366.877952756 20.3031496063 366.877952756 20.3031496063 290 -90 c 1,28,-1
 291 -90 l 1,29,-1
 250 -152 l 1,12,13
EndSplineSet
EndChar

StartChar: question
Encoding: 63 63 77
Width: 680
Flags: HW
LayerCount: 2
Fore
SplineSet
315 388.388888889 m 128,-1,1
 358 442 358 442 394.5 486 c 128,-1,2
 431 530 431 530 468.5 572.5 c 0,3,4
 543.027027027 656.963963964 543.027027027 656.963963964 619.013513514 731.481981982 c 128,-1,5
 695 806 695 806 735.5 852.5 c 128,-1,6
 776 899 776 899 801 941 c 0,7,8
 848 1019.96 848 1019.96 848 1093.98 c 128,-1,9
 848 1168 848 1168 813.5 1201.5 c 128,-1,10
 779 1235 779 1235 720.5 1235 c 128,-1,11
 662 1235 662 1235 622 1211 c 128,-1,12
 582 1187 582 1187 559.5 1155 c 0,13,14
 522.731707317 1102.70731707 522.731707317 1102.70731707 519.865853659 1055.35365854 c 128,-1,15
 517 1008 517 1008 496.5 986.5 c 128,-1,16
 476 965 476 965 448.5 965 c 128,-1,17
 421 965 421 965 407 982 c 128,-1,18
 393 999 393 999 393 1026.5 c 128,-1,19
 393 1054 393 1054 422.5 1095.5 c 128,-1,20
 452 1137 452 1137 501 1174.5 c 0,21,22
 619.253333333 1265 619.253333333 1265 748 1265 c 0,23,24
 834.625 1265 834.625 1265 902 1216 c 0,25,26
 976 1162.18181818 976 1162.18181818 976 1080 c 0,27,28
 976 1008.77966102 976 1008.77966102 938.5 955.389830508 c 0,29,30
 867.565621679 854.398512221 867.565621679 854.398512221 684 709 c 0,31,32
 538.926681784 594.61526833 538.926681784 594.61526833 402.5 439.5 c 0,33,34
 366 398 366 398 349.5 375.5 c 128,-1,35
 333 353 333 353 328 340.5 c 128,-1,36
 323 328 323 328 318.5 318.5 c 0,37,38
 308.789473684 298 308.789473684 298 290.394736842 298 c 128,-1,39
 272 298 272 298 272 316.388888889 c 128,-1,0
 272 334.777777778 272 334.777777778 315 388.388888889 c 128,-1,1
87.5 13.5 m 128,-1,41
 70 32 70 32 70 55 c 128,-1,42
 70 78 70 78 78 95 c 128,-1,43
 86 112 86 112 100 125 c 0,44,45
 131.230769231 154 131.230769231 154 166.615384615 154 c 0,46,47
 237 154 237 154 237 90 c 0,48,49
 237 52.6 237 52.6 213 31.8 c 0,50,51
 170.538461538 -5 170.538461538 -5 137.769230769 -5 c 128,-1,40
 105 -5 105 -5 87.5 13.5 c 128,-1,41
EndSplineSet
EndChar

StartChar: questiondown
Encoding: 191 191 78
Width: 1014
Flags: HW
LayerCount: 2
Fore
SplineSet
1102.5 971.5 m 128,-1,1
 1085 989 1085 989 1085 1012.5 c 128,-1,2
 1085 1036 1085 1036 1094 1053.5 c 128,-1,3
 1103 1071 1103 1071 1118 1084 c 0,4,5
 1151.46153846 1113 1151.46153846 1113 1184.23076923 1113 c 128,-1,6
 1217 1113 1217 1113 1234.5 1094.5 c 128,-1,7
 1252 1076 1252 1076 1252 1053 c 128,-1,8
 1252 1030 1252 1030 1244 1013 c 128,-1,9
 1236 996 1236 996 1222 983 c 0,10,11
 1190.76923077 954 1190.76923077 954 1155.38461538 954 c 128,-1,0
 1120 954 1120 954 1102.5 971.5 c 128,-1,1
1006.5 719.611111111 m 128,-1,13
 963 666 963 666 926.5 622 c 128,-1,14
 890 578 890 578 852.5 535.5 c 0,15,16
 771.621621622 443.837837838 771.621621622 443.837837838 699.310810811 372.918918919 c 128,-1,17
 627 302 627 302 586.5 255 c 128,-1,18
 546 208 546 208 521 166 c 0,19,20
 474 87.04 474 87.04 474 13.52 c 128,-1,21
 474 -60 474 -60 508.5 -93.5 c 128,-1,22
 543 -127 543 -127 601 -127 c 128,-1,23
 659 -127 659 -127 699.5 -103 c 128,-1,24
 740 -79 740 -79 762.5 -47 c 0,25,26
 799.268292683 5.29268292683 799.268292683 5.29268292683 802.134146341 52.6463414634 c 0,27,28
 807.602369302 143 807.602369302 143 876 143 c 0,29,30
 901 143 901 143 915 126 c 128,-1,31
 929 109 929 109 929 81.5 c 128,-1,32
 929 54 929 54 899.5 12.5 c 128,-1,33
 870 -29 870 -29 821 -66.5 c 0,34,35
 702.746666667 -157 702.746666667 -157 574 -157 c 0,36,37
 487.375 -157 487.375 -157 420 -108 c 0,38,39
 346 -54.1818181818 346 -54.1818181818 346 28 c 0,40,41
 346 99.2203389831 346 99.2203389831 383.5 152.610169492 c 0,42,43
 454.434378321 253.601487779 454.434378321 253.601487779 638 399 c 0,44,45
 783.073318216 513.38473167 783.073318216 513.38473167 919.5 668.5 c 0,46,47
 956 710 956 710 972.5 732.5 c 128,-1,48
 989 755 989 755 994 767.5 c 128,-1,49
 999 780 999 780 1003.5 789.5 c 0,50,51
 1013.21052632 810 1013.21052632 810 1031.60526316 810 c 128,-1,52
 1050 810 1050 810 1050 791.611111111 c 128,-1,12
 1050 773.222222222 1050 773.222222222 1006.5 719.611111111 c 128,-1,13
EndSplineSet
EndChar

StartChar: quoteleft
Encoding: 8216 8216 79
Width: 864
Flags: HW
LayerCount: 2
Fore
SplineSet
766 1404 m 1,0,-1
 776 1332 l 1,1,2
 776 1299.65384615 776 1299.65384615 754.5 1277.32692308 c 0,3,4
 715.666666667 1237 715.666666667 1237 688.333333333 1237 c 128,-1,5
 661 1237 661 1237 645 1257.5 c 128,-1,6
 629 1278 629 1278 629 1308 c 128,-1,7
 629 1338 629 1338 636 1364.5 c 128,-1,8
 643 1391 643 1391 661 1421.5 c 0,9,10
 700.718104496 1488.80012151 700.718104496 1488.80012151 792 1560 c 0,11,12
 849.857142857 1606.28571429 849.857142857 1606.28571429 889.928571429 1619.64285714 c 128,-1,13
 930 1633 930 1633 939 1633 c 0,14,15
 959 1633 959 1633 959 1616 c 0,16,17
 959 1604.21428571 959 1604.21428571 931 1594.60714286 c 128,-1,18
 903 1585 903 1585 872.5 1562 c 128,-1,19
 842 1539 842 1539 818 1512 c 0,20,21
 766 1453.5 766 1453.5 766 1404 c 1,0,-1
EndSplineSet
EndChar

StartChar: quoteright
Encoding: 8217 8217 80
Width: 864
Flags: HW
LayerCount: 2
Fore
SplineSet
1048 1452 m 1,0,-1
 1038 1524 l 1,1,2
 1038 1556.34615385 1038 1556.34615385 1059.5 1578.67307692 c 0,3,4
 1098.33333333 1619 1098.33333333 1619 1125.16666667 1619 c 128,-1,5
 1152 1619 1152 1619 1168.5 1598.5 c 128,-1,6
 1185 1578 1185 1578 1185 1547.5 c 128,-1,7
 1185 1517 1185 1517 1178 1491 c 128,-1,8
 1171 1465 1171 1465 1152.5 1434.5 c 0,9,10
 1112.81953428 1369.08085382 1112.81953428 1369.08085382 1021 1296 c 1,11,12
 927.8125 1225 927.8125 1225 874 1225 c 256,13,14
 854 1225 854 1225 854 1240 c 0,15,16
 854 1249.5 854 1249.5 877 1261 c 1,17,18
 941.649122807 1280.59064327 941.649122807 1280.59064327 996 1344 c 0,19,20
 1048 1404.66666667 1048 1404.66666667 1048 1452 c 1,0,-1
EndSplineSet
EndChar

StartChar: quotedblleft
Encoding: 8220 8220 81
Width: 1186
Flags: HW
LayerCount: 2
Fore
SplineSet
1086 1391 m 1,0,-1
 1096 1318 l 1,1,2
 1096 1287 1096 1287 1074 1265 c 0,3,4
 1034 1225 1034 1225 1007.5 1225 c 128,-1,5
 981 1225 981 1225 965 1245.5 c 128,-1,6
 949 1266 949 1266 949 1295.5 c 128,-1,7
 949 1325 949 1325 957 1352 c 128,-1,8
 965 1379 965 1379 983.5 1409.5 c 0,9,10
 1024.52603471 1477.13751669 1024.52603471 1477.13751669 1112 1546 c 1,11,12
 1176.03703704 1591.74074074 1176.03703704 1591.74074074 1213.51851852 1605.37037037 c 128,-1,13
 1251 1619 1251 1619 1260 1619 c 0,14,15
 1279 1619 1279 1619 1279 1603 c 0,16,17
 1279 1591.21428571 1279 1591.21428571 1251 1581.10714286 c 128,-1,18
 1223 1571 1223 1571 1192 1548.5 c 128,-1,19
 1161 1526 1161 1526 1137.5 1499 c 0,20,21
 1086 1439.82978723 1086 1439.82978723 1086 1391 c 1,0,-1
766 1391 m 1,22,-1
 776 1318 l 1,23,24
 776 1287.65384615 776 1287.65384615 754.5 1265.32692308 c 0,25,26
 715.666666667 1225 715.666666667 1225 688.833333333 1225 c 128,-1,27
 662 1225 662 1225 645.5 1245.5 c 128,-1,28
 629 1266 629 1266 629 1306.5 c 128,-1,29
 629 1347 629 1347 665.5 1410 c 128,-1,30
 702 1473 702 1473 793 1546 c 1,31,32
 850.666666667 1589.25 850.666666667 1589.25 890.333333333 1604.125 c 128,-1,33
 930 1619 930 1619 939 1619 c 256,34,35
 960 1619 960 1619 960 1603 c 0,36,37
 960 1591.21428571 960 1591.21428571 932 1581.10714286 c 128,-1,38
 904 1571 904 1571 873 1548.5 c 128,-1,39
 842 1526 842 1526 818 1499 c 0,40,41
 766 1440.5 766 1440.5 766 1391 c 1,22,-1
EndSplineSet
EndChar

StartChar: quotedblright
Encoding: 8221 8221 82
Width: 1174
Flags: HW
LayerCount: 2
Fore
SplineSet
1184 1225 m 256,0,1
 1163 1225 1163 1225 1163 1240 c 0,2,3
 1163 1249.5 1163 1249.5 1186 1261 c 1,4,5
 1250.64912281 1280.59064327 1250.64912281 1280.59064327 1305 1344 c 0,6,7
 1357 1404.66666667 1357 1404.66666667 1357 1452 c 1,8,9
 1347 1524 l 1,10,11
 1347 1556.34615385 1347 1556.34615385 1368.5 1578.67307692 c 0,12,13
 1407.33333333 1619 1407.33333333 1619 1434.16666667 1619 c 128,-1,14
 1461 1619 1461 1619 1477.5 1598.5 c 128,-1,15
 1494 1578 1494 1578 1494 1547.5 c 128,-1,16
 1494 1517 1494 1517 1487 1491 c 128,-1,17
 1480 1465 1480 1465 1462 1434.5 c 0,18,19
 1423.89905363 1369.94006309 1423.89905363 1369.94006309 1331 1296 c 1,20,21
 1237.8125 1225 1237.8125 1225 1184 1225 c 256,0,1
1048 1452 m 1,22,-1
 1038 1524 l 1,23,24
 1038 1556.34615385 1038 1556.34615385 1059.5 1578.67307692 c 0,25,26
 1098.33333333 1619 1098.33333333 1619 1125.16666667 1619 c 128,-1,27
 1152 1619 1152 1619 1168.5 1598.5 c 128,-1,28
 1185 1578 1185 1578 1185 1547.5 c 128,-1,29
 1185 1517 1185 1517 1178 1491 c 128,-1,30
 1171 1465 1171 1465 1152.5 1434.5 c 0,31,32
 1112.81953428 1369.08085382 1112.81953428 1369.08085382 1021 1296 c 1,33,34
 927.8125 1225 927.8125 1225 874 1225 c 256,35,36
 854 1225 854 1225 854 1240 c 0,37,38
 854 1249.5 854 1249.5 877 1261 c 1,39,40
 941.649122807 1280.59064327 941.649122807 1280.59064327 996 1344 c 0,41,42
 1048 1404.66666667 1048 1404.66666667 1048 1452 c 1,22,-1
EndSplineSet
EndChar

StartChar: quotesingle
Encoding: 39 39 83
Width: 887
Flags: HW
LayerCount: 2
Fore
SplineSet
1248 1577 m 0,0,1
 1248 1552.57142857 1248 1552.57142857 1229 1526.78571429 c 0,2,3
 1204.36956522 1493.35869565 1204.36956522 1493.35869565 1123 1397 c 2,4,-1
 1080 1346 l 1,5,6
 905.066666667 1141 905.066666667 1141 888.533333333 1141 c 128,-1,7
 872 1141 872 1141 872 1154.5 c 128,-1,8
 872 1168 872 1168 899.5 1218 c 0,9,10
 972.571428571 1350.85714286 972.571428571 1350.85714286 993 1387 c 1,11,-1
 1036 1469 l 2,12,13
 1084.05644302 1559.34611289 1084.05644302 1559.34611289 1111.02822151 1582.67305644 c 0,14,15
 1150.5922039 1616.89055472 1150.5922039 1616.89055472 1199.29610195 1617.94527736 c 128,-1,16
 1248 1619 1248 1619 1248 1577 c 0,0,1
EndSplineSet
EndChar

